SplineFontDB: 3.0
FontName: Jost-Thin
FullName: Jost* 200 Thin
FamilyName: Jost* Thin
Weight: Thin
Copyright: This typeface is licensed under the SIL open font license.
UComments: "2018-6-8: Created with FontForge (http://fontforge.org)"
Version: 003.300
ItalicAngle: 0
UnderlinePosition: -100
UnderlineWidth: 50
Ascent: 800
Descent: 200
InvalidEm: 0
LayerCount: 2
Layer: 0 0 "Back" 1
Layer: 1 0 "Fore" 0
XUID: [1021 69 1495626776 15919582]
FSType: 0
OS2Version: 0
OS2_WeightWidthSlopeOnly: 0
OS2_UseTypoMetrics: 0
CreationTime: 1528481165
ModificationTime: 1536028549
PfmFamily: 17
TTFWeight: 200
TTFWidth: 5
LineGap: 100
VLineGap: 0
OS2TypoAscent: 825
OS2TypoAOffset: 0
OS2TypoDescent: -225
OS2TypoDOffset: 0
OS2TypoLinegap: 100
OS2WinAscent: 900
OS2WinAOffset: 0
OS2WinDescent: 300
OS2WinDOffset: 0
HheadAscent: 1030
HheadAOffset: 0
HheadDescent: -350
HheadDOffset: 0
OS2CapHeight: 700
OS2XHeight: 460
OS2Vendor: 'PfEd'
Lookup: 1 0 0 "alt a" { "alt a"  } ['ss01' ('DFLT' <'dflt' > 'latn' <'dflt' > ) ]
Lookup: 1 0 0 "Tabular Numbers lookup" { "Tabular Numbers lookup"  } ['tnum' ('DFLT' <'dflt' > 'grek' <'dflt' > 'latn' <'dflt' > ) ]
Lookup: 258 0 0 "Lets get our kern on" { "kernin like nobodys business" [150,0,4] } ['kern' ('DFLT' <'dflt' > 'latn' <'dflt' > ) ]
MarkAttachClasses: 1
DEI: 91125
KernClass2: 16 14 "kernin like nobodys business"
 15 slash seven V W
 175 quotedbl quotesingle asterisk grave dieresis ordfeminine macron degree acute ordmasculine circumflex breve dotaccent ring tilde quoteleft quoteright quotedblleft quotedblright
 17 nine question F P
 107 A L backslash Agrave Aacute Acircumflex Atilde Adieresis Aring Amacron Abreve Aogonek Lacute uni013B Lslash
 26 three eight B C germandbls
 5 K X Z
 125 at D G O Ograve Oacute Ocircumflex Otilde Odieresis Oslash Dcaron Dcroat Gcircumflex Gbreve Gdotaccent uni0122 Omacron Obreve

StartChar: H
Encoding: 72 72 0
Width: 626
VWidth: 0
Flags: HMW
LayerCount: 2
Fore
SplineSet
168 367 m 257
 177 397 l 257
 617 397 l 257
 607 367 l 257
 168 367 l 257
699 699 m 257
 732 699 l 257
 490 0 l 257
 460 0 l 257
 699 699 l 257
266 699 m 257
 299 699 l 257
 58 0 l 257
 27 0 l 257
 266 699 l 257
EndSplineSet
EndChar

StartChar: O
Encoding: 79 79 1
Width: 732
VWidth: 0
Flags: HMW
LayerCount: 2
Fore
SplineSet
142 350 m 256
 92 203 137 25 318 24 c 256
 503 23 664 184 721 350 c 256
 771 497 727 675 546 676 c 256
 361 677 199 516 142 350 c 256
109 350 m 256
 170 534 348 710 551 709 c 256
 749 708 809 515 755 350 c 256
 694 166 515 -10 312 -9 c 256
 114 -8 55 185 109 350 c 256
EndSplineSet
EndChar

StartChar: I
Encoding: 73 73 2
Width: 186
VWidth: 0
Flags: HMW
LayerCount: 2
Fore
SplineSet
263 699 m 257
 295 699 l 257
 53 0 l 257
 23 0 l 257
 263 699 l 257
EndSplineSet
EndChar

StartChar: C
Encoding: 67 67 3
Width: 644
VWidth: 0
Flags: HMW
LayerCount: 2
Fore
SplineSet
143 350 m 256
 94 206 133 29 312 26 c 256
 402 25 484 63 557 112 c 257
 543 70 l 257
 471 25 393 -9 306 -8 c 256
 108 -6 55 188 109 350 c 256
 170 533 342 707 545 709 c 256
 620 710 681 684 733 630 c 257
 719 587 l 257
 675 648 614 676 539 675 c 256
 355 673 200 515 143 350 c 256
EndSplineSet
EndChar

StartChar: E
Encoding: 69 69 4
Width: 490
VWidth: 0
Flags: HMW
LayerCount: 2
Fore
SplineSet
42 0 m 257
 52 30 l 257
 375 30 l 257
 366 0 l 257
 42 0 l 257
271 670 m 257
 281 700 l 257
 604 700 l 257
 594 670 l 257
 271 670 l 257
169 372 m 257
 179 402 l 257
 483 402 l 257
 473 372 l 257
 169 372 l 257
266 699 m 257
 299 699 l 257
 58 0 l 257
 27 0 l 257
 266 699 l 257
EndSplineSet
EndChar

StartChar: F
Encoding: 70 70 6
Width: 436
VWidth: 0
Flags: HMW
LayerCount: 2
Fore
SplineSet
271 669 m 257
 281 700 l 257
 566 700 l 257
 556 669 l 257
 271 669 l 257
166 364 m 257
 177 394 l 257
 452 394 l 257
 442 363 l 257
 166 364 l 257
266 699 m 257
 299 699 l 257
 58 0 l 257
 27 0 l 257
 266 699 l 257
EndSplineSet
EndChar

StartChar: G
Encoding: 71 71 7
Width: 721
VWidth: 0
Flags: HMW
LayerCount: 2
Fore
SplineSet
444 314 m 257
 454 344 l 257
 737 343 l 257
 668 169 517 -8 314 -8 c 256
 115 -8 54 185 109 350 c 256
 170 535 349 709 553 709 c 256
 657 709 732 652 771 557 c 257
 742 538 l 257
 712 626 642 676 548 676 c 256
 362 676 200 518 142 350 c 256
 92 203 139 25 320 25 c 256
 494 25 621 170 692 313 c 257
 444 314 l 257
EndSplineSet
EndChar

StartChar: T
Encoding: 84 84 8
Width: 414
VWidth: 0
Flags: HMW
LayerCount: 2
Fore
SplineSet
190 669 m 257
 200 700 l 257
 584 700 l 257
 574 669 l 257
 397 669 l 257
 168 0 l 257
 136 0 l 257
 366 669 l 257
 190 669 l 257
EndSplineSet
EndChar

StartChar: L
Encoding: 76 76 9
Width: 409
VWidth: 0
Flags: HMW
LayerCount: 2
Fore
SplineSet
267 699 m 257
 298 699 l 257
 68 30 l 257
 351 30 l 257
 340 0 l 257
 27 0 l 257
 267 699 l 257
EndSplineSet
EndChar

StartChar: D
Encoding: 68 68 10
Width: 609
VWidth: 0
Flags: HMW
LayerCount: 2
Fore
SplineSet
266 699 m 257
 299 699 l 257
 58 0 l 257
 27 0 l 257
 266 699 l 257
194 0 m 258
 43 0 l 257
 55 32 l 257
 201 32 l 258
 387 32 540 178 599 350 c 256
 652 504 602 668 422 668 c 258
 271 668 l 257
 282 700 l 257
 428 700 l 258
 625 700 688 520 631 350 c 256
 568 162 398 0 194 0 c 258
EndSplineSet
EndChar

StartChar: Q
Encoding: 81 81 11
Width: 730
VWidth: 0
Flags: HMW
LayerCount: 2
Fore
SplineSet
142 350 m 256
 92 203 137 25 318 24 c 256
 503 23 664 184 721 350 c 256
 771 497 727 675 546 676 c 256
 361 677 199 516 142 350 c 256
109 350 m 256
 170 534 348 710 551 709 c 256
 749 708 809 515 755 350 c 256
 694 166 515 -10 312 -9 c 256
 114 -8 55 185 109 350 c 256
419 300 m 257
 457 300 l 257
 652 0 l 257
 614 0 l 257
 419 300 l 257
EndSplineSet
EndChar

StartChar: A
Encoding: 65 65 12
Width: 580
VWidth: 0
Flags: HMW
LayerCount: 2
Fore
SplineSet
159 254 m 257
 176 284 l 257
 491 284 l 257
 490 254 l 257
 159 254 l 257
459 646 m 257
 189 273 l 257
 184 265 l 257
 -9 0 l 257
 -46 0 l 257
 483 722 l 257
 515 0 l 257
 481 0 l 257
 472 263 l 257
 472 271 l 257
 459 646 l 257
EndSplineSet
EndChar

StartChar: R
Encoding: 82 82 13
Width: 464
VWidth: 0
Flags: HMW
LayerCount: 2
Fore
SplineSet
245 325 m 257
 279 325 l 257
 384 0 l 257
 349 0 l 257
 245 325 l 257
266 699 m 257
 299 699 l 257
 58 0 l 257
 27 0 l 257
 266 699 l 257
270 670 m 257
 280 700 l 257
 393 700 l 258
 508 700 590 621 551 502 c 256
 511 378 388 307 263 304 c 258
 145 304 l 257
 155 333 l 257
 267 333 l 258
 375 336 483 395 520 502 c 256
 556 605 487 666 388 670 c 256
 270 670 l 257
EndSplineSet
EndChar

StartChar: V
Encoding: 86 86 14
Width: 580
VWidth: 0
Flags: HMW
LayerCount: 2
Fore
SplineSet
271 56 m 257
 716 699 l 257
 753 699 l 257
 249 -22 l 257
 193 700 l 257
 227 700 l 257
 271 56 l 257
EndSplineSet
EndChar

StartChar: M
Encoding: 77 77 15
Width: 774
VWidth: 0
Flags: HMW
LayerCount: 2
Fore
SplineSet
301 615 m 257
 27 0 l 257
 -5 0 l 257
 317 721 l 257
 386 161 l 257
 846 724 l 257
 669 0 l 257
 638 0 l 257
 789 612 l 257
 366 92 l 257
 301 615 l 257
EndSplineSet
EndChar

StartChar: W
Encoding: 87 87 16
Width: 904
VWidth: 0
Flags: HMW
LayerCount: 2
Fore
SplineSet
641 71 m 257
 1037 699 l 257
 1072 699 l 257
 615 -23 l 257
 613 626 l 257
 207 -23 l 257
 197 700 l 257
 231 700 l 257
 235 71 l 257
 641 723 l 257
 641 71 l 257
EndSplineSet
EndChar

StartChar: N
Encoding: 78 78 17
Width: 655
VWidth: 0
Flags: HMW
LayerCount: 2
Fore
SplineSet
742 699 m 257
 774 699 l 257
 526 -20 l 257
 249 633 l 257
 31 0 l 257
 -1 0 l 257
 247 720 l 257
 523 64 l 257
 742 699 l 257
EndSplineSet
EndChar

StartChar: a
Encoding: 97 97 18
Width: 422
VWidth: 0
Flags: HMW
LayerCount: 2
Fore
SplineSet
56 135 m 256
 34 72 68 20 135 19 c 256
 227 18 294 89 335 164 c 257
 338 149 l 257
 297 66 225 -9 125 -9 c 256
 42 -9 1 58 26 135 c 256
 57 227 157 281 250 281 c 256
 298 281 336 265 369 232 c 257
 361 212 l 257
 328 242 292 257 246 257 c 256
 169 257 83 212 56 135 c 256
163 383 m 257
 155 408 l 257
 207 439 264 471 327 469 c 256
 413 467 439 397 416 323 c 258
 305 0 l 257
 275 0 l 257
 388 323 l 258
 406 380 393 438 322 441 c 256
 264 444 210 412 163 383 c 257
EndSplineSet
Substitution2: "alt a" a.alt
EndChar

StartChar: X
Encoding: 88 88 19
Width: 485
VWidth: 0
Flags: HMW
LayerCount: 2
Fore
SplineSet
599 698 m 257
 639 698 l 257
 339 365 l 257
 435 0 l 257
 399 0 l 257
 316 336 l 257
 19 0 l 257
 -21 0 l 257
 309 369 l 257
 221 700 l 257
 257 700 l 257
 332 397 l 257
 599 698 l 257
EndSplineSet
EndChar

StartChar: K
Encoding: 75 75 20
Width: 457
VWidth: 0
Flags: HMW
LayerCount: 2
Fore
SplineSet
263 699 m 257
 295 699 l 257
 54 0 l 257
 23 0 l 257
 263 699 l 257
576 698 m 257
 619 698 l 257
 210 370 l 257
 390 0 l 257
 354 0 l 257
 173 374 l 257
 576 698 l 257
EndSplineSet
EndChar

StartChar: Y
Encoding: 89 89 21
Width: 491
VWidth: 0
Flags: HMW
LayerCount: 2
Fore
SplineSet
630 698 m 257
 668 698 l 257
 298 275 l 257
 203 0 l 257
 171 0 l 257
 268 279 l 257
 197 700 l 257
 230 700 l 257
 292 310 l 257
 630 698 l 257
EndSplineSet
EndChar

StartChar: B
Encoding: 66 66 22
Width: 482
VWidth: 0
Flags: HMW
LayerCount: 2
Fore
SplineSet
181 382 m 257
 187 400 l 257
 285 401 l 258
 372 404 461 447 491 534 c 256
 521 619 461 670 381 670 c 258
 288 670 l 257
 68 30 l 257
 167 30 l 258
 276 30 378 96 414 203 c 256
 446 298 382 372 288 372 c 258
 177 372 l 257
 183 391 l 257
 297 391 l 258
 403 390 478 309 445 201 c 256
 407 77 288 0 162 0 c 258
 26 0 l 257
 267 700 l 257
 387 700 l 258
 484 700 558 639 523 535 c 256
 490 435 389 386 289 382 c 256
 181 382 l 257
EndSplineSet
EndChar

StartChar: Z
Encoding: 90 90 23
Width: 505
VWidth: 0
Flags: HMW
LayerCount: 2
Fore
SplineSet
209 669 m 257
 221 700 l 257
 677 700 l 257
 29 32 l 257
 436 32 l 257
 425 0 l 257
 -39 0 l 257
 610 669 l 257
 209 669 l 257
EndSplineSet
EndChar

StartChar: o
Encoding: 111 111 24
Width: 520
VWidth: 0
Flags: HMW
LayerCount: 2
Fore
SplineSet
75 230 m 256
 112 355 233 470 368 469 c 256
 500 468 552 344 518 230 c 256
 481 105 360 -10 225 -9 c 256
 93 -8 41 116 75 230 c 256
105 230 m 256
 74 133 113 21 229 20 c 256
 347 19 455 122 489 230 c 256
 520 327 480 439 364 440 c 256
 246 441 139 338 105 230 c 256
EndSplineSet
EndChar

StartChar: J
Encoding: 74 74 25
Width: 196
VWidth: 0
Flags: HMW
LayerCount: 2
Fore
SplineSet
-208 -143 m 257
 -187 -168 -164 -188 -129 -188 c 256
 -50 -189 -9 -114 14 -50 c 258
 271 699 l 257
 302 699 l 257
 42 -60 l 258
 13 -139 -42 -222 -136 -219 c 256
 -178 -218 -206 -197 -231 -166 c 257
 -208 -143 l 257
EndSplineSet
EndChar

StartChar: t
Encoding: 116 116 26
Width: 191
VWidth: 0
Flags: HMW
LayerCount: 2
Fore
SplineSet
118 460 m 257
 289 460 l 257
 278 431 l 257
 107 431 l 257
 118 460 l 257
239 619 m 257
 270 619 l 257
 56 0 l 257
 27 0 l 257
 239 619 l 257
EndSplineSet
EndChar

StartChar: d
Encoding: 100 100 27
Width: 516
VWidth: 0
Flags: HMW
LayerCount: 2
Fore
SplineSet
627 779 m 257
 658 779 l 257
 389 0 l 257
 361 0 l 257
 627 779 l 257
63 230 m 256
 102 348 214 472 348 469 c 256
 476 466 485 325 454 230 c 256
 417 119 317 -8 189 -9 c 256
 56 -10 28 125 63 230 c 256
93 230 m 256
 62 140 80 19 198 20 c 256
 309 21 406 133 440 230 c 256
 468 312 456 436 347 440 c 256
 230 445 129 333 93 230 c 256
EndSplineSet
EndChar

StartChar: l
Encoding: 108 108 28
Width: 182
VWidth: 0
Flags: HMW
LayerCount: 2
Fore
SplineSet
289 779 m 257
 320 779 l 257
 51 0 l 257
 22 0 l 257
 289 779 l 257
EndSplineSet
EndChar

StartChar: i
Encoding: 105 105 29
Width: 197
VWidth: 0
Flags: HMW
LayerCount: 2
Fore
SplineSet
255 682 m 256
 255 695 265 705 278 705 c 256
 291 705 301 695 301 682 c 256
 301 669 291 659 278 659 c 256
 265 659 255 669 255 682 c 256
188 459 m 257
 218 459 l 257
 59 0 l 257
 30 0 l 257
 188 459 l 257
EndSplineSet
EndChar

StartChar: r
Encoding: 114 114 30
Width: 286
VWidth: 0
Flags: HMW
LayerCount: 2
Fore
SplineSet
211 459 m 257
 51 0 l 257
 21 0 l 257
 181 459 l 257
 211 459 l 257
352 421 m 257
 337 431 323 439 304 440 c 256
 221 444 174 343 146 281 c 257
 132 281 l 257
 164 355 218 473 315 469 c 256
 338 469 356 457 375 444 c 257
 352 421 l 257
EndSplineSet
EndChar

StartChar: c
Encoding: 99 99 31
Width: 456
VWidth: 0
Flags: HMW
LayerCount: 2
Fore
SplineSet
100 230 m 256
 69 132 109 22 225 20 c 256
 288 19 346 50 396 85 c 257
 385 47 l 257
 336 14 282 -9 221 -9 c 256
 89 -9 37 116 71 230 c 256
 108 355 228 469 363 469 c 256
 416 469 460 450 496 412 c 257
 485 374 l 257
 455 417 413 440 359 440 c 256
 240 440 134 338 100 230 c 256
EndSplineSet
EndChar

StartChar: b
Encoding: 98 98 32
Width: 516
VWidth: 0
Flags: HMW
LayerCount: 2
Fore
SplineSet
315 779 m 257
 46 0 l 257
 17 0 l 257
 285 779 l 257
 315 779 l 257
503 230 m 256
 464 112 352 -12 218 -9 c 256
 90 -6 81 135 112 230 c 256
 149 341 248 468 376 469 c 256
 509 470 538 335 503 230 c 256
473 230 m 256
 504 320 485 441 367 440 c 256
 256 439 160 327 126 230 c 256
 98 148 109 24 218 20 c 256
 335 15 437 127 473 230 c 256
EndSplineSet
EndChar

StartChar: p
Encoding: 112 112 33
Width: 516
VWidth: 0
Flags: HMW
LayerCount: 2
Fore
SplineSet
-28 -219 m 257
 -59 -219 l 257
 176 459 l 257
 205 459 l 257
 -28 -219 l 257
503 230 m 256
 464 112 352 -12 218 -9 c 256
 90 -6 81 135 112 230 c 256
 149 341 248 468 376 469 c 256
 509 470 538 335 503 230 c 256
473 230 m 256
 504 320 485 441 367 440 c 256
 256 439 160 327 126 230 c 256
 98 148 109 24 218 20 c 256
 335 15 437 127 473 230 c 256
EndSplineSet
EndChar

StartChar: q
Encoding: 113 113 34
Width: 516
VWidth: 0
Flags: HMW
LayerCount: 2
Fore
SplineSet
285 -219 m 257
 519 459 l 257
 549 459 l 257
 314 -219 l 257
 285 -219 l 257
63 230 m 256
 102 348 214 472 348 469 c 256
 476 466 485 325 454 230 c 256
 417 119 317 -8 189 -9 c 256
 56 -10 28 125 63 230 c 256
93 230 m 256
 62 140 80 19 198 20 c 256
 309 21 406 133 440 230 c 256
 468 312 456 436 347 440 c 256
 230 445 129 333 93 230 c 256
EndSplineSet
EndChar

StartChar: h
Encoding: 104 104 35
Width: 459
VWidth: 0
Flags: HMW
LayerCount: 2
Fore
SplineSet
320 779 m 257
 51 0 l 257
 21 0 l 257
 290 779 l 257
 320 779 l 257
406 308 m 258
 424 368 423 438 345 440 c 256
 252 442 184 355 146 282 c 257
 135 282 l 257
 175 369 247 470 355 469 c 256
 449 468 458 384 436 311 c 257
 328 0 l 257
 300 0 l 257
 406 308 l 258
EndSplineSet
EndChar

StartChar: n
Encoding: 110 110 36
Width: 459
VWidth: 0
Flags: HMW
LayerCount: 2
Fore
SplineSet
211 459 m 257
 51 0 l 257
 21 0 l 257
 181 459 l 257
 211 459 l 257
406 308 m 258
 424 368 423 438 345 440 c 256
 252 442 184 355 146 282 c 257
 135 282 l 257
 175 369 247 470 355 469 c 256
 449 468 458 384 436 311 c 257
 328 0 l 257
 300 0 l 257
 406 308 l 258
EndSplineSet
EndChar

StartChar: m
Encoding: 109 109 37
Width: 673
VWidth: 0
Flags: HMW
LayerCount: 2
Fore
SplineSet
374 308 m 258
 389 358 402 437 329 440 c 256
 242 444 180 349 146 282 c 257
 135 282 l 257
 171 362 238 472 339 469 c 256
 428 467 423 375 404 311 c 258
 296 0 l 257
 267 0 l 257
 374 308 l 258
211 459 m 257
 51 0 l 257
 21 0 l 257
 181 459 l 257
 211 459 l 257
649 311 m 258
 542 0 l 257
 512 0 l 257
 619 308 l 258
 635 358 647 437 574 440 c 256
 487 444 426 349 392 282 c 257
 375 282 l 257
 413 363 483 472 585 469 c 256
 674 467 668 375 649 311 c 258
EndSplineSet
EndChar

StartChar: k
Encoding: 107 107 38
Width: 368
VWidth: 0
Flags: HMW
LayerCount: 2
Fore
SplineSet
284 779 m 257
 315 779 l 257
 46 0 l 257
 18 0 l 257
 284 779 l 257
408 458 m 257
 449 458 l 257
 163 266 l 257
 307 0 l 257
 273 0 l 257
 130 272 l 257
 408 458 l 257
EndSplineSet
EndChar

StartChar: u
Encoding: 117 117 39
Width: 459
VWidth: 0
Flags: HMW
LayerCount: 2
Fore
SplineSet
299 0 m 257
 458 459 l 257
 488 459 l 257
 329 0 l 257
 299 0 l 257
105 159 m 258
 86 99 82 22 164 20 c 256
 257 18 325 104 363 178 c 257
 375 178 l 257
 335 91 262 -10 154 -9 c 256
 56 -8 52 83 75 156 c 257
 181 459 l 257
 210 459 l 257
 105 159 l 258
EndSplineSet
EndChar

StartChar: e
Encoding: 101 101 40
Width: 475
VWidth: 0
Flags: HMW
LayerCount: 2
Fore
SplineSet
93 223 m 257
 100 250 l 257
 446 250 l 257
 476 327 457 439 347 441 c 256
 231 443 144 337 108 242 c 257
 106 232 l 257
 83 143 93 22 208 20 c 256
 285 19 353 70 408 123 c 257
 429 105 l 257
 367 43 292 -10 201 -9 c 256
 72 -7 47 128 76 231 c 256
 83 254 92 278 104 300 c 256
 152 388 244 470 350 469 c 256
 471 467 507 349 479 248 c 256
 476 239 473 231 470 223 c 257
 93 223 l 257
EndSplineSet
EndChar

StartChar: g
Encoding: 103 103 41
Width: 516
VWidth: 0
Flags: HMW
LayerCount: 2
Fore
SplineSet
-12 -30 m 257
 17 -30 l 257
 -2 -114 14 -198 117 -200 c 256
 237 -202 328 -93 364 10 c 258
 519 459 l 257
 549 459 l 257
 395 10 l 258
 354 -110 256 -229 116 -229 c 256
 -3 -229 -36 -130 -12 -30 c 257
63 230 m 256
 102 348 214 472 348 469 c 256
 476 466 485 325 454 230 c 256
 417 119 317 -8 189 -9 c 256
 56 -10 28 125 63 230 c 256
93 230 m 256
 61 139 80 19 198 20 c 256
 311 21 408 136 441 234 c 256
 469 315 454 436 347 440 c 256
 230 445 129 333 93 230 c 256
EndSplineSet
EndChar

StartChar: f
Encoding: 102 102 42
Width: 263
VWidth: 0
Flags: HMW
LayerCount: 2
Fore
SplineSet
147 460 m 257
 341 460 l 257
 331 431 l 257
 136 431 l 257
 147 460 l 257
453 719 m 257
 440 738 427 757 401 758 c 256
 339 761 300 690 281 641 c 258
 61 0 l 257
 31 0 l 257
 251 644 l 258
 275 709 327 793 408 788 c 256
 441 786 459 767 476 742 c 257
 453 719 l 257
EndSplineSet
EndChar

StartChar: s
Encoding: 115 115 43
Width: 379
VWidth: 0
Flags: HMW
LayerCount: 2
Fore
SplineSet
69 151 m 257
 71 90 85 20 161 19 c 256
 219 18 281 62 297 118 c 256
 314 177 265 205 219 225 c 256
 161 250 112 285 134 357 c 256
 155 424 224 469 295 468 c 256
 358 467 389 427 403 371 c 257
 375 358 l 257
 364 404 343 438 290 439 c 256
 238 440 179 407 163 356 c 256
 143 294 196 269 244 249 c 256
 299 225 345 185 327 119 c 256
 307 45 235 -9 156 -9 c 256
 68 -9 45 65 42 138 c 257
 69 151 l 257
EndSplineSet
EndChar

StartChar: y
Encoding: 121 121 44
Width: 403
VWidth: 0
Flags: HMW
LayerCount: 2
Fore
SplineSet
503 459 m 257
 -14 -219 l 257
 -49 -218 l 257
 146 35 l 257
 110 460 l 257
 140 460 l 257
 174 43 l 257
 157 45 l 257
 468 459 l 257
 503 459 l 257
EndSplineSet
EndChar

StartChar: w
Encoding: 119 119 45
Width: 599
VWidth: 0
Flags: HMW
LayerCount: 2
Fore
SplineSet
115 460 m 257
 146 460 l 257
 130 62 l 257
 406 483 l 257
 398 61 l 257
 660 459 l 257
 694 459 l 257
 373 -23 l 257
 380 398 l 257
 101 -23 l 257
 115 460 l 257
EndSplineSet
EndChar

StartChar: v
Encoding: 118 118 46
Width: 400
VWidth: 0
Flags: HMW
LayerCount: 2
Fore
SplineSet
114 460 m 257
 147 460 l 257
 179 49 l 257
 469 459 l 257
 504 459 l 257
 159 -22 l 257
 114 460 l 257
EndSplineSet
EndChar

StartChar: x
Encoding: 120 120 47
Width: 368
VWidth: 0
Flags: HMW
LayerCount: 2
Fore
SplineSet
425 458 m 257
 462 458 l 257
 240 234 l 257
 327 0 l 257
 295 0 l 257
 217 214 l 257
 8 0 l 257
 -30 0 l 257
 208 241 l 257
 124 460 l 257
 156 460 l 257
 230 261 l 257
 425 458 l 257
EndSplineSet
EndChar

StartChar: z
Encoding: 122 122 48
Width: 412
VWidth: 0
Flags: HMW
LayerCount: 2
Fore
SplineSet
426 430 m 257
 131 430 l 257
 141 459 l 257
 494 459 l 257
 28 30 l 257
 346 30 l 257
 336 0 l 257
 -39 0 l 257
 426 430 l 257
EndSplineSet
EndChar

StartChar: j
Encoding: 106 106 49
Width: 188
VWidth: 0
Flags: HMW
LayerCount: 2
Fore
SplineSet
245 682 m 256
 245 695 255 705 268 705 c 256
 281 705 291 695 291 682 c 256
 291 669 281 659 268 659 c 256
 255 659 245 669 245 682 c 256
-176 -150 m 257
 -166 -167 -149 -189 -126 -189 c 256
 -63 -190 -21 -119 -4 -73 c 258
 178 459 l 257
 208 459 l 257
 25 -76 l 258
 1 -141 -48 -220 -129 -219 c 256
 -162 -219 -182 -198 -200 -173 c 257
 -176 -150 l 257
EndSplineSet
EndChar

StartChar: P
Encoding: 80 80 50
Width: 469
VWidth: 0
Flags: HMW
LayerCount: 2
Fore
SplineSet
266 699 m 257
 299 699 l 257
 58 0 l 257
 27 0 l 257
 266 699 l 257
273 670 m 257
 284 700 l 257
 400 700 l 258
 517 700 579 607 542 495 c 256
 503 376 387 290 264 290 c 258
 143 290 l 257
 154 320 l 257
 270 320 l 258
 377 321 474 393 510 495 c 256
 544 591 495 669 394 669 c 258
 273 670 l 257
EndSplineSet
EndChar

StartChar: U
Encoding: 85 85 51
Width: 554
VWidth: 0
Flags: HMW
LayerCount: 2
Fore
SplineSet
263 699 m 257
 294 699 l 257
 130 223 l 258
 102 133 111 23 228 22 c 256
 351 21 432 122 469 223 c 258
 633 699 l 257
 665 699 l 257
 502 223 l 258
 460 104 369 -10 224 -9 c 256
 89 -8 65 115 99 223 c 258
 263 699 l 257
EndSplineSet
EndChar

StartChar: S
Encoding: 83 83 52
Width: 475
VWidth: 0
Flags: HMW
LayerCount: 2
Fore
SplineSet
79 205 m 257
 81 123 99 25 201 23 c 256
 295 21 379 90 408 177 c 256
 436 262 385 316 315 353 c 256
 238 393 174 449 205 544 c 256
 235 636 333 709 430 708 c 256
 524 707 558 634 563 552 c 257
 533 538 l 257
 529 608 503 675 422 676 c 256
 344 677 262 618 237 544 c 256
 207 458 277 411 343 376 c 256
 422 335 469 270 441 179 c 256
 408 74 307 -9 195 -8 c 256
 82 -7 52 96 49 191 c 257
 79 205 l 257
EndSplineSet
EndChar

StartChar: at
Encoding: 64 64 53
Width: 724
VWidth: 0
Flags: HMW
LayerCount: 2
Fore
SplineSet
272 320 m 256
 254 267 259 194 329 191 c 256
 420 186 501 293 527 370 c 256
 544 420 543 494 475 499 c 256
 381 506 298 399 272 320 c 256
242 319 m 256
 272 414 369 534 480 528 c 256
 565 523 563 429 543 368 c 256
 514 278 426 161 320 163 c 256
 233 165 221 252 242 319 c 256
87 320 m 256
 154 521 354 712 576 709 c 256
 752 707 825 544 772 390 c 256
 740 295 641 140 522 152 c 256
 447 159 474 237 492 284 c 257
 488 285 l 257
 606 519 l 257
 637 519 l 257
 516 289 l 258
 511 279 506 267 503 256 c 256
 494 225 489 186 530 179 c 256
 628 161 717 315 744 390 c 256
 794 529 733 679 571 682 c 256
 363 686 179 507 115 320 c 256
 64 172 111 22 286 19 c 256
 369 17 448 43 523 74 c 257
 530 49 l 257
 451 16 368 -9 282 -8 c 256
 91 -5 32 156 87 320 c 256
EndSplineSet
EndChar

StartChar: period
Encoding: 46 46 54
Width: 255
VWidth: 0
Flags: HMW
LayerCount: 2
Fore
SplineSet
54 12 m 256
 54 25 64 36 77 36 c 256
 90 36 101 25 101 12 c 256
 101 -1 90 -11 77 -11 c 256
 64 -11 54 -1 54 12 c 256
EndSplineSet
EndChar

StartChar: comma
Encoding: 44 44 55
Width: 267
VWidth: 0
Flags: HMW
LayerCount: 2
Fore
SplineSet
137 97 m 257
 164 84 l 257
 -27 -162 l 257
 -47 -154 l 257
 137 97 l 257
EndSplineSet
EndChar

StartChar: colon
Encoding: 58 58 56
Width: 282
VWidth: 0
Flags: HMW
LayerCount: 2
Fore
SplineSet
54 12 m 256
 54 25 64 36 77 36 c 256
 90 36 101 25 101 12 c 256
 101 -1 90 -11 77 -11 c 256
 64 -11 54 -1 54 12 c 256
176 370 m 256
 176 383 186 393 199 393 c 256
 212 393 223 383 223 370 c 256
 223 357 212 346 199 346 c 256
 186 346 176 357 176 370 c 256
EndSplineSet
EndChar

StartChar: semicolon
Encoding: 59 59 57
Width: 273
VWidth: 0
Flags: HMW
LayerCount: 2
Fore
SplineSet
204 370 m 256
 204 383 215 393 228 393 c 256
 241 393 251 383 251 370 c 256
 251 357 241 346 228 346 c 256
 215 346 204 357 204 370 c 256
137 97 m 257
 164 84 l 257
 -27 -162 l 257
 -47 -154 l 257
 137 97 l 257
EndSplineSet
EndChar

StartChar: quotedbl
Encoding: 34 34 58
Width: 395
VWidth: 0
Flags: HMW
LayerCount: 2
Fore
SplineSet
310 699 m 257
 348 699 l 257
 195 415 l 257
 174 415 l 257
 310 699 l 257
480 699 m 257
 517 699 l 257
 364 415 l 257
 343 415 l 257
 480 699 l 257
EndSplineSet
EndChar

StartChar: exclam
Encoding: 33 33 59
Width: 256
VWidth: 0
Flags: HMW
LayerCount: 2
Fore
SplineSet
294 699 m 257
 333 699 l 257
 154 201 l 257
 132 201 l 257
 294 699 l 257
54 12 m 256
 54 26 65 36 78 36 c 256
 91 36 101 26 101 12 c 256
 101 -2 91 -11 78 -11 c 256
 65 -11 54 -2 54 12 c 256
EndSplineSet
EndChar

StartChar: quotesingle
Encoding: 39 39 60
Width: 226
VWidth: 0
Flags: HMW
LayerCount: 2
Fore
SplineSet
310 699 m 257
 348 699 l 257
 195 415 l 257
 174 415 l 257
 310 699 l 257
EndSplineSet
EndChar

StartChar: numbersign
Encoding: 35 35 61
Width: 546
VWidth: 0
Flags: HMW
LayerCount: 2
Fore
SplineSet
170 450 m 257
 178 476 l 257
 622 476 l 257
 613 450 l 257
 500 450 l 257
 493 450 l 257
 302 450 l 257
 296 450 l 257
 170 450 l 257
56 229 m 257
 65 255 l 257
 179 255 l 257
 187 255 l 257
 377 255 l 257
 387 255 l 257
 509 255 l 257
 501 229 l 257
 56 229 l 257
622 699 m 257
 653 699 l 257
 251 0 l 257
 221 0 l 257
 359 239 l 257
 363 246 l 257
 484 459 l 257
 488 467 l 257
 622 699 l 257
424 699 m 257
 455 699 l 257
 321 468 l 257
 317 460 l 257
 194 244 l 257
 191 238 l 257
 54 1 l 257
 25 0 l 257
 424 699 l 257
EndSplineSet
EndChar

StartChar: hyphen
Encoding: 45 45 62
Width: 197
VWidth: 0
Flags: HMW
LayerCount: 2
Fore
SplineSet
35 246 m 257
 44 275 l 257
 234 275 l 257
 223 246 l 257
 35 246 l 257
EndSplineSet
EndChar

StartChar: dollar
Encoding: 36 36 63
Width: 545
VWidth: 0
Flags: HMW
LayerCount: 2
Fore
SplineSet
454 817 m 257
 482 817 l 257
 441 692 l 257
 413 692 l 257
 454 817 l 257
208 12 m 257
 235 12 l 257
 195 -112 l 257
 168 -112 l 257
 208 12 l 257
539 538 m 257
 533 608 506 675 425 676 c 256
 347 677 267 620 243 545 c 256
 215 457 288 410 355 376 c 256
 434 336 485 271 459 179 c 256
 429 74 331 -10 219 -8 c 256
 106 -6 72 94 66 190 c 257
 97 205 l 257
 101 121 124 25 226 23 c 256
 319 22 401 90 427 177 c 256
 453 263 397 317 327 353 c 256
 249 392 182 452 211 547 c 256
 238 637 336 709 431 708 c 256
 524 707 561 634 568 552 c 257
 539 538 l 257
EndSplineSet
EndChar

StartChar: bar
Encoding: 124 124 64
Width: 214
VWidth: 0
Flags: HMW
LayerCount: 2
Fore
SplineSet
301 785 m 257
 329 785 l 257
 20 -215 l 257
 -8 -215 l 257
 301 785 l 257
EndSplineSet
EndChar

StartChar: zero
Encoding: 48 48 65
Width: 530
VWidth: 0
Flags: HMW
LayerCount: 2
Fore
SplineSet
144 350 m 256
 112 259 55 23 215 21 c 256
 374 19 474 224 517 350 c 256
 549 441 606 677 446 679 c 256
 287 681 187 476 144 350 c 256
112 350 m 256
 160 493 274 711 451 709 c 256
 632 707 586 460 549 350 c 256
 501 207 387 -11 210 -9 c 256
 29 -7 75 240 112 350 c 256
EndSplineSet
Substitution2: "Tabular Numbers lookup" uniFF10
EndChar

StartChar: one
Encoding: 49 49 66
Width: 396
VWidth: 0
Flags: HMW
LayerCount: 2
Fore
SplineSet
244 628 m 257
 256 662 l 257
 459 707 l 257
 216 0 l 257
 185 0 l 257
 414 665 l 257
 244 628 l 257
EndSplineSet
Substitution2: "Tabular Numbers lookup" uniFF11
EndChar

StartChar: two
Encoding: 50 50 67
Width: 498
VWidth: 0
Flags: HMW
LayerCount: 2
Fore
SplineSet
-12 0 m 257
 394 340 l 258
 451 388 511 441 534 515 c 256
 559 595 523 679 431 680 c 256
 307 682 232 561 190 461 c 257
 159 461 l 257
 205 579 294 712 436 710 c 256
 543 708 595 613 566 516 c 256
 543 436 480 374 418 322 c 258
 64 31 l 257
 437 30 l 257
 427 0 l 257
 -12 0 l 257
EndSplineSet
Substitution2: "Tabular Numbers lookup" uniFF12
EndChar

StartChar: four
Encoding: 52 52 68
Width: 528
VWidth: 0
Flags: HMW
LayerCount: 2
Fore
SplineSet
16 141 m 257
 568 699 l 257
 580 699 l 257
 339 0 l 257
 308 0 l 257
 361 152 l 257
 363 159 l 257
 521 616 l 257
 78 170 l 257
 377 169 l 257
 383 169 l 257
 501 169 l 257
 491 140 l 257
 16 141 l 257
EndSplineSet
Substitution2: "Tabular Numbers lookup" uniFF14
EndChar

StartChar: slash
Encoding: 47 47 69
Width: 457
VWidth: 0
Flags: HMW
LayerCount: 2
Fore
SplineSet
598 699 m 257
 631 698 l 257
 -62 -149 l 257
 -93 -148 l 257
 598 699 l 257
EndSplineSet
EndChar

StartChar: backslash
Encoding: 92 92 70
Width: 430
VWidth: 0
Flags: HMW
LayerCount: 2
Fore
SplineSet
198 700 m 257
 230 700 l 257
 362 0 l 257
 332 0 l 257
 198 700 l 257
EndSplineSet
EndChar

StartChar: eight
Encoding: 56 56 71
Width: 493
VWidth: 0
Flags: HMW
LayerCount: 2
Fore
SplineSet
207 538 m 256
 237 629 336 710 433 709 c 256
 527 708 573 621 546 537 c 256
 516 446 417 364 319 365 c 256
 224 366 180 453 207 538 c 256
235 535 m 256
 213 469 243 388 321 386 c 256
 402 384 489 462 515 535 c 256
 540 604 508 679 428 680 c 256
 346 681 261 611 235 535 c 256
67 187 m 256
 101 288 210 377 319 376 c 256
 424 375 476 282 446 186 c 256
 412 80 305 -10 192 -9 c 256
 81 -8 34 89 67 187 c 256
97 189 m 256
 68 107 100 21 196 20 c 256
 293 19 387 99 417 189 c 256
 443 266 407 354 317 355 c 256
 224 356 128 274 97 189 c 256
EndSplineSet
Substitution2: "Tabular Numbers lookup" uniFF18
EndChar

StartChar: nine
Encoding: 57 57 72
Width: 514
VWidth: 0
Flags: HMW
LayerCount: 2
Fore
SplineSet
552 477 m 256
 582 570 547 679 435 680 c 256
 321 681 221 581 189 477 c 256
 162 390 197 285 301 283 c 256
 414 281 518 374 552 477 c 256
171 0 m 257
 131 0 l 257
 454 328 l 257
 459 325 l 257
 409 288 353 255 289 257 c 256
 172 260 130 377 159 477 c 256
 194 598 307 710 439 709 c 256
 569 708 615 589 581 477 c 256
 563 419 527 367 485 322 c 258
 171 0 l 257
EndSplineSet
Substitution2: "Tabular Numbers lookup" uniFF19
EndChar

StartChar: three
Encoding: 51 51 73
Width: 516
VWidth: 0
Flags: HMW
LayerCount: 2
Fore
SplineSet
310 358 m 257
 316 379 l 257
 408 390 509 434 541 530 c 256
 565 605 528 678 445 680 c 256
 349 682 283 606 244 527 c 257
 214 527 l 257
 256 624 336 710 449 709 c 256
 548 708 601 622 572 530 c 256
 537 417 419 368 310 358 c 257
228 -9 m 256
 110 -9 63 78 83 185 c 257
 113 185 l 257
 97 94 130 22 232 21 c 256
 327 20 425 89 453 181 c 256
 485 286 399 338 307 349 c 257
 313 370 l 257
 421 360 519 299 483 178 c 256
 452 70 340 -9 228 -9 c 256
EndSplineSet
Substitution2: "Tabular Numbers lookup" uniFF13
EndChar

StartChar: five
Encoding: 53 53 74
Width: 525
VWidth: 0
Flags: HMW
LayerCount: 2
Fore
SplineSet
507 230 m 256
 470 103 355 -10 218 -9 c 256
 123 -9 73 51 53 138 c 257
 83 154 l 257
 99 78 138 22 222 21 c 256
 341 20 442 121 476 230 c 256
 503 318 472 418 368 422 c 256
 286 425 213 376 150 329 c 257
 351 700 l 257
 663 700 l 257
 654 671 l 257
 367 670 l 257
 208 383 l 257
 258 421 317 452 382 451 c 256
 503 449 536 330 507 230 c 256
EndSplineSet
Substitution2: "Tabular Numbers lookup" uniFF15
EndChar

StartChar: six
Encoding: 54 54 75
Width: 514
VWidth: 0
Flags: HMW
LayerCount: 2
Fore
SplineSet
110 223 m 256
 80 130 115 21 227 20 c 256
 341 19 442 119 474 223 c 256
 501 310 466 415 362 417 c 256
 249 419 144 326 110 223 c 256
491 698 m 257
 532 698 l 257
 207 371 l 257
 203 375 l 257
 253 412 309 445 373 443 c 256
 490 440 532 323 503 223 c 256
 468 102 355 -10 223 -9 c 256
 93 -8 47 111 81 223 c 256
 99 281 135 333 177 378 c 258
 491 698 l 257
EndSplineSet
Substitution2: "Tabular Numbers lookup" uniFF16
EndChar

StartChar: seven
Encoding: 55 55 76
Width: 486
VWidth: 0
Flags: HMW
LayerCount: 2
Fore
SplineSet
203 670 m 257
 212 700 l 257
 663 699 l 257
 106 0 l 257
 72 0 l 257
 605 669 l 257
 203 670 l 257
EndSplineSet
Substitution2: "Tabular Numbers lookup" uniFF17
EndChar

StartChar: plus
Encoding: 43 43 77
Width: 534
VWidth: 0
Flags: HMW
LayerCount: 2
Fore
SplineSet
89 240 m 257
 98 270 l 257
 507 270 l 257
 496 240 l 257
 89 240 l 257
361 485 m 257
 393 485 l 257
 233 25 l 257
 203 25 l 257
 361 485 l 257
EndSplineSet
EndChar

StartChar: equal
Encoding: 61 61 78
Width: 578
VWidth: 0
Flags: HMW
LayerCount: 2
Fore
SplineSet
66 172 m 257
 75 201 l 257
 533 201 l 257
 523 172 l 257
 66 172 l 257
111 304 m 257
 120 333 l 257
 578 333 l 257
 568 304 l 257
 111 304 l 257
EndSplineSet
EndChar

StartChar: percent
Encoding: 37 37 79
Width: 672
VWidth: 0
Flags: HMW
LayerCount: 2
Fore
SplineSet
168 558 m 256
 194 637 274 710 360 709 c 256
 445 708 478 630 454 556 c 256
 428 477 347 404 261 405 c 256
 176 406 144 484 168 558 c 256
195 557 m 256
 175 499 195 432 265 430 c 256
 336 428 405 493 427 557 c 256
 447 615 426 681 357 683 c 256
 286 685 217 621 195 557 c 256
350 144 m 256
 376 223 457 296 543 295 c 256
 628 294 660 216 636 142 c 256
 610 63 529 -10 443 -9 c 256
 358 -8 326 70 350 144 c 256
377 143 m 256
 357 85 377 18 447 16 c 256
 518 14 587 79 609 143 c 256
 629 201 607 267 538 269 c 256
 467 271 399 207 377 143 c 256
720 698 m 257
 752 698 l 257
 83 0 l 257
 52 0 l 257
 720 698 l 257
EndSplineSet
EndChar

StartChar: ampersand
Encoding: 38 38 80
Width: 635
VWidth: 0
Flags: HMW
LayerCount: 2
Fore
SplineSet
277 415 m 258
 252 464 233 516 250 571 c 256
 274 650 356 712 440 710 c 256
 518 708 559 641 537 568 c 256
 511 482 421 430 347 391 c 256
 250 338 124 293 88 177 c 256
 60 88 116 22 207 20 c 256
 383 17 517 205 630 315 c 257
 650 299 l 257
 529 180 389 -11 201 -9 c 256
 95 -8 26 71 57 176 c 256
 94 302 222 355 329 410 c 256
 396 445 482 491 507 568 c 256
 525 625 499 679 436 682 c 256
 369 685 301 632 281 570 c 256
 265 521 281 476 303 432 c 258
 526 0 l 257
 493 0 l 257
 277 415 l 258
EndSplineSet
EndChar

StartChar: question
Encoding: 63 63 81
Width: 513
VWidth: 0
Flags: HMW
LayerCount: 2
Fore
SplineSet
537 514 m 256
 568 600 525 679 430 680 c 256
 349 681 284 631 227 579 c 257
 207 595 l 257
 271 654 346 710 438 709 c 256
 548 707 601 615 567 514 c 256
 528 398 406 339 292 323 c 257
 236 171 l 257
 214 171 l 257
 265 345 l 257
 272 345 l 257
 379 355 498 406 537 514 c 256
145 12 m 256
 145 24 156 36 169 36 c 256
 183 36 191 24 191 12 c 256
 191 -1 181 -11 168 -11 c 256
 154 -11 145 -1 145 12 c 256
EndSplineSet
EndChar

StartChar: parenleft
Encoding: 40 40 82
Width: 244
VWidth: 0
Flags: HMW
LayerCount: 2
Fore
SplineSet
399 779 m 257
 424 779 l 257
 313 631 225 466 171 290 c 256
 122 131 102 -34 121 -200 c 257
 98 -200 l 257
 71 -35 90 131 139 290 c 256
 193 468 281 635 399 779 c 257
EndSplineSet
EndChar

StartChar: parenright
Encoding: 41 41 83
Width: 244
VWidth: 0
Flags: HMW
LayerCount: 2
Fore
SplineSet
-44 -199 m 257
 -69 -199 l 257
 42 -51 129 114 183 290 c 256
 232 449 252 614 233 780 c 257
 258 780 l 257
 285 615 265 449 216 290 c 256
 162 112 74 -55 -44 -199 c 257
EndSplineSet
EndChar

StartChar: asterisk
Encoding: 42 42 84
Width: 557
VWidth: 0
Flags: HMW
LayerCount: 2
Fore
SplineSet
583 588 m 257
 582 560 l 257
 401 511 l 257
 401 530 l 257
 583 588 l 257
466 381 m 257
 439 365 l 257
 392 513 l 257
 408 525 l 257
 466 381 l 257
260 367 m 257
 241 384 l 257
 395 524 l 257
 406 512 l 257
 260 367 l 257
249 562 m 257
 266 588 l 257
 409 528 l 257
 397 511 l 257
 249 562 l 257
451 699 m 257
 479 699 l 257
 410 520 l 257
 391 520 l 257
 451 699 l 257
EndSplineSet
EndChar

StartChar: less
Encoding: 60 60 85
Width: 602
VWidth: 0
Flags: HMW
LayerCount: 2
Fore
SplineSet
143 256 m 257
 510 64 l 257
 500 38 l 257
 91 249 l 257
 97 266 l 257
 651 479 l 257
 641 446 l 257
 143 256 l 257
EndSplineSet
EndChar

StartChar: greater
Encoding: 62 62 86
Width: 602
VWidth: 0
Flags: HMW
LayerCount: 2
Fore
SplineSet
527 259 m 257
 159 451 l 257
 170 477 l 257
 578 266 l 257
 573 249 l 257
 18 36 l 257
 28 69 l 257
 527 259 l 257
EndSplineSet
EndChar

StartChar: bracketleft
Encoding: 91 91 87
Width: 255
VWidth: 0
Flags: HMW
LayerCount: 2
Fore
SplineSet
322 750 m 257
 31 -190 l 257
 144 -190 l 257
 135 -220 l 257
 -9 -220 l 257
 300 780 l 257
 444 780 l 257
 435 751 l 257
 322 750 l 257
EndSplineSet
EndChar

StartChar: bracketright
Encoding: 93 93 88
Width: 255
VWidth: 0
Flags: HMW
LayerCount: 2
Fore
SplineSet
38 -190 m 257
 328 750 l 257
 215 750 l 257
 225 780 l 257
 368 780 l 257
 59 -220 l 257
 -84 -220 l 257
 -75 -191 l 257
 38 -190 l 257
EndSplineSet
EndChar

StartChar: asciicircum
Encoding: 94 94 89
Width: 479
VWidth: 0
Flags: HMW
LayerCount: 2
Fore
SplineSet
416 670 m 257
 196 462 l 257
 161 462 l 257
 421 708 l 257
 431 709 l 257
 522 460 l 257
 493 460 l 257
 416 670 l 257
EndSplineSet
EndChar

StartChar: underscore
Encoding: 95 95 90
Width: 470
VWidth: 0
Flags: HMW
LayerCount: 2
Fore
SplineSet
-94 -116 m 257
 -87 -92 l 257
 385 -92 l 257
 377 -116 l 257
 -94 -116 l 257
EndSplineSet
EndChar

StartChar: grave
Encoding: 96 96 91
Width: 337
VWidth: 0
Flags: HMW
LayerCount: 2
Fore
SplineSet
262 683 m 257
 292 699 l 257
 400 539 l 257
 383 529 l 257
 262 683 l 257
EndSplineSet
EndChar

StartChar: braceleft
Encoding: 123 123 92
Width: 272
VWidth: 0
Flags: HMW
LayerCount: 2
Fore
SplineSet
312 646 m 258
 252 447 l 258
 229 376 198 313 124 287 c 257
 127 294 l 257
 190 260 172 193 154 133 c 258
 92 -66 l 258
 79 -111 68 -172 128 -172 c 258
 152 -172 l 257
 144 -200 l 257
 115 -200 l 258
 37 -200 49 -116 66 -60 c 258
 131 150 l 258
 145 198 151 239 117 278 c 257
 125 302 l 257
 173 333 198 376 216 430 c 258
 280 640 l 258
 302 706 338 779 414 779 c 258
 446 779 l 257
 438 753 l 257
 415 753 l 258
 354 753 329 699 312 646 c 258
EndSplineSet
EndChar

StartChar: braceright
Encoding: 125 125 93
Width: 272
VWidth: 0
Flags: HMW
LayerCount: 2
Fore
SplineSet
72 -66 m 258
 133 133 l 258
 157 204 187 267 261 293 c 257
 258 286 l 257
 195 320 213 387 231 447 c 258
 292 646 l 258
 305 691 317 752 257 752 c 258
 233 753 l 257
 241 780 l 257
 270 780 l 258
 348 780 336 696 319 640 c 258
 254 430 l 258
 240 382 234 341 268 302 c 257
 261 278 l 257
 213 247 187 204 169 150 c 258
 105 -60 l 258
 83 -126 47 -200 -29 -200 c 258
 -60 -200 l 257
 -52 -173 l 257
 -30 -173 l 258
 31 -173 55 -119 72 -66 c 258
EndSplineSet
EndChar

StartChar: asciitilde
Encoding: 126 126 94
Width: 541
VWidth: 0
Flags: HMW
LayerCount: 2
Fore
SplineSet
118 178 m 257
 91 182 l 257
 92 190 93 198 95 206 c 256
 104 235 122 265 144 286 c 256
 169 309 206 326 240 326 c 256
 285 325 310 292 332 258 c 256
 348 232 367 202 402 202 c 256
 450 201 487 250 501 291 c 256
 504 300 505 311 506 321 c 257
 534 317 l 257
 533 308 533 298 530 289 c 256
 522 261 505 230 484 210 c 256
 463 189 430 172 399 173 c 256
 357 174 334 205 313 236 c 256
 294 265 275 297 236 297 c 256
 177 297 137 247 121 200 c 256
 119 193 119 185 118 178 c 257
EndSplineSet
EndChar

StartChar: exclamdown
Encoding: 161 161 95
Width: 282
VWidth: 0
Flags: HMW
LayerCount: 2
Fore
SplineSet
35 -244 m 257
 -4 -244 l 257
 177 254 l 257
 198 254 l 257
 35 -244 l 257
273 442 m 256
 271 432 254 418 243 419 c 256
 232 420 226 432 228 443 c 256
 230 453 247 467 258 466 c 256
 269 465 275 453 273 442 c 256
EndSplineSet
EndChar

StartChar: cent
Encoding: 162 162 96
Width: 545
VWidth: 0
Flags: HMW
LayerCount: 2
Fore
SplineSet
237 7 m 257
 258 7 l 257
 218 -111 l 257
 191 -111 l 257
 237 7 l 257
132 230 m 256
 99 134 134 22 250 20 c 256
 314 19 372 50 423 85 c 257
 411 47 l 257
 361 14 306 -9 245 -9 c 256
 112 -9 66 118 103 230 c 256
 144 355 268 469 404 469 c 256
 456 469 499 450 534 411 c 257
 522 374 l 257
 494 418 452 440 399 440 c 256
 280 440 170 338 132 230 c 256
428 577 m 257
 456 577 l 257
 407 454 l 257
 387 454 l 257
 428 577 l 257
EndSplineSet
EndChar

StartChar: sterling
Encoding: 163 163 97
Width: 545
VWidth: 0
Flags: HMW
LayerCount: 2
Fore
SplineSet
132 324 m 257
 439 324 l 257
 428 295 l 257
 122 295 l 257
 132 324 l 257
557 493 m 257
 574 567 579 676 476 678 c 256
 392 680 308 610 280 533 c 256
 247 441 326 356 297 264 c 256
 262 154 150 83 64 16 c 257
 67 31 l 257
 430 30 l 257
 420 0 l 257
 26 0 l 257
 109 77 229 146 266 260 c 256
 296 354 218 438 248 532 c 256
 279 627 379 710 481 709 c 256
 598 708 606 590 587 501 c 257
 557 493 l 257
EndSplineSet
EndChar

StartChar: currency
Encoding: 164 164 98
Width: 531
VWidth: 0
Flags: HMW
LayerCount: 2
Fore
SplineSet
169 518 m 257
 197 539 l 257
 242 465 l 257
 216 446 l 257
 169 518 l 257
35 62 m 257
 21 85 l 257
 115 154 l 257
 129 131 l 257
 35 62 l 257
521 446 m 257
 506 469 l 257
 600 538 l 257
 613 515 l 257
 521 446 l 257
393 135 m 257
 419 154 l 257
 464 82 l 257
 439 61 l 257
 393 135 l 257
96 300 m 256
 136 422 258 540 393 539 c 256
 525 538 569 410 533 300 c 256
 493 178 370 60 235 61 c 256
 103 62 60 190 96 300 c 256
126 300 m 256
 93 206 125 91 240 90 c 256
 358 89 467 194 503 300 c 256
 536 394 504 509 389 510 c 256
 271 511 162 406 126 300 c 256
EndSplineSet
EndChar

StartChar: yen
Encoding: 165 165 99
Width: 535
VWidth: 0
Flags: HMW
LayerCount: 2
Fore
SplineSet
72 276 m 257
 82 305 l 257
 534 305 l 257
 524 276 l 257
 72 276 l 257
27 144 m 257
 37 172 l 257
 489 172 l 257
 480 144 l 257
 27 144 l 257
643 698 m 257
 680 698 l 257
 311 275 l 257
 216 0 l 257
 184 0 l 257
 282 280 l 257
 210 700 l 257
 243 700 l 257
 305 310 l 257
 643 698 l 257
EndSplineSet
EndChar

StartChar: brokenbar
Encoding: 166 166 100
Width: 214
VWidth: 0
Flags: HMW
LayerCount: 2
Fore
SplineSet
278 694 m 257
 306 694 l 257
 221 456 l 257
 193 456 l 257
 278 694 l 257
152 244 m 257
 67 6 l 257
 39 6 l 257
 124 244 l 257
 152 244 l 257
EndSplineSet
EndChar

StartChar: section
Encoding: 167 167 101
Width: 376
VWidth: 0
Flags: HMW
LayerCount: 2
Fore
SplineSet
477 606 m 257
 459 654 425 680 373 680 c 256
 321 680 250 650 233 596 c 256
 214 535 288 511 329 490 c 256
 380 465 439 428 420 362 c 256
 395 271 301 248 222 241 c 257
 225 251 l 257
 287 273 370 292 389 362 c 256
 404 420 347 448 304 469 c 256
 252 494 182 524 204 596 c 256
 226 667 308 709 378 709 c 256
 441 709 485 679 503 619 c 257
 477 606 l 257
43 137 m 257
 46 70 81 21 152 19 c 256
 210 17 281 48 302 107 c 256
 325 172 265 203 217 228 c 256
 166 255 103 292 123 360 c 256
 150 449 244 471 321 479 c 257
 319 471 l 257
 258 449 173 430 153 361 c 256
 135 299 197 271 242 248 c 256
 298 219 356 180 333 108 c 256
 309 31 222 -10 146 -9 c 256
 65 -8 19 45 16 123 c 257
 43 137 l 257
EndSplineSet
EndChar

StartChar: dieresis
Encoding: 168 168 102
Width: 410
VWidth: 0
Flags: HMW
LayerCount: 2
Fore
SplineSet
452 681 m 256
 454 691 470 705 481 704 c 256
 492 703 499 691 497 680 c 256
 495 670 479 656 468 657 c 256
 457 658 450 670 452 681 c 256
264 681 m 256
 266 691 282 705 293 704 c 256
 304 703 311 691 309 680 c 256
 307 670 291 656 280 657 c 256
 269 658 262 670 264 681 c 256
EndSplineSet
EndChar

StartChar: copyright
Encoding: 169 169 103
Width: 752
VWidth: 0
Flags: HMW
LayerCount: 2
Fore
SplineSet
271 350 m 256
 243 262 272 157 379 155 c 256
 433 154 481 180 525 207 c 257
 517 181 l 257
 473 156 429 135 377 136 c 256
 259 138 220 251 250 350 c 256
 283 460 387 563 506 564 c 256
 552 565 587 548 621 518 c 257
 613 493 l 257
 583 527 551 545 504 545 c 256
 395 544 302 449 271 350 c 256
133 350 m 256
 82 189 157 13 343 12 c 256
 535 11 711 173 767 350 c 256
 818 511 743 687 557 688 c 256
 365 689 189 527 133 350 c 256
110 350 m 256
 167 540 352 711 558 710 c 256
 757 709 841 525 789 350 c 256
 732 160 547 -11 341 -10 c 256
 142 -9 58 175 110 350 c 256
EndSplineSet
EndChar

StartChar: registered
Encoding: 174 174 104
Width: 752
VWidth: 0
Flags: HMW
LayerCount: 2
Fore
SplineSet
410 345 m 257
 431 345 l 257
 503 150 l 257
 479 150 l 257
 410 345 l 257
417 570 m 257
 437 570 l 257
 306 150 l 257
 286 150 l 257
 417 570 l 257
419 552 m 257
 424 570 l 257
 492 570 l 257
 560 566 613 523 592 450 c 256
 570 376 494 337 421 333 c 257
 351 332 l 257
 356 349 l 257
 424 350 l 257
 487 354 553 386 572 451 c 256
 591 513 546 547 489 551 c 257
 419 552 l 257
133 350 m 256
 82 189 157 13 343 12 c 256
 535 11 711 173 767 350 c 256
 818 511 743 687 557 688 c 256
 365 689 189 527 133 350 c 256
110 350 m 256
 167 540 352 711 558 710 c 256
 757 709 841 525 789 350 c 256
 732 160 547 -11 341 -10 c 256
 142 -9 58 175 110 350 c 256
EndSplineSet
EndChar

StartChar: ordfeminine
Encoding: 170 170 105
Width: 223
VWidth: 0
Flags: HMW
LayerCount: 2
Fore
SplineSet
163 529 m 256
 154 499 171 472 202 470 c 256
 247 467 279 509 302 542 c 257
 305 534 l 257
 281 497 247 454 197 456 c 256
 156 458 136 492 149 530 c 256
 163 573 218 604 261 603 c 256
 285 602 301 592 320 579 c 257
 317 568 l 257
 299 580 283 592 260 592 c 256
 224 593 174 566 163 529 c 256
219 658 m 257
 215 670 l 257
 240 684 271 703 301 701 c 256
 342 697 354 665 346 628 c 257
 287 461 l 257
 272 461 l 257
 332 628 l 257
 336 656 333 682 299 686 c 256
 271 689 242 671 219 658 c 257
EndSplineSet
EndChar

StartChar: ordmasculine
Encoding: 186 186 106
Width: 261
VWidth: 0
Flags: HMW
LayerCount: 2
Fore
SplineSet
162 581 m 256
 182 642 247 700 314 699 c 256
 380 698 406 637 387 579 c 256
 367 518 302 460 235 461 c 256
 169 462 143 523 162 581 c 256
179 580 m 256
 162 534 182 481 237 479 c 256
 293 477 352 529 370 580 c 256
 387 626 367 679 312 681 c 256
 256 683 197 631 179 580 c 256
EndSplineSet
EndChar

StartChar: guillemotleft
Encoding: 171 171 107
Width: 462
VWidth: 0
Flags: HMW
LayerCount: 2
Fore
SplineSet
252 256 m 257
 357 37 l 257
 333 20 l 257
 220 258 l 257
 491 488 l 257
 505 470 l 257
 252 256 l 257
101 256 m 257
 206 37 l 257
 183 20 l 257
 70 258 l 257
 341 488 l 257
 355 470 l 257
 101 256 l 257
EndSplineSet
EndChar

StartChar: guillemotright
Encoding: 187 187 108
Width: 462
VWidth: 0
Flags: HMW
LayerCount: 2
Fore
SplineSet
276 254 m 257
 172 473 l 257
 195 490 l 257
 309 252 l 257
 37 22 l 257
 23 40 l 257
 276 254 l 257
427 254 m 257
 323 473 l 257
 346 490 l 257
 459 252 l 257
 188 22 l 257
 174 40 l 257
 427 254 l 257
EndSplineSet
EndChar

StartChar: uni00AD
Encoding: 173 173 109
Width: 197
VWidth: 0
Flags: HMW
LayerCount: 2
Fore
SplineSet
35 246 m 257
 44 275 l 257
 234 275 l 257
 223 246 l 257
 35 246 l 257
EndSplineSet
EndChar

StartChar: logicalnot
Encoding: 172 172 110
Width: 583
VWidth: 0
Flags: HMW
LayerCount: 2
Fore
SplineSet
124 346 m 257
 135 375 l 257
 598 375 l 257
 527 176 l 257
 498 176 l 257
 559 346 l 257
 124 346 l 257
EndSplineSet
EndChar

StartChar: macron
Encoding: 175 175 111
Width: 479
VWidth: 0
Flags: HMW
LayerCount: 2
Fore
SplineSet
240 646 m 257
 249 675 l 257
 579 675 l 257
 570 646 l 257
 240 646 l 257
EndSplineSet
EndChar

StartChar: degree
Encoding: 176 176 112
Width: 261
VWidth: 0
Flags: HMW
LayerCount: 2
Fore
SplineSet
168 601 m 256
 188 662 254 720 321 719 c 256
 387 718 413 657 394 599 c 256
 374 538 309 480 242 481 c 256
 176 482 149 543 168 601 c 256
186 600 m 256
 169 554 189 501 244 499 c 256
 300 497 358 549 376 600 c 256
 393 646 373 699 318 701 c 256
 262 703 204 651 186 600 c 256
EndSplineSet
EndChar

StartChar: plusminus
Encoding: 177 177 113
Width: 574
VWidth: 0
Flags: HMW
LayerCount: 2
Fore
SplineSet
27 0 m 257
 36 30 l 257
 490 30 l 257
 481 0 l 257
 27 0 l 257
141 370 m 257
 150 400 l 257
 604 400 l 257
 595 370 l 257
 141 370 l 257
429 620 m 257
 461 620 l 257
 314 150 l 257
 284 150 l 257
 429 620 l 257
EndSplineSet
EndChar

StartChar: uni00B2
Encoding: 178 178 114
Width: 315
VWidth: 0
Flags: HMW
LayerCount: 2
Fore
SplineSet
69 283 m 257
 319 486 l 258
 353 514 392 548 407 592 c 256
 423 638 405 687 351 690 c 256
 276 694 228 617 199 560 c 257
 180 560 l 257
 213 628 267 711 353 708 c 256
 418 706 444 648 425 590 c 256
 410 543 371 506 334 475 c 258
 116 301 l 257
 338 300 l 257
 332 282 l 257
 69 283 l 257
EndSplineSet
EndChar

StartChar: uni00B3
Encoding: 179 179 115
Width: 290
VWidth: 0
Flags: HMW
LayerCount: 2
Fore
SplineSet
245 495 m 257
 250 508 l 257
 305 518 368 540 389 598 c 256
 405 641 383 685 335 687 c 256
 277 690 237 642 210 598 c 257
 192 598 l 257
 223 653 268 707 337 705 c 256
 396 703 426 651 407 597 c 256
 383 529 310 504 245 495 c 257
190 275 m 256
 117 276 97 327 106 391 c 257
 124 391 l 257
 118 338 129 294 192 293 c 256
 248 292 311 335 328 389 c 256
 349 453 299 479 245 489 c 257
 249 502 l 257
 313 492 370 461 347 386 c 256
 327 322 256 274 190 275 c 256
EndSplineSet
EndChar

StartChar: acute
Encoding: 180 180 116
Width: 337
VWidth: 0
Flags: HMW
LayerCount: 2
Fore
SplineSet
428 680 m 257
 215 530 l 257
 201 542 l 257
 405 698 l 257
 428 680 l 257
EndSplineSet
EndChar

StartChar: mu
Encoding: 181 181 117
Width: 459
VWidth: 0
Flags: HMW
LayerCount: 2
Fore
SplineSet
299 0 m 257
 458 459 l 257
 488 459 l 257
 329 0 l 257
 299 0 l 257
105 159 m 258
 86 99 82 22 164 20 c 256
 257 18 325 104 363 178 c 257
 378 178 l 257
 337 90 262 -10 154 -9 c 256
 56 -8 52 83 75 156 c 257
 181 459 l 257
 210 459 l 257
 105 159 l 258
180 459 m 257
 211 459 l 257
 -58 -319 l 257
 -87 -319 l 257
 180 459 l 257
EndSplineSet
EndChar

StartChar: paragraph
Encoding: 182 182 118
Width: 456
VWidth: 0
Flags: HMW
LayerCount: 2
Fore
SplineSet
446 674 m 257
 455 700 l 257
 577 700 l 257
 569 674 l 257
 446 674 l 257
560 699 m 257
 586 699 l 257
 271 -219 l 257
 244 -219 l 257
 560 699 l 257
455 700 m 257
 483 699 l 257
 167 -219 l 257
 140 -219 l 257
 455 700 l 257
310 270 m 257
 190 284 127 366 167 485 c 256
 210 614 325 701 455 700 c 257
 310 270 l 257
EndSplineSet
EndChar

StartChar: periodcentered
Encoding: 183 183 119
Width: 242
VWidth: 0
Flags: HMW
LayerCount: 2
Fore
SplineSet
122 227 m 256
 124 237 141 251 152 250 c 256
 163 249 170 237 168 226 c 256
 166 216 149 202 138 203 c 256
 127 204 120 216 122 227 c 256
EndSplineSet
EndChar

StartChar: uni00B9
Encoding: 185 185 120
Width: 442
VWidth: 0
Flags: HMW
LayerCount: 2
Fore
SplineSet
305 651 m 257
 311 671 l 257
 435 698 l 257
 287 275 l 257
 268 275 l 257
 405 673 l 257
 305 651 l 257
EndSplineSet
EndChar

StartChar: cedilla
Encoding: 184 184 121
Width: 329
VWidth: 0
Flags: HMW
LayerCount: 2
Fore
SplineSet
122 17 m 257
 149 17 l 257
 62 -68 l 257
 78 -61 98 -51 116 -53 c 256
 155 -58 172 -90 162 -127 c 256
 148 -180 83 -220 30 -219 c 256
 -3 -219 -22 -203 -43 -181 c 257
 -25 -166 l 257
 -8 -182 9 -197 34 -197 c 256
 74 -197 128 -166 140 -126 c 256
 148 -99 133 -74 104 -71 c 256
 77 -68 48 -83 24 -93 c 257
 122 17 l 257
EndSplineSet
EndChar

StartChar: questiondown
Encoding: 191 191 122
Width: 513
VWidth: 0
Flags: HMW
LayerCount: 2
Fore
SplineSet
108 185 m 256
 73 100 122 21 214 20 c 256
 295 19 360 69 417 121 c 257
 439 105 l 257
 375 46 298 -10 206 -9 c 256
 96 -7 44 85 78 186 c 256
 117 302 238 361 351 377 c 257
 408 530 l 257
 430 530 l 257
 381 355 l 257
 374 356 l 257
 215 339 137 256 108 185 c 256
499 687 m 256
 497 677 480 663 469 664 c 256
 458 665 451 677 453 688 c 256
 455 698 472 712 483 711 c 256
 494 710 501 698 499 687 c 256
EndSplineSet
EndChar

StartChar: multiply
Encoding: 215 215 123
Width: 547
VWidth: 0
Flags: HMW
LayerCount: 2
Fore
SplineSet
52 40 m 257
 37 63 l 257
 290 255 l 257
 170 450 l 257
 195 470 l 257
 311 275 l 257
 563 469 l 257
 577 446 l 257
 324 253 l 257
 444 59 l 257
 418 39 l 257
 302 234 l 257
 52 40 l 257
EndSplineSet
EndChar

StartChar: Oslash
Encoding: 216 216 124
Width: 743
VWidth: 0
Flags: HMW
LayerCount: 2
Fore
SplineSet
142 350 m 256
 92 203 137 25 318 24 c 256
 503 23 664 184 721 350 c 256
 771 497 727 675 546 676 c 256
 361 677 199 516 142 350 c 256
109 350 m 256
 170 534 348 710 551 709 c 256
 749 708 809 515 755 350 c 256
 694 166 515 -10 312 -9 c 256
 114 -8 55 185 109 350 c 256
860 737 m 257
 880 720 l 257
 10 -37 l 257
 -10 -20 l 257
 860 737 l 257
EndSplineSet
EndChar

StartChar: Thorn
Encoding: 222 222 125
Width: 497
VWidth: 0
Flags: HMW
LayerCount: 2
Fore
SplineSet
260 699 m 257
 292 699 l 257
 50 0 l 257
 21 0 l 257
 260 699 l 257
216 530 m 257
 227 560 l 257
 369 560 l 256
 488 555 563 469 524 350 c 256
 483 226 358 145 230 140 c 256
 83 140 l 257
 94 170 l 257
 236 170 l 257
 345 175 456 244 493 350 c 256
 529 452 465 523 363 529 c 257
 216 530 l 257
EndSplineSet
EndChar

StartChar: divide
Encoding: 247 247 126
Width: 586
VWidth: 0
Flags: HMW
LayerCount: 2
Fore
SplineSet
369 451 m 256
 371 461 387 475 398 474 c 256
 409 473 416 461 414 450 c 256
 412 440 395 426 384 427 c 256
 373 428 367 440 369 451 c 256
229 43 m 256
 231 53 248 67 259 66 c 256
 270 65 277 53 275 42 c 256
 273 32 256 18 245 19 c 256
 234 20 227 32 229 43 c 256
81 232 m 257
 92 262 l 257
 563 262 l 257
 553 232 l 257
 81 232 l 257
EndSplineSet
EndChar

StartChar: oslash
Encoding: 248 248 127
Width: 513
VWidth: 0
Flags: HMW
LayerCount: 2
Fore
SplineSet
63 230 m 256
 104 354 227 470 363 469 c 256
 496 468 543 342 506 230 c 256
 465 106 341 -10 205 -9 c 256
 72 -8 26 118 63 230 c 256
93 230 m 256
 60 134 93 21 210 20 c 256
 329 19 439 122 476 230 c 256
 509 326 476 439 359 440 c 256
 240 441 130 338 93 230 c 256
540 494 m 257
 557 483 l 257
 11 -38 l 257
 -6 -27 l 257
 540 494 l 257
EndSplineSet
EndChar

StartChar: circumflex
Encoding: 710 710 128
Width: 451
VWidth: 0
Flags: HMW
LayerCount: 2
Fore
SplineSet
412 696 m 257
 236 575 l 257
 221 592 l 257
 419 729 l 257
 524 589 l 257
 502 574 l 257
 412 696 l 257
EndSplineSet
EndChar

StartChar: ogonek
Encoding: 731 731 129
Width: 237
VWidth: 0
Flags: HMW
LayerCount: 2
Fore
SplineSet
109 -161 m 257
 118 -181 l 257
 87 -201 55 -219 17 -219 c 256
 -34 -219 -75 -187 -62 -133 c 256
 -43 -56 58 -16 122 13 c 257
 136 0 l 257
 81 -28 -15 -60 -31 -128 c 256
 -40 -166 -12 -190 24 -192 c 256
 55 -194 83 -176 109 -161 c 257
EndSplineSet
EndChar

StartChar: tilde
Encoding: 732 732 130
Width: 498
VWidth: 0
Flags: HMW
LayerCount: 2
Fore
SplineSet
284 644 m 257
 305 674 332 707 373 706 c 256
 413 705 435 659 476 661 c 256
 504 662 526 689 544 707 c 257
 561 692 l 257
 538 667 507 635 470 636 c 256
 431 637 410 681 371 681 c 256
 339 681 320 655 303 632 c 257
 284 644 l 257
EndSplineSet
EndChar

StartChar: ring
Encoding: 730 730 131
Width: 261
VWidth: 0
Flags: HMW
LayerCount: 2
Fore
SplineSet
248 786 m 256
 264 837 322 885 377 884 c 256
 431 883 457 832 441 784 c 256
 425 733 367 685 312 686 c 256
 258 687 232 738 248 786 c 256
268 785 m 256
 256 749 274 709 315 707 c 256
 357 704 409 747 421 785 c 256
 433 821 415 861 374 863 c 256
 332 866 280 823 268 785 c 256
EndSplineSet
EndChar

StartChar: dotaccent
Encoding: 729 729 132
Width: 242
VWidth: 0
Flags: HMW
LayerCount: 2
Fore
SplineSet
305 763 m 256
 307 773 324 787 335 786 c 256
 346 785 352 773 350 762 c 256
 348 752 332 738 321 739 c 256
 310 740 303 752 305 763 c 256
EndSplineSet
EndChar

StartChar: uni2010
Encoding: 8208 8208 133
Width: 197
VWidth: 0
Flags: HMW
LayerCount: 2
Fore
SplineSet
35 246 m 257
 44 275 l 257
 234 275 l 257
 223 246 l 257
 35 246 l 257
EndSplineSet
EndChar

StartChar: endash
Encoding: 8211 8211 134
Width: 696
VWidth: 0
Flags: HMW
LayerCount: 2
Fore
SplineSet
96 246 m 257
 105 275 l 257
 671 275 l 257
 661 246 l 257
 96 246 l 257
EndSplineSet
EndChar

StartChar: figuredash
Encoding: 8210 8210 135
Width: 555
VWidth: 0
Flags: HMW
LayerCount: 2
Fore
SplineSet
96 246 m 257
 105 275 l 257
 530 275 l 257
 520 246 l 257
 96 246 l 257
EndSplineSet
EndChar

StartChar: emdash
Encoding: 8212 8212 136
Width: 837
VWidth: 0
Flags: HMW
LayerCount: 2
Fore
SplineSet
96 246 m 257
 105 275 l 257
 812 275 l 257
 802 246 l 257
 96 246 l 257
EndSplineSet
EndChar

StartChar: minus
Encoding: 8722 8722 137
Width: 555
VWidth: 0
Flags: HMW
LayerCount: 2
Fore
SplineSet
96 246 m 257
 105 275 l 257
 530 275 l 257
 520 246 l 257
 96 246 l 257
EndSplineSet
EndChar

StartChar: quoteright
Encoding: 8217 8217 138
Width: 238
VWidth: 0
Flags: HMW
LayerCount: 2
Fore
SplineSet
330 698 m 257
 367 698 l 257
 194 472 l 257
 171 472 l 257
 330 698 l 257
EndSplineSet
EndChar

StartChar: quoteleft
Encoding: 8216 8216 139
Width: 224
VWidth: 0
Flags: HMW
LayerCount: 2
Fore
SplineSet
200 472 m 257
 162 472 l 257
 335 698 l 257
 358 698 l 257
 200 472 l 257
EndSplineSet
EndChar

StartChar: quotesinglbase
Encoding: 8218 8218 140
Width: 238
VWidth: 0
Flags: HMW
LayerCount: 2
Fore
SplineSet
108 78 m 257
 146 78 l 257
 -28 -148 l 257
 -51 -148 l 257
 108 78 l 257
EndSplineSet
EndChar

StartChar: quotedblleft
Encoding: 8220 8220 141
Width: 386
VWidth: 0
Flags: HMW
LayerCount: 2
Fore
SplineSet
212 472 m 257
 175 472 l 257
 348 698 l 257
 372 698 l 257
 212 472 l 257
361 472 m 257
 323 472 l 257
 496 698 l 257
 520 698 l 257
 361 472 l 257
EndSplineSet
EndChar

StartChar: quotedblright
Encoding: 8221 8221 142
Width: 386
VWidth: 0
Flags: HMW
LayerCount: 2
Fore
SplineSet
317 698 m 257
 354 698 l 257
 181 472 l 257
 158 472 l 257
 317 698 l 257
465 698 m 257
 502 698 l 257
 329 472 l 257
 306 472 l 257
 465 698 l 257
EndSplineSet
EndChar

StartChar: perthousand
Encoding: 8240 8240 143
Width: 1023
VWidth: 0
Flags: HMW
LayerCount: 2
Fore
SplineSet
701 144 m 256
 727 223 808 296 894 295 c 256
 979 294 1011 216 987 142 c 256
 961 63 880 -10 794 -9 c 256
 709 -8 677 70 701 144 c 256
728 143 m 256
 708 85 728 18 798 16 c 256
 869 14 938 79 960 143 c 256
 980 201 958 267 889 269 c 256
 818 271 750 207 728 143 c 256
168 558 m 256
 194 637 274 710 360 709 c 256
 445 708 478 630 454 556 c 256
 428 477 347 404 261 405 c 256
 176 406 144 484 168 558 c 256
195 557 m 256
 175 499 195 432 265 430 c 256
 336 428 405 493 427 557 c 256
 447 615 426 681 357 683 c 256
 286 685 217 621 195 557 c 256
350 144 m 256
 376 223 457 296 543 295 c 256
 628 294 660 216 636 142 c 256
 610 63 529 -10 443 -9 c 256
 358 -8 326 70 350 144 c 256
377 143 m 256
 357 85 377 18 447 16 c 256
 518 14 587 79 609 143 c 256
 629 201 607 267 538 269 c 256
 467 271 399 207 377 143 c 256
720 698 m 257
 752 698 l 257
 83 0 l 257
 52 0 l 257
 720 698 l 257
EndSplineSet
EndChar

StartChar: guilsinglleft
Encoding: 8249 8249 144
Width: 311
VWidth: 0
Flags: HMW
LayerCount: 2
Fore
SplineSet
101 256 m 257
 206 37 l 257
 183 20 l 257
 70 258 l 257
 341 488 l 257
 355 470 l 257
 101 256 l 257
EndSplineSet
EndChar

StartChar: guilsinglright
Encoding: 8250 8250 145
Width: 329
VWidth: 0
Flags: HMW
LayerCount: 2
Fore
SplineSet
293 254 m 257
 188 473 l 257
 212 490 l 257
 325 252 l 257
 54 22 l 257
 40 40 l 257
 293 254 l 257
EndSplineSet
EndChar

StartChar: uni2031
Encoding: 8241 8241 146
Width: 1374
VWidth: 0
Flags: HMW
LayerCount: 2
Fore
SplineSet
1052 144 m 256
 1078 223 1159 296 1245 295 c 256
 1330 294 1362 216 1338 142 c 256
 1312 63 1231 -10 1145 -9 c 256
 1060 -8 1028 70 1052 144 c 256
1078 143 m 256
 1058 85 1079 18 1149 16 c 256
 1220 14 1289 79 1311 143 c 256
 1331 201 1309 267 1240 269 c 256
 1169 271 1100 207 1078 143 c 256
701 144 m 256
 727 223 808 296 894 295 c 256
 979 294 1011 216 987 142 c 256
 961 63 880 -10 794 -9 c 256
 709 -8 677 70 701 144 c 256
728 143 m 256
 708 85 728 18 798 16 c 256
 869 14 938 79 960 143 c 256
 980 201 958 267 889 269 c 256
 818 271 750 207 728 143 c 256
168 558 m 256
 194 637 274 710 360 709 c 256
 445 708 478 630 454 556 c 256
 428 477 347 404 261 405 c 256
 176 406 144 484 168 558 c 256
195 557 m 256
 175 499 195 432 265 430 c 256
 336 428 405 493 427 557 c 256
 447 615 426 681 357 683 c 256
 286 685 217 621 195 557 c 256
350 144 m 256
 376 223 457 296 543 295 c 256
 628 294 660 216 636 142 c 256
 610 63 529 -10 443 -9 c 256
 358 -8 326 70 350 144 c 256
377 143 m 256
 357 85 377 18 447 16 c 256
 518 14 587 79 609 143 c 256
 629 201 607 267 538 269 c 256
 467 271 399 207 377 143 c 256
720 698 m 257
 752 698 l 257
 83 0 l 257
 52 0 l 257
 720 698 l 257
EndSplineSet
EndChar

StartChar: uni203D
Encoding: 8253 8253 147
Width: 524
VWidth: 0
Flags: HMW
LayerCount: 2
Fore
SplineSet
537 514 m 256
 568 600 525 679 430 680 c 256
 349 681 284 631 227 579 c 257
 207 595 l 257
 271 654 346 710 438 709 c 256
 548 707 601 615 567 514 c 256
 529 402 418 338 306 324 c 257
 292 346 l 257
 394 357 500 411 537 514 c 256
341 509 m 257
 378 509 l 257
 252 171 l 257
 231 171 l 257
 341 509 l 257
165 13 m 256
 167 23 184 37 195 36 c 256
 206 35 214 23 212 12 c 256
 210 2 193 -12 182 -11 c 256
 171 -10 163 2 165 13 c 256
EndSplineSet
EndChar

StartChar: Euro
Encoding: 8364 8364 148
Width: 625
VWidth: 0
Flags: HMW
LayerCount: 2
Fore
SplineSet
148 434 m 257
 154 455 l 257
 627 455 l 257
 620 434 l 257
 148 434 l 257
107 314 m 257
 113 335 l 257
 562 335 l 257
 554 314 l 257
 107 314 l 257
215 350 m 256
 173 229 162 24 338 21 c 256
 395 20 450 44 500 70 c 257
 486 30 l 257
 437 9 387 -10 333 -9 c 256
 138 -7 138 211 184 350 c 256
 239 516 380 709 574 709 c 256
 622 709 663 694 704 670 c 257
 692 630 l 257
 656 661 617 680 568 680 c 256
 392 680 266 500 215 350 c 256
EndSplineSet
EndChar

StartChar: fraction
Encoding: 8260 8260 149
Width: 663
VWidth: 0
Flags: HMW
LayerCount: 2
Fore
SplineSet
764 698 m 257
 793 698 l 257
 29 0 l 257
 1 0 l 257
 764 698 l 257
EndSplineSet
EndChar

StartChar: onequarter
Encoding: 188 188 150
Width: 709
VWidth: 0
Flags: HMW
LayerCount: 2
Fore
SplineSet
800 698 m 257
 828 698 l 257
 65 0 l 257
 37 0 l 257
 800 698 l 257
190 651 m 257
 196 671 l 257
 320 698 l 257
 172 275 l 257
 153 275 l 257
 290 673 l 257
 190 651 l 257
351 85 m 257
 371 101 l 257
 567 101 l 257
 571 101 l 257
 642 101 l 257
 637 84 l 257
 351 85 l 257
370 86 m 257
 349 86 l 257
 682 417 l 257
 688 419 l 257
 545 0 l 257
 526 0 l 257
 558 91 l 257
 559 95 l 257
 654 368 l 257
 370 86 l 257
EndSplineSet
EndChar

StartChar: onehalf
Encoding: 189 189 151
Width: 770
VWidth: 0
Flags: HMW
LayerCount: 2
Fore
SplineSet
800 698 m 257
 828 698 l 257
 65 0 l 257
 37 0 l 257
 800 698 l 257
190 651 m 257
 196 671 l 257
 320 698 l 257
 172 275 l 257
 153 275 l 257
 290 673 l 257
 190 651 l 257
412 3 m 257
 662 205 l 258
 696 233 736 267 751 311 c 256
 767 357 749 407 695 410 c 256
 620 414 571 337 542 280 c 257
 523 280 l 257
 556 348 610 431 696 428 c 256
 761 426 789 368 770 310 c 256
 755 263 713 226 676 195 c 258
 459 21 l 257
 681 20 l 257
 675 2 l 257
 412 3 l 257
EndSplineSet
EndChar

StartChar: threequarters
Encoding: 190 190 152
Width: 771
VWidth: 0
Flags: HMW
LayerCount: 2
Fore
SplineSet
863 698 m 257
 892 698 l 257
 128 0 l 257
 100 0 l 257
 863 698 l 257
250 495 m 257
 255 508 l 257
 310 518 373 540 394 598 c 256
 410 641 387 685 339 687 c 256
 281 690 241 642 214 598 c 257
 196 598 l 257
 227 653 273 707 342 705 c 256
 401 703 431 651 412 597 c 256
 388 529 315 504 250 495 c 257
195 275 m 256
 122 276 101 327 110 391 c 257
 129 391 l 257
 123 338 133 294 196 293 c 256
 252 292 316 335 333 389 c 256
 354 453 303 479 249 489 c 257
 254 502 l 257
 318 492 375 461 352 386 c 256
 332 322 261 274 195 275 c 256
414 85 m 257
 434 101 l 257
 630 101 l 257
 634 101 l 257
 705 101 l 257
 700 84 l 257
 414 85 l 257
434 86 m 257
 412 86 l 257
 745 417 l 257
 751 419 l 257
 608 0 l 257
 589 0 l 257
 621 91 l 257
 622 95 l 257
 717 368 l 257
 434 86 l 257
EndSplineSet
EndChar

StartChar: uni2150
Encoding: 8528 8528 153
Width: 792
VWidth: 0
Flags: HMW
LayerCount: 2
Fore
SplineSet
753 698 m 257
 781 698 l 257
 18 0 l 257
 -10 0 l 257
 753 698 l 257
190 651 m 257
 196 671 l 257
 320 698 l 257
 172 275 l 257
 153 275 l 257
 290 673 l 257
 190 651 l 257
573 402 m 257
 579 420 l 257
 851 419 l 257
 503 0 l 257
 481 0 l 257
 814 401 l 257
 573 402 l 257
EndSplineSet
EndChar

StartChar: uni2151
Encoding: 8529 8529 154
Width: 737
VWidth: 0
Flags: HMW
LayerCount: 2
Fore
SplineSet
753 698 m 257
 781 698 l 257
 18 0 l 257
 -10 0 l 257
 753 698 l 257
190 651 m 257
 196 671 l 257
 320 698 l 257
 172 275 l 257
 153 275 l 257
 290 673 l 257
 190 651 l 257
723 288 m 256
 742 343 725 408 658 409 c 256
 591 411 525 349 504 288 c 256
 487 236 506 176 568 173 c 256
 635 170 702 228 723 288 c 256
485 4 m 257
 460 5 l 257
 663 197 l 257
 665 196 l 257
 634 176 600 155 562 157 c 256
 491 159 468 230 487 289 c 256
 509 360 583 428 660 427 c 256
 738 426 764 355 742 288 c 256
 731 253 706 222 681 196 c 257
 485 4 l 257
EndSplineSet
EndChar

StartChar: uni2152
Encoding: 8530 8530 155
Width: 1016
VWidth: 0
Flags: HMW
LayerCount: 2
Fore
SplineSet
753 698 m 257
 781 698 l 257
 18 0 l 257
 -10 0 l 257
 753 698 l 257
190 651 m 257
 196 671 l 257
 320 698 l 257
 172 275 l 257
 153 275 l 257
 290 673 l 257
 190 651 l 257
498 378 m 257
 504 398 l 257
 627 425 l 257
 480 2 l 257
 461 2 l 257
 598 400 l 257
 498 378 l 257
734 210 m 256
 715 155 681 15 776 13 c 256
 870 11 932 136 958 210 c 256
 977 265 1011 405 916 407 c 256
 822 409 760 284 734 210 c 256
714 210 m 256
 742 295 813 426 918 425 c 256
 1026 423 1000 276 978 210 c 256
 950 125 879 -6 774 -5 c 256
 666 -3 692 144 714 210 c 256
EndSplineSet
EndChar

StartChar: onethird
Encoding: 8531 8531 156
Width: 710
VWidth: 0
Flags: HMW
LayerCount: 2
Fore
SplineSet
753 698 m 257
 781 698 l 257
 18 0 l 257
 -10 0 l 257
 753 698 l 257
190 651 m 257
 196 671 l 257
 320 698 l 257
 172 275 l 257
 153 275 l 257
 290 673 l 257
 190 651 l 257
562 215 m 257
 567 228 l 257
 622 238 685 260 706 318 c 256
 722 361 699 405 651 407 c 256
 593 410 553 362 526 318 c 257
 508 318 l 257
 539 373 584 427 653 425 c 256
 712 423 743 371 724 317 c 256
 700 249 627 224 562 215 c 257
506 -5 m 256
 433 -4 413 47 422 111 c 257
 441 111 l 257
 435 58 445 14 508 13 c 256
 564 12 628 55 645 109 c 256
 666 173 615 199 561 209 c 257
 566 222 l 257
 630 212 687 181 664 106 c 256
 644 42 572 -6 506 -5 c 256
EndSplineSet
EndChar

StartChar: twothirds
Encoding: 8532 8532 157
Width: 829
VWidth: 0
Flags: HMW
LayerCount: 2
Fore
SplineSet
873 698 m 257
 901 698 l 257
 137 0 l 257
 109 0 l 257
 873 698 l 257
72 283 m 257
 322 486 l 258
 356 514 396 548 411 592 c 256
 427 638 409 687 355 690 c 256
 280 694 231 617 202 560 c 257
 183 560 l 257
 216 628 270 711 356 708 c 256
 421 706 448 648 429 590 c 256
 414 543 373 506 336 475 c 258
 119 301 l 257
 341 300 l 257
 335 282 l 257
 72 283 l 257
681 215 m 257
 686 228 l 257
 741 238 804 260 825 318 c 256
 841 361 819 405 771 407 c 256
 713 410 673 362 646 318 c 257
 628 318 l 257
 659 373 704 427 773 425 c 256
 832 423 862 371 843 317 c 256
 819 249 746 224 681 215 c 257
626 -5 m 256
 553 -4 533 47 542 111 c 257
 560 111 l 257
 554 58 565 14 628 13 c 256
 684 12 747 55 764 109 c 256
 785 173 735 199 681 209 c 257
 685 222 l 257
 749 212 806 181 783 106 c 256
 763 42 692 -6 626 -5 c 256
EndSplineSet
EndChar

StartChar: uni2155
Encoding: 8533 8533 158
Width: 700
VWidth: 0
Flags: HMW
LayerCount: 2
Fore
SplineSet
753 698 m 257
 781 698 l 257
 18 0 l 257
 -10 0 l 257
 753 698 l 257
190 651 m 257
 196 671 l 257
 320 698 l 257
 172 275 l 257
 153 275 l 257
 290 673 l 257
 190 651 l 257
645 135 m 256
 621 61 548 -8 466 -7 c 256
 408 -7 382 30 369 81 c 257
 387 91 l 257
 398 46 416 12 467 11 c 256
 538 10 604 72 625 136 c 256
 642 187 627 247 565 251 c 256
 515 254 471 222 432 196 c 257
 454 220 l 257
 484 248 531 270 573 268 c 256
 646 265 664 194 645 135 c 256
571 400 m 257
 465 223 l 257
 428 193 l 257
 561 417 l 257
 747 418 l 257
 742 401 l 257
 571 400 l 257
EndSplineSet
EndChar

StartChar: uni2156
Encoding: 8534 8534 159
Width: 819
VWidth: 0
Flags: HMW
LayerCount: 2
Fore
SplineSet
873 698 m 257
 901 698 l 257
 137 0 l 257
 109 0 l 257
 873 698 l 257
72 283 m 257
 322 486 l 258
 356 514 396 548 411 592 c 256
 427 638 409 687 355 690 c 256
 280 694 231 617 202 560 c 257
 183 560 l 257
 216 628 270 711 356 708 c 256
 421 706 448 648 429 590 c 256
 414 543 373 506 336 475 c 258
 119 301 l 257
 341 300 l 257
 335 282 l 257
 72 283 l 257
764 135 m 256
 740 61 667 -8 585 -7 c 256
 527 -7 502 30 489 81 c 257
 507 91 l 257
 518 46 536 12 587 11 c 256
 658 10 723 72 744 136 c 256
 761 187 747 247 685 251 c 256
 635 254 591 222 552 196 c 257
 573 220 l 257
 603 248 651 270 693 268 c 256
 766 265 783 194 764 135 c 256
690 400 m 257
 585 223 l 257
 547 193 l 257
 680 417 l 257
 867 418 l 257
 861 401 l 257
 690 400 l 257
EndSplineSet
EndChar

StartChar: uni2157
Encoding: 8535 8535 160
Width: 781
VWidth: 0
Flags: HMW
LayerCount: 2
Fore
SplineSet
835 698 m 257
 863 698 l 257
 100 0 l 257
 71 0 l 257
 835 698 l 257
250 495 m 257
 255 508 l 257
 310 518 373 540 394 598 c 256
 410 641 387 685 339 687 c 256
 281 690 241 642 214 598 c 257
 196 598 l 257
 227 653 273 707 342 705 c 256
 401 703 431 651 412 597 c 256
 388 529 315 504 250 495 c 257
195 275 m 256
 122 276 101 327 110 391 c 257
 129 391 l 257
 123 338 133 294 196 293 c 256
 252 292 316 335 333 389 c 256
 354 453 303 479 249 489 c 257
 254 502 l 257
 318 492 375 461 352 386 c 256
 332 322 261 274 195 275 c 256
727 135 m 256
 703 61 630 -8 548 -7 c 256
 490 -7 464 30 451 81 c 257
 469 91 l 257
 480 46 498 12 549 11 c 256
 620 10 686 72 707 136 c 256
 724 187 709 247 647 251 c 256
 597 254 553 222 514 196 c 257
 536 220 l 257
 566 248 613 270 655 268 c 256
 728 265 746 194 727 135 c 256
652 400 m 257
 547 223 l 257
 510 193 l 257
 642 417 l 257
 829 418 l 257
 823 401 l 257
 652 400 l 257
EndSplineSet
EndChar

StartChar: uni2158
Encoding: 8536 8536 161
Width: 814
VWidth: 0
Flags: HMW
LayerCount: 2
Fore
SplineSet
868 698 m 257
 896 698 l 257
 133 0 l 257
 104 0 l 257
 868 698 l 257
102 365 m 257
 121 381 l 257
 318 381 l 257
 322 381 l 257
 393 381 l 257
 388 364 l 257
 102 365 l 257
122 366 m 257
 100 366 l 257
 433 699 l 257
 441 699 l 257
 296 281 l 257
 276 281 l 257
 309 371 l 257
 309 375 l 257
 405 648 l 257
 122 366 l 257
760 135 m 256
 736 61 663 -8 581 -7 c 256
 523 -7 497 30 484 81 c 257
 502 91 l 257
 513 46 531 12 582 11 c 256
 653 10 719 72 740 136 c 256
 757 187 742 247 680 251 c 256
 630 254 586 222 547 196 c 257
 568 220 l 257
 598 248 646 270 688 268 c 256
 761 265 779 194 760 135 c 256
685 400 m 257
 580 223 l 257
 543 193 l 257
 675 417 l 257
 862 418 l 257
 856 401 l 257
 685 400 l 257
EndSplineSet
EndChar

StartChar: uni2159
Encoding: 8537 8537 162
Width: 690
VWidth: 0
Flags: HMW
LayerCount: 2
Fore
SplineSet
753 698 m 257
 781 698 l 257
 18 0 l 257
 -10 0 l 257
 753 698 l 257
190 651 m 257
 196 671 l 257
 320 698 l 257
 172 275 l 257
 153 275 l 257
 290 673 l 257
 190 651 l 257
409 132 m 256
 390 77 408 12 475 11 c 256
 542 9 607 71 628 132 c 256
 645 184 627 244 565 247 c 256
 498 250 430 192 409 132 c 256
648 416 m 257
 673 415 l 257
 471 223 l 257
 468 224 l 257
 499 244 533 265 572 263 c 256
 643 261 665 190 646 131 c 256
 624 60 551 -8 473 -7 c 256
 395 -6 369 65 391 132 c 256
 402 167 428 198 453 224 c 257
 648 416 l 257
EndSplineSet
EndChar

StartChar: uni215A
Encoding: 8538 8538 163
Width: 805
VWidth: 0
Flags: HMW
LayerCount: 2
Fore
SplineSet
868 698 m 257
 896 698 l 257
 133 0 l 257
 104 0 l 257
 868 698 l 257
375 415 m 256
 351 341 278 272 196 273 c 256
 138 273 113 310 100 361 c 257
 118 371 l 257
 129 326 147 292 198 291 c 256
 269 290 334 352 355 416 c 256
 372 467 358 527 296 531 c 256
 246 534 202 502 163 476 c 257
 184 500 l 257
 214 528 262 550 304 548 c 256
 377 545 394 474 375 415 c 256
301 680 m 257
 196 503 l 257
 158 473 l 257
 291 697 l 257
 478 698 l 257
 472 681 l 257
 301 680 l 257
524 132 m 256
 505 77 522 12 589 11 c 256
 656 9 722 71 743 132 c 256
 760 184 742 244 680 247 c 256
 613 250 545 192 524 132 c 256
762 416 m 257
 788 415 l 257
 585 223 l 257
 583 224 l 257
 614 244 648 265 687 263 c 256
 758 261 780 190 761 131 c 256
 739 60 666 -8 588 -7 c 256
 510 -6 484 65 506 132 c 256
 517 167 542 198 567 224 c 257
 762 416 l 257
EndSplineSet
EndChar

StartChar: oneeighth
Encoding: 8539 8539 164
Width: 715
VWidth: 0
Flags: HMW
LayerCount: 2
Fore
SplineSet
753 698 m 257
 781 698 l 257
 18 0 l 257
 -10 0 l 257
 753 698 l 257
190 651 m 257
 196 671 l 257
 320 698 l 257
 172 275 l 257
 153 275 l 257
 290 673 l 257
 190 651 l 257
511 324 m 256
 528 377 590 426 646 425 c 256
 701 424 732 372 716 322 c 256
 699 269 636 218 579 220 c 256
 523 221 495 274 511 324 c 256
528 322 m 256
 514 283 534 234 579 232 c 256
 625 230 682 278 697 321 c 256
 711 362 691 406 645 408 c 256
 598 410 543 366 528 322 c 256
427 113 m 256
 447 173 514 226 578 225 c 256
 641 224 672 168 655 111 c 256
 636 49 568 -7 502 -5 c 256
 437 -3 407 54 427 113 c 256
445 114 m 256
 427 66 448 14 504 12 c 256
 561 10 621 61 638 114 c 256
 653 160 631 211 578 213 c 256
 523 215 463 164 445 114 c 256
EndSplineSet
EndChar

StartChar: threeeighths
Encoding: 8540 8540 165
Width: 796
VWidth: 0
Flags: HMW
LayerCount: 2
Fore
SplineSet
835 698 m 257
 863 698 l 257
 100 0 l 257
 71 0 l 257
 835 698 l 257
250 495 m 257
 255 508 l 257
 310 518 373 540 394 598 c 256
 410 641 387 685 339 687 c 256
 281 690 241 642 214 598 c 257
 196 598 l 257
 227 653 273 707 342 705 c 256
 401 703 431 651 412 597 c 256
 388 529 315 504 250 495 c 257
195 275 m 256
 122 276 101 327 110 391 c 257
 129 391 l 257
 123 338 133 294 196 293 c 256
 252 292 316 335 333 389 c 256
 354 453 303 479 249 489 c 257
 254 502 l 257
 318 492 375 461 352 386 c 256
 332 322 261 274 195 275 c 256
593 324 m 256
 610 377 672 426 728 425 c 256
 783 424 814 372 798 322 c 256
 781 269 718 218 661 220 c 256
 605 221 577 274 593 324 c 256
610 322 m 256
 596 283 616 234 661 232 c 256
 707 230 764 278 779 321 c 256
 793 362 772 406 726 408 c 256
 679 410 625 366 610 322 c 256
509 113 m 256
 529 173 596 226 660 225 c 256
 723 224 754 168 737 111 c 256
 718 49 650 -7 584 -5 c 256
 519 -3 489 54 509 113 c 256
527 114 m 256
 509 66 530 13 586 12 c 256
 643 10 703 61 720 114 c 256
 735 160 713 211 660 213 c 256
 605 215 545 164 527 114 c 256
EndSplineSet
EndChar

StartChar: fiveeighths
Encoding: 8541 8541 166
Width: 829
VWidth: 0
Flags: HMW
LayerCount: 2
Fore
SplineSet
868 698 m 257
 896 698 l 257
 133 0 l 257
 104 0 l 257
 868 698 l 257
375 415 m 256
 351 341 278 272 196 273 c 256
 138 273 113 310 100 361 c 257
 118 371 l 257
 129 326 147 292 198 291 c 256
 269 290 334 352 355 416 c 256
 372 467 358 527 296 531 c 256
 246 534 202 502 163 476 c 257
 184 500 l 257
 214 528 262 550 304 548 c 256
 377 545 394 474 375 415 c 256
301 680 m 257
 196 503 l 257
 158 473 l 257
 291 697 l 257
 478 698 l 257
 472 681 l 257
 301 680 l 257
626 324 m 256
 643 377 705 426 761 425 c 256
 816 424 847 372 831 322 c 256
 814 269 750 218 693 220 c 256
 637 221 610 274 626 324 c 256
643 322 m 256
 629 283 649 234 694 232 c 256
 740 230 797 278 812 321 c 256
 826 362 805 406 759 408 c 256
 712 410 658 366 643 322 c 256
542 113 m 256
 562 173 629 226 693 225 c 256
 756 224 787 168 770 111 c 256
 751 49 683 -7 617 -5 c 256
 552 -3 522 54 542 113 c 256
560 114 m 256
 542 66 563 13 619 12 c 256
 676 10 736 61 753 114 c 256
 768 160 746 211 693 213 c 256
 638 215 578 164 560 114 c 256
EndSplineSet
EndChar

StartChar: seveneighths
Encoding: 8542 8542 167
Width: 726
VWidth: 0
Flags: HMW
LayerCount: 2
Fore
SplineSet
764 698 m 257
 793 698 l 257
 29 0 l 257
 1 0 l 257
 764 698 l 257
210 682 m 257
 215 700 l 257
 487 699 l 257
 139 282 l 257
 118 282 l 257
 450 681 l 257
 210 682 l 257
522 324 m 256
 539 377 602 426 658 425 c 256
 713 424 743 372 727 322 c 256
 710 269 647 218 590 220 c 256
 534 221 506 274 522 324 c 256
539 322 m 256
 525 283 546 234 591 232 c 256
 637 230 693 278 708 321 c 256
 722 362 702 406 656 408 c 256
 609 410 554 366 539 322 c 256
438 113 m 256
 458 173 526 226 590 225 c 256
 653 224 683 168 666 111 c 256
 647 49 580 -7 514 -5 c 256
 449 -3 418 54 438 113 c 256
456 114 m 256
 438 66 460 14 516 12 c 256
 573 10 632 61 649 114 c 256
 664 160 643 211 590 213 c 256
 535 215 474 164 456 114 c 256
EndSplineSet
EndChar

StartChar: uni2074
Encoding: 8308 8308 168
Width: 353
VWidth: 0
Flags: HMW
LayerCount: 2
Fore
SplineSet
102 365 m 257
 121 381 l 257
 318 381 l 257
 322 381 l 257
 393 381 l 257
 388 364 l 257
 102 365 l 257
122 366 m 257
 100 366 l 257
 433 699 l 257
 441 699 l 257
 296 281 l 257
 276 281 l 257
 309 371 l 257
 309 375 l 257
 405 648 l 257
 122 366 l 257
EndSplineSet
EndChar

StartChar: uni2075
Encoding: 8309 8309 169
Width: 324
VWidth: 0
Flags: HMW
LayerCount: 2
Fore
SplineSet
375 415 m 256
 351 341 278 272 196 273 c 256
 138 273 113 310 100 361 c 257
 118 371 l 257
 129 326 147 292 198 291 c 256
 269 290 334 352 355 416 c 256
 372 467 358 527 296 531 c 256
 246 534 202 502 163 476 c 257
 184 500 l 257
 214 528 262 550 304 548 c 256
 377 545 394 474 375 415 c 256
301 680 m 257
 196 503 l 257
 158 473 l 257
 291 697 l 257
 478 698 l 257
 472 681 l 257
 301 680 l 257
EndSplineSet
EndChar

StartChar: uni2076
Encoding: 8310 8310 170
Width: 315
VWidth: 0
Flags: HMW
LayerCount: 2
Fore
SplineSet
140 412 m 256
 121 357 138 292 205 291 c 256
 272 289 338 351 359 412 c 256
 376 464 358 524 296 527 c 256
 229 530 161 472 140 412 c 256
378 696 m 257
 403 695 l 257
 201 503 l 257
 198 504 l 257
 229 524 263 545 302 543 c 256
 373 541 395 470 376 411 c 256
 354 340 281 272 203 273 c 256
 125 274 100 345 122 412 c 256
 133 447 158 478 183 504 c 257
 378 696 l 257
EndSplineSet
EndChar

StartChar: uni2077
Encoding: 8311 8311 171
Width: 331
VWidth: 0
Flags: HMW
LayerCount: 2
Fore
SplineSet
210 682 m 257
 215 700 l 257
 487 699 l 257
 139 282 l 257
 118 282 l 257
 450 681 l 257
 210 682 l 257
EndSplineSet
EndChar

StartChar: uni2078
Encoding: 8312 8312 172
Width: 289
VWidth: 0
Flags: HMW
LayerCount: 2
Fore
SplineSet
195 604 m 256
 212 657 274 706 330 705 c 256
 385 704 415 652 399 602 c 256
 382 549 319 498 262 500 c 256
 206 501 179 554 195 604 c 256
211 602 m 256
 197 563 218 514 263 512 c 256
 309 510 365 558 380 601 c 256
 394 642 374 686 328 688 c 256
 281 690 226 646 211 602 c 256
110 393 m 256
 130 453 198 506 262 505 c 256
 325 504 356 448 339 391 c 256
 320 329 252 273 186 275 c 256
 121 277 90 334 110 393 c 256
129 394 m 256
 111 346 132 293 188 292 c 256
 245 290 304 341 321 394 c 256
 336 440 315 491 262 493 c 256
 207 495 147 444 129 394 c 256
EndSplineSet
EndChar

StartChar: uni2079
Encoding: 8313 8313 173
Width: 315
VWidth: 0
Flags: HMW
LayerCount: 2
Fore
SplineSet
407 568 m 256
 426 623 409 688 342 689 c 256
 275 691 209 629 188 568 c 256
 171 516 189 456 251 453 c 256
 318 450 386 508 407 568 c 256
169 284 m 257
 144 285 l 257
 346 477 l 257
 348 476 l 257
 317 456 284 435 246 437 c 256
 175 439 152 510 171 569 c 256
 193 640 266 708 343 707 c 256
 421 706 448 635 426 568 c 256
 415 533 389 502 364 476 c 257
 169 284 l 257
EndSplineSet
EndChar

StartChar: uni2070
Encoding: 8304 8304 174
Width: 317
VWidth: 0
Flags: HMW
LayerCount: 2
Fore
SplineSet
163 490 m 256
 144 435 110 295 205 293 c 256
 299 291 361 416 387 490 c 256
 406 545 440 685 345 687 c 256
 251 689 189 564 163 490 c 256
143 490 m 256
 171 575 242 706 347 705 c 256
 455 703 429 556 407 490 c 256
 379 405 309 274 204 275 c 256
 96 277 121 424 143 490 c 256
EndSplineSet
EndChar

StartChar: uni2080
Encoding: 8320 8320 175
Width: 324
VWidth: 0
Flags: HMW
LayerCount: 2
Fore
SplineSet
68 210 m 256
 49 155 14 15 109 13 c 256
 203 11 265 136 291 210 c 256
 310 265 345 405 250 407 c 256
 156 409 94 284 68 210 c 256
48 210 m 256
 76 295 146 426 251 425 c 256
 359 423 333 276 311 210 c 256
 283 125 213 -6 108 -5 c 256
 0 -3 26 144 48 210 c 256
EndSplineSet
EndChar

StartChar: uni2084
Encoding: 8324 8324 176
Width: 353
VWidth: 0
Flags: HMW
LayerCount: 2
Fore
SplineSet
6 85 m 257
 25 101 l 257
 222 101 l 257
 226 101 l 257
 297 101 l 257
 292 84 l 257
 6 85 l 257
26 86 m 257
 5 86 l 257
 338 419 l 257
 346 419 l 257
 201 0 l 257
 181 0 l 257
 213 91 l 257
 214 95 l 257
 310 368 l 257
 26 86 l 257
EndSplineSet
EndChar

StartChar: uni2085
Encoding: 8325 8325 177
Width: 324
VWidth: 0
Flags: HMW
LayerCount: 2
Fore
SplineSet
280 135 m 256
 256 61 183 -8 101 -7 c 256
 43 -7 17 30 4 81 c 257
 22 91 l 257
 33 46 51 12 102 11 c 256
 173 10 239 72 260 136 c 256
 277 187 262 247 200 251 c 256
 150 254 106 222 67 196 c 257
 89 220 l 257
 119 248 166 270 208 268 c 256
 281 265 299 194 280 135 c 256
205 400 m 257
 100 223 l 257
 63 193 l 257
 195 417 l 257
 382 418 l 257
 376 401 l 257
 205 400 l 257
EndSplineSet
EndChar

StartChar: uni2086
Encoding: 8326 8326 178
Width: 315
VWidth: 0
Flags: HMW
LayerCount: 2
Fore
SplineSet
44 132 m 256
 25 77 42 12 109 11 c 256
 176 9 242 71 263 132 c 256
 280 184 262 244 200 247 c 256
 133 250 65 192 44 132 c 256
282 416 m 257
 308 415 l 257
 105 223 l 257
 102 224 l 257
 133 244 168 265 207 263 c 256
 278 261 300 190 281 131 c 256
 259 60 185 -8 107 -7 c 256
 29 -6 4 65 26 132 c 256
 37 167 63 198 88 224 c 257
 282 416 l 257
EndSplineSet
EndChar

StartChar: uni2087
Encoding: 8327 8327 179
Width: 331
VWidth: 0
Flags: HMW
LayerCount: 2
Fore
SplineSet
114 402 m 257
 120 420 l 257
 392 419 l 257
 43 0 l 257
 22 0 l 257
 354 401 l 257
 114 402 l 257
EndSplineSet
EndChar

StartChar: uni2088
Encoding: 8328 8328 180
Width: 289
VWidth: 0
Flags: HMW
LayerCount: 2
Fore
SplineSet
99 324 m 256
 116 377 178 426 234 425 c 256
 289 424 320 372 304 322 c 256
 287 269 224 218 167 220 c 256
 111 221 83 274 99 324 c 256
116 322 m 256
 102 283 122 234 167 232 c 256
 213 230 270 278 285 321 c 256
 299 362 278 406 232 408 c 256
 185 410 131 366 116 322 c 256
15 113 m 256
 35 173 102 226 166 225 c 256
 229 224 260 168 243 111 c 256
 224 49 156 -7 90 -5 c 256
 25 -3 -5 54 15 113 c 256
33 114 m 256
 15 66 36 13 92 12 c 256
 149 10 209 61 226 114 c 256
 241 160 219 211 166 213 c 256
 111 215 51 164 33 114 c 256
EndSplineSet
EndChar

StartChar: uni2089
Encoding: 8329 8329 181
Width: 315
VWidth: 0
Flags: HMW
LayerCount: 2
Fore
SplineSet
307 288 m 256
 326 343 309 408 242 409 c 256
 175 411 109 349 88 288 c 256
 71 236 89 176 151 173 c 256
 218 170 286 228 307 288 c 256
69 4 m 257
 44 5 l 257
 246 197 l 257
 249 196 l 257
 218 176 183 155 145 157 c 256
 74 159 51 230 70 289 c 256
 92 360 167 428 244 427 c 256
 322 426 347 355 325 288 c 256
 314 253 289 222 264 196 c 257
 69 4 l 257
EndSplineSet
EndChar

StartChar: uni2081
Encoding: 8321 8321 182
Width: 277
VWidth: 0
Flags: HMW
LayerCount: 2
Fore
SplineSet
163 378 m 257
 169 398 l 257
 293 425 l 257
 145 2 l 257
 127 2 l 257
 263 400 l 257
 163 378 l 257
EndSplineSet
EndChar

StartChar: uni2082
Encoding: 8322 8322 183
Width: 315
VWidth: 0
Flags: HMW
LayerCount: 2
Fore
SplineSet
-27 3 m 257
 223 206 l 258
 257 234 297 268 312 312 c 256
 328 358 309 407 255 410 c 256
 180 414 132 337 103 280 c 257
 84 280 l 257
 117 348 171 431 257 428 c 256
 322 426 349 368 330 310 c 256
 315 263 275 226 238 195 c 258
 21 21 l 257
 242 20 l 257
 237 2 l 257
 -27 3 l 257
EndSplineSet
EndChar

StartChar: uni2083
Encoding: 8323 8323 184
Width: 297
VWidth: 0
Flags: HMW
LayerCount: 2
Fore
SplineSet
150 215 m 257
 154 228 l 257
 209 238 273 260 294 318 c 256
 310 361 287 405 239 407 c 256
 181 410 141 362 114 318 c 257
 96 318 l 257
 127 373 172 427 241 425 c 256
 300 423 331 371 312 317 c 256
 288 249 215 224 150 215 c 257
94 -5 m 256
 21 -4 1 47 10 111 c 257
 28 111 l 257
 22 58 33 14 96 13 c 256
 152 12 216 55 233 109 c 256
 254 173 203 199 149 209 c 257
 153 222 l 257
 217 212 275 181 252 106 c 256
 232 42 160 -6 94 -5 c 256
EndSplineSet
EndChar

StartChar: Agrave
Encoding: 192 192 185
Width: 580
VWidth: 0
Flags: HMW
LayerCount: 2
Fore
SplineSet
157 255 m 257
 175 284 l 257
 491 284 l 257
 490 254 l 257
 157 255 l 257
459 646 m 257
 189 273 l 257
 184 265 l 257
 -9 0 l 257
 -46 0 l 257
 483 722 l 257
 515 0 l 257
 481 0 l 257
 472 263 l 257
 472 271 l 257
 459 646 l 257
428 936 m 257
 459 952 l 257
 562 792 l 257
 544 782 l 257
 428 936 l 257
EndSplineSet
EndChar

StartChar: Aacute
Encoding: 193 193 186
Width: 580
VWidth: 0
Flags: HMW
LayerCount: 2
Fore
SplineSet
157 255 m 257
 175 284 l 257
 491 284 l 257
 490 254 l 257
 157 255 l 257
459 646 m 257
 189 273 l 257
 184 265 l 257
 -9 0 l 257
 -46 0 l 257
 483 722 l 257
 515 0 l 257
 481 0 l 257
 472 263 l 257
 472 271 l 257
 459 646 l 257
683 933 m 257
 464 783 l 257
 452 795 l 257
 661 951 l 257
 683 933 l 257
EndSplineSet
EndChar

StartChar: Acircumflex
Encoding: 194 194 187
Width: 580
VWidth: 0
Flags: HMW
LayerCount: 2
Fore
SplineSet
157 255 m 257
 175 284 l 257
 491 284 l 257
 490 254 l 257
 157 255 l 257
459 646 m 257
 189 273 l 257
 184 265 l 257
 -9 0 l 257
 -46 0 l 257
 483 722 l 257
 515 0 l 257
 481 0 l 257
 472 263 l 257
 472 271 l 257
 459 646 l 257
543 892 m 257
 367 771 l 257
 352 788 l 257
 551 925 l 257
 656 785 l 257
 633 769 l 257
 543 892 l 257
EndSplineSet
EndChar

StartChar: Atilde
Encoding: 195 195 188
Width: 580
VWidth: 0
Flags: HMW
LayerCount: 2
Fore
SplineSet
157 255 m 257
 175 284 l 257
 491 284 l 257
 490 254 l 257
 157 255 l 257
459 646 m 257
 189 273 l 257
 184 265 l 257
 -9 0 l 257
 -46 0 l 257
 483 722 l 257
 515 0 l 257
 481 0 l 257
 472 263 l 257
 472 271 l 257
 459 646 l 257
379 802 m 257
 401 832 429 866 470 865 c 256
 517 864 531 818 571 820 c 256
 600 821 622 848 641 866 c 257
 658 850 l 257
 634 825 602 793 565 794 c 256
 519 795 506 840 467 839 c 256
 436 838 416 812 398 790 c 257
 379 802 l 257
EndSplineSet
EndChar

StartChar: Adieresis
Encoding: 196 196 189
Width: 580
VWidth: 0
Flags: HMW
LayerCount: 2
Fore
SplineSet
157 255 m 257
 175 284 l 257
 491 284 l 257
 490 254 l 257
 157 255 l 257
459 646 m 257
 189 273 l 257
 184 265 l 257
 -9 0 l 257
 -46 0 l 257
 483 722 l 257
 515 0 l 257
 481 0 l 257
 472 263 l 257
 472 271 l 257
 459 646 l 257
587 819 m 256
 589 829 606 843 617 842 c 256
 628 841 635 829 633 818 c 256
 631 808 614 794 603 795 c 256
 592 796 585 808 587 819 c 256
398 819 m 256
 400 829 418 843 429 842 c 256
 440 841 447 829 445 818 c 256
 443 808 426 794 415 795 c 256
 404 796 396 808 398 819 c 256
EndSplineSet
EndChar

StartChar: Aring
Encoding: 197 197 190
Width: 580
VWidth: 0
Flags: HMW
LayerCount: 2
Fore
SplineSet
157 255 m 257
 175 284 l 257
 491 284 l 257
 490 254 l 257
 157 255 l 257
459 646 m 257
 189 273 l 257
 184 265 l 257
 -9 0 l 257
 -46 0 l 257
 483 722 l 257
 515 0 l 257
 481 0 l 257
 472 263 l 257
 472 271 l 257
 459 646 l 257
414 806 m 256
 430 857 489 905 544 904 c 256
 598 903 624 852 608 804 c 256
 592 753 533 705 478 706 c 256
 424 707 398 758 414 806 c 256
435 805 m 256
 423 769 441 729 482 727 c 256
 524 724 575 767 587 805 c 256
 599 841 581 881 540 883 c 256
 498 886 447 843 435 805 c 256
EndSplineSet
EndChar

StartChar: AE
Encoding: 198 198 191
Width: 860
VWidth: 0
Flags: HMW
LayerCount: 2
Fore
SplineSet
232 260 m 257
 242 290 l 257
 519 290 l 257
 508 260 l 257
 232 260 l 257
629 700 m 257
 653 686 l 257
 -15 0 l 257
 -51 0 l 257
 629 700 l 257
424 0 m 257
 435 30 l 257
 745 30 l 257
 735 0 l 257
 424 0 l 257
660 670 m 257
 629 700 l 257
 974 700 l 257
 963 670 l 257
 660 670 l 257
551 372 m 257
 561 402 l 257
 853 402 l 257
 843 371 l 257
 551 372 l 257
646 699 m 257
 679 699 l 257
 437 0 l 257
 406 0 l 257
 646 699 l 257
EndSplineSet
EndChar

StartChar: Ccedilla
Encoding: 199 199 192
Width: 644
VWidth: 0
Flags: HMW
LayerCount: 2
Fore
SplineSet
143 350 m 256
 94 206 133 29 312 26 c 256
 402 25 484 63 557 112 c 257
 543 70 l 257
 471 25 393 -9 306 -8 c 256
 108 -6 55 188 109 350 c 256
 170 533 342 707 545 709 c 256
 620 710 681 684 733 630 c 257
 719 587 l 257
 675 648 614 676 539 675 c 256
 355 673 200 515 143 350 c 256
304 15 m 257
 331 15 l 257
 244 -69 l 257
 260 -62 280 -52 298 -54 c 256
 337 -59 354 -91 344 -128 c 256
 330 -181 265 -221 212 -220 c 256
 179 -220 161 -203 139 -182 c 257
 157 -167 l 257
 174 -183 192 -198 217 -198 c 256
 257 -198 309 -167 321 -127 c 256
 329 -100 315 -75 286 -72 c 256
 259 -69 230 -84 206 -94 c 257
 304 15 l 257
EndSplineSet
EndChar

StartChar: Egrave
Encoding: 200 200 193
Width: 490
VWidth: 0
Flags: HMW
LayerCount: 2
Fore
SplineSet
42 0 m 257
 52 30 l 257
 375 30 l 257
 366 0 l 257
 42 0 l 257
271 670 m 257
 281 700 l 257
 604 700 l 257
 594 670 l 257
 271 670 l 257
169 372 m 257
 179 402 l 257
 483 402 l 257
 473 371 l 257
 169 372 l 257
266 699 m 257
 299 699 l 257
 58 0 l 257
 27 0 l 257
 266 699 l 257
371 924 m 257
 401 940 l 257
 504 780 l 257
 486 769 l 257
 371 924 l 257
EndSplineSet
EndChar

StartChar: Eacute
Encoding: 201 201 194
Width: 490
VWidth: 0
Flags: HMW
LayerCount: 2
Fore
SplineSet
42 0 m 257
 52 30 l 257
 375 30 l 257
 366 0 l 257
 42 0 l 257
271 670 m 257
 281 700 l 257
 604 700 l 257
 594 670 l 257
 271 670 l 257
169 372 m 257
 179 402 l 257
 483 402 l 257
 473 371 l 257
 169 372 l 257
266 699 m 257
 299 699 l 257
 58 0 l 257
 27 0 l 257
 266 699 l 257
652 921 m 257
 433 771 l 257
 420 783 l 257
 630 939 l 257
 652 921 l 257
EndSplineSet
EndChar

StartChar: Ecircumflex
Encoding: 202 202 195
Width: 490
VWidth: 0
Flags: HMW
LayerCount: 2
Fore
SplineSet
42 0 m 257
 52 30 l 257
 375 30 l 257
 366 0 l 257
 42 0 l 257
271 670 m 257
 281 700 l 257
 604 700 l 257
 594 670 l 257
 271 670 l 257
169 372 m 257
 179 402 l 257
 483 402 l 257
 473 371 l 257
 169 372 l 257
266 699 m 257
 299 699 l 257
 58 0 l 257
 27 0 l 257
 266 699 l 257
506 891 m 257
 329 770 l 257
 315 787 l 257
 513 924 l 257
 618 785 l 257
 596 769 l 257
 506 891 l 257
EndSplineSet
EndChar

StartChar: Edieresis
Encoding: 203 203 196
Width: 490
VWidth: 0
Flags: HMW
LayerCount: 2
Fore
SplineSet
42 0 m 257
 52 30 l 257
 375 30 l 257
 366 0 l 257
 42 0 l 257
271 670 m 257
 281 700 l 257
 604 700 l 257
 594 670 l 257
 271 670 l 257
169 372 m 257
 179 402 l 257
 483 402 l 257
 473 371 l 257
 169 372 l 257
266 699 m 257
 299 699 l 257
 58 0 l 257
 27 0 l 257
 266 699 l 257
547 813 m 256
 549 823 567 837 578 836 c 256
 589 835 595 823 593 812 c 256
 591 802 574 788 563 789 c 256
 552 790 545 802 547 813 c 256
359 813 m 256
 361 823 378 837 389 836 c 256
 400 835 407 823 405 812 c 256
 403 802 386 788 375 789 c 256
 364 790 357 802 359 813 c 256
EndSplineSet
EndChar

StartChar: Igrave
Encoding: 204 204 197
Width: 186
VWidth: 0
Flags: HMW
LayerCount: 2
Fore
SplineSet
263 699 m 257
 295 699 l 257
 53 0 l 257
 23 0 l 257
 263 699 l 257
214 924 m 257
 245 940 l 257
 348 780 l 257
 330 769 l 257
 214 924 l 257
EndSplineSet
EndChar

StartChar: Iacute
Encoding: 205 205 198
Width: 186
VWidth: 0
Flags: HMW
LayerCount: 2
Fore
SplineSet
263 699 m 257
 295 699 l 257
 53 0 l 257
 23 0 l 257
 263 699 l 257
495 921 m 257
 276 770 l 257
 264 783 l 257
 474 939 l 257
 495 921 l 257
EndSplineSet
EndChar

StartChar: Icircumflex
Encoding: 206 206 199
Width: 186
VWidth: 0
Flags: HMW
LayerCount: 2
Fore
SplineSet
263 699 m 257
 295 699 l 257
 53 0 l 257
 23 0 l 257
 263 699 l 257
346 891 m 257
 170 770 l 257
 155 787 l 257
 353 924 l 257
 458 785 l 257
 436 769 l 257
 346 891 l 257
EndSplineSet
EndChar

StartChar: Idieresis
Encoding: 207 207 200
Width: 186
VWidth: 0
Flags: HMW
LayerCount: 2
Fore
SplineSet
263 699 m 257
 295 699 l 257
 53 0 l 257
 23 0 l 257
 263 699 l 257
366 807 m 256
 368 817 384 831 395 830 c 256
 406 829 414 817 412 806 c 256
 410 796 393 782 382 783 c 256
 370 784 364 796 366 807 c 256
218 807 m 256
 220 817 237 831 248 830 c 256
 259 829 266 817 264 806 c 256
 262 796 244 782 233 783 c 256
 221 784 216 796 218 807 c 256
EndSplineSet
EndChar

StartChar: Ntilde
Encoding: 209 209 201
Width: 655
VWidth: 0
Flags: HMW
LayerCount: 2
Fore
SplineSet
742 699 m 257
 774 699 l 257
 526 -20 l 257
 249 633 l 257
 31 0 l 257
 -1 0 l 257
 247 720 l 257
 523 64 l 257
 742 699 l 257
401 768 m 257
 423 798 451 831 492 830 c 256
 532 829 553 783 593 785 c 256
 622 786 644 813 663 831 c 257
 679 816 l 257
 655 791 625 759 587 760 c 256
 548 761 528 805 489 805 c 256
 457 805 437 779 420 756 c 257
 401 768 l 257
EndSplineSet
EndChar

StartChar: Eth
Encoding: 208 208 202
Width: 639
VWidth: 0
Flags: HMW
LayerCount: 2
Fore
SplineSet
65 335 m 257
 74 364 l 257
 358 364 l 257
 348 335 l 257
 65 335 l 257
266 699 m 257
 299 699 l 257
 58 0 l 257
 27 0 l 257
 266 699 l 257
194 0 m 256
 43 0 l 257
 55 32 l 257
 201 32 l 256
 386 39 540 179 599 350 c 256
 652 503 602 660 422 668 c 256
 271 668 l 257
 282 700 l 257
 428 700 l 256
 625 693 688 520 631 350 c 256
 568 162 398 6 194 0 c 256
EndSplineSet
EndChar

StartChar: Ograve
Encoding: 210 210 203
Width: 732
VWidth: 0
Flags: HMW
LayerCount: 2
Fore
SplineSet
142 350 m 256
 92 203 137 25 318 24 c 256
 503 23 664 184 721 350 c 256
 771 497 727 675 546 676 c 256
 361 677 199 516 142 350 c 256
109 350 m 256
 170 534 348 710 551 709 c 256
 749 708 809 515 755 350 c 256
 694 166 515 -10 312 -9 c 256
 114 -8 55 185 109 350 c 256
504 924 m 257
 535 940 l 257
 637 780 l 257
 618 769 l 257
 504 924 l 257
EndSplineSet
EndChar

StartChar: Oacute
Encoding: 211 211 204
Width: 732
VWidth: 0
Flags: HMW
LayerCount: 2
Fore
SplineSet
142 350 m 256
 92 203 137 25 318 24 c 256
 503 23 664 184 721 350 c 256
 771 497 727 675 546 676 c 256
 361 677 199 516 142 350 c 256
109 350 m 256
 170 534 348 710 551 709 c 256
 749 708 809 515 755 350 c 256
 694 166 515 -10 312 -9 c 256
 114 -8 55 185 109 350 c 256
752 921 m 257
 534 771 l 257
 520 783 l 257
 729 939 l 257
 752 921 l 257
EndSplineSet
EndChar

StartChar: Ocircumflex
Encoding: 212 212 205
Width: 732
VWidth: 0
Flags: HMW
LayerCount: 2
Fore
SplineSet
142 350 m 256
 92 203 137 25 318 24 c 256
 503 23 664 184 721 350 c 256
 771 497 727 675 546 676 c 256
 361 677 199 516 142 350 c 256
109 350 m 256
 170 534 348 710 551 709 c 256
 749 708 809 515 755 350 c 256
 694 166 515 -10 312 -9 c 256
 114 -8 55 185 109 350 c 256
619 891 m 257
 443 770 l 257
 429 787 l 257
 627 924 l 257
 732 785 l 257
 709 769 l 257
 619 891 l 257
EndSplineSet
EndChar

StartChar: Otilde
Encoding: 213 213 206
Width: 732
VWidth: 0
Flags: HMW
LayerCount: 2
Fore
SplineSet
142 350 m 256
 92 203 137 25 318 24 c 256
 503 23 664 184 721 350 c 256
 771 497 727 675 546 676 c 256
 361 677 199 516 142 350 c 256
109 350 m 256
 170 534 348 710 551 709 c 256
 749 708 809 515 755 350 c 256
 694 166 515 -10 312 -9 c 256
 114 -8 55 185 109 350 c 256
453 796 m 257
 463 826 510 858 545 858 c 256
 585 857 605 811 645 813 c 256
 674 814 697 841 716 859 c 257
 730 844 l 257
 706 819 677 787 639 788 c 256
 600 789 579 833 541 833 c 256
 508 833 489 807 471 784 c 257
 453 796 l 257
EndSplineSet
EndChar

StartChar: Odieresis
Encoding: 214 214 207
Width: 732
VWidth: 0
Flags: HMW
LayerCount: 2
Fore
SplineSet
142 350 m 256
 92 203 137 25 318 24 c 256
 503 23 664 184 721 350 c 256
 771 497 727 675 546 676 c 256
 361 677 199 516 142 350 c 256
109 350 m 256
 170 534 348 710 551 709 c 256
 749 708 809 515 755 350 c 256
 694 166 515 -10 312 -9 c 256
 114 -8 55 185 109 350 c 256
668 814 m 256
 670 824 687 838 698 837 c 256
 709 836 715 824 713 813 c 256
 711 803 694 789 683 790 c 256
 672 791 666 803 668 814 c 256
466 814 m 256
 468 824 485 838 496 837 c 256
 507 836 514 824 512 813 c 256
 510 803 493 789 482 790 c 256
 471 791 464 803 466 814 c 256
EndSplineSet
EndChar

StartChar: Ugrave
Encoding: 217 217 208
Width: 554
VWidth: 0
Flags: HMW
LayerCount: 2
Fore
SplineSet
263 699 m 257
 294 699 l 257
 130 223 l 258
 102 133 111 23 228 22 c 256
 345 21 431 122 469 223 c 258
 633 699 l 257
 665 699 l 257
 502 223 l 258
 459 104 359 -10 223 -9 c 256
 88 -8 66 115 99 223 c 257
 263 699 l 257
412 924 m 257
 442 940 l 257
 545 780 l 257
 527 769 l 257
 412 924 l 257
EndSplineSet
EndChar

StartChar: Uacute
Encoding: 218 218 209
Width: 554
VWidth: 0
Flags: HMW
LayerCount: 2
Fore
SplineSet
263 699 m 257
 294 699 l 257
 130 223 l 258
 102 133 111 23 228 22 c 256
 345 21 431 122 469 223 c 258
 633 699 l 257
 665 699 l 257
 502 223 l 258
 459 104 359 -10 223 -9 c 256
 88 -8 66 115 99 223 c 257
 263 699 l 257
667 921 m 257
 448 771 l 257
 435 783 l 257
 644 939 l 257
 667 921 l 257
EndSplineSet
EndChar

StartChar: Ucircumflex
Encoding: 219 219 210
Width: 554
VWidth: 0
Flags: HMW
LayerCount: 2
Fore
SplineSet
263 699 m 257
 294 699 l 257
 130 223 l 258
 102 133 111 23 228 22 c 256
 345 21 431 122 469 223 c 258
 633 699 l 257
 665 699 l 257
 502 223 l 258
 459 104 359 -10 223 -9 c 256
 88 -8 66 115 99 223 c 257
 263 699 l 257
530 891 m 257
 354 770 l 257
 340 787 l 257
 538 924 l 257
 643 785 l 257
 620 769 l 257
 530 891 l 257
EndSplineSet
EndChar

StartChar: Udieresis
Encoding: 220 220 211
Width: 554
VWidth: 0
Flags: HMW
LayerCount: 2
Fore
SplineSet
263 699 m 257
 294 699 l 257
 130 223 l 258
 102 133 111 23 228 22 c 256
 345 21 431 122 469 223 c 258
 633 699 l 257
 665 699 l 257
 502 223 l 258
 459 104 359 -10 223 -9 c 256
 88 -8 66 115 99 223 c 257
 263 699 l 257
559 793 m 256
 561 803 578 817 589 816 c 256
 600 815 606 803 604 792 c 256
 602 782 585 768 574 769 c 256
 563 770 557 782 559 793 c 256
384 793 m 256
 386 803 402 817 413 816 c 256
 424 815 432 803 430 792 c 256
 428 782 411 768 400 769 c 256
 389 770 382 782 384 793 c 256
EndSplineSet
EndChar

StartChar: Yacute
Encoding: 221 221 212
Width: 491
VWidth: 0
Flags: HMW
LayerCount: 2
Fore
SplineSet
648 921 m 257
 429 770 l 257
 416 783 l 257
 625 939 l 257
 648 921 l 257
630 698 m 257
 668 698 l 257
 298 275 l 257
 203 0 l 257
 171 0 l 257
 268 279 l 257
 197 700 l 257
 230 700 l 257
 292 310 l 257
 630 698 l 257
EndSplineSet
EndChar

StartChar: agrave
Encoding: 224 224 213
Width: 422
VWidth: 0
Flags: HMW
LayerCount: 2
Fore
SplineSet
56 135 m 256
 34 71 68 20 135 19 c 256
 228 18 294 89 335 164 c 257
 338 149 l 257
 297 66 225 -9 125 -9 c 256
 43 -9 0 56 25 133 c 256
 55 225 156 281 250 281 c 256
 298 281 336 265 369 232 c 257
 361 212 l 257
 328 242 292 257 246 257 c 256
 169 257 83 211 56 135 c 256
163 383 m 257
 155 408 l 257
 207 439 264 471 327 469 c 256
 413 467 437 398 416 323 c 257
 305 0 l 257
 275 0 l 257
 388 323 l 257
 402 381 393 438 322 441 c 256
 264 444 210 412 163 383 c 257
272 700 m 257
 304 716 l 257
 407 556 l 257
 387 545 l 257
 272 700 l 257
EndSplineSet
Substitution2: "alt a" agrave.alt
EndChar

StartChar: aacute
Encoding: 225 225 214
Width: 422
VWidth: 0
Flags: HMW
LayerCount: 2
Fore
SplineSet
56 135 m 256
 34 71 68 20 135 19 c 256
 228 18 294 89 335 164 c 257
 338 149 l 257
 297 66 225 -9 125 -9 c 256
 43 -9 0 56 25 133 c 256
 55 225 156 281 250 281 c 256
 298 281 336 265 369 232 c 257
 361 212 l 257
 328 242 292 257 246 257 c 256
 169 257 83 211 56 135 c 256
163 383 m 257
 155 408 l 257
 207 439 264 471 327 469 c 256
 413 467 437 398 416 323 c 257
 305 0 l 257
 275 0 l 257
 388 323 l 257
 402 381 393 438 322 441 c 256
 264 444 210 412 163 383 c 257
530 696 m 257
 312 546 l 257
 298 559 l 257
 507 715 l 257
 530 696 l 257
EndSplineSet
Substitution2: "alt a" aacute.alt
EndChar

StartChar: acircumflex
Encoding: 226 226 215
Width: 422
VWidth: 0
Flags: HMW
LayerCount: 2
Fore
SplineSet
56 135 m 256
 34 71 68 20 135 19 c 256
 228 18 294 89 335 164 c 257
 338 149 l 257
 297 66 225 -9 125 -9 c 256
 43 -9 0 56 25 133 c 256
 55 225 156 281 250 281 c 256
 298 281 336 265 369 232 c 257
 361 212 l 257
 328 242 292 257 246 257 c 256
 169 257 83 211 56 135 c 256
163 383 m 257
 155 408 l 257
 207 439 264 471 327 469 c 256
 413 467 437 398 416 323 c 257
 305 0 l 257
 275 0 l 257
 388 323 l 257
 402 381 393 438 322 441 c 256
 264 444 210 412 163 383 c 257
397 660 m 257
 221 539 l 257
 206 556 l 257
 405 693 l 257
 510 553 l 257
 487 537 l 257
 397 660 l 257
EndSplineSet
Substitution2: "alt a" acircumflex.alt
EndChar

StartChar: atilde
Encoding: 227 227 216
Width: 422
VWidth: 0
Flags: HMW
LayerCount: 2
Fore
SplineSet
56 135 m 256
 34 71 68 20 135 19 c 256
 228 18 294 89 335 164 c 257
 338 149 l 257
 297 66 225 -9 125 -9 c 256
 43 -9 0 56 25 133 c 256
 55 225 156 281 250 281 c 256
 298 281 336 265 369 232 c 257
 361 212 l 257
 328 242 292 257 246 257 c 256
 169 257 83 211 56 135 c 256
163 383 m 257
 155 408 l 257
 207 439 264 471 327 469 c 256
 413 467 437 398 416 323 c 257
 305 0 l 257
 275 0 l 257
 388 323 l 257
 402 381 393 438 322 441 c 256
 264 444 210 412 163 383 c 257
229 579 m 257
 251 609 279 642 320 641 c 256
 360 640 381 594 421 596 c 256
 450 597 473 624 492 642 c 257
 507 627 l 257
 483 602 453 569 415 570 c 256
 376 571 356 616 318 616 c 256
 285 616 265 589 247 566 c 257
 229 579 l 257
EndSplineSet
Substitution2: "alt a" atilde.alt
EndChar

StartChar: adieresis
Encoding: 228 228 217
Width: 422
VWidth: 0
Flags: HMW
LayerCount: 2
Fore
SplineSet
56 135 m 256
 34 71 68 20 135 19 c 256
 228 18 294 89 335 164 c 257
 338 149 l 257
 297 66 225 -9 125 -9 c 256
 43 -9 0 56 25 133 c 256
 55 225 156 281 250 281 c 256
 298 281 336 265 369 232 c 257
 361 212 l 257
 328 242 292 257 246 257 c 256
 169 257 83 211 56 135 c 256
163 383 m 257
 155 408 l 257
 207 439 264 471 327 469 c 256
 413 467 437 398 416 323 c 257
 305 0 l 257
 275 0 l 257
 388 323 l 257
 402 381 393 438 322 441 c 256
 264 444 210 412 163 383 c 257
414 569 m 256
 416 579 433 592 444 591 c 256
 455 590 462 578 460 567 c 256
 458 557 441 543 430 544 c 256
 419 545 412 558 414 569 c 256
253 569 m 256
 255 579 272 592 283 591 c 256
 294 590 300 578 298 567 c 256
 296 557 279 543 268 544 c 256
 257 545 251 558 253 569 c 256
EndSplineSet
Substitution2: "alt a" adieresis.alt
EndChar

StartChar: aring
Encoding: 229 229 218
Width: 422
VWidth: 0
Flags: HMW
LayerCount: 2
Fore
SplineSet
56 135 m 256
 34 71 68 20 135 19 c 256
 228 18 294 89 335 164 c 257
 338 149 l 257
 297 66 225 -9 125 -9 c 256
 43 -9 0 56 25 133 c 256
 55 225 156 281 250 281 c 256
 298 281 336 265 369 232 c 257
 361 212 l 257
 328 242 292 257 246 257 c 256
 169 257 83 211 56 135 c 256
163 383 m 257
 155 408 l 257
 207 439 264 471 327 469 c 256
 413 467 437 398 416 323 c 257
 305 0 l 257
 275 0 l 257
 388 323 l 257
 402 381 393 438 322 441 c 256
 264 444 210 412 163 383 c 257
287 631 m 256
 303 682 362 730 417 729 c 256
 471 728 497 677 481 629 c 256
 465 578 406 530 351 531 c 256
 297 532 271 583 287 631 c 256
308 630 m 256
 296 594 314 554 355 552 c 256
 397 549 448 592 460 630 c 256
 472 666 454 706 413 708 c 256
 371 711 320 668 308 630 c 256
EndSplineSet
Substitution2: "alt a" aring.alt
EndChar

StartChar: germandbls
Encoding: 223 223 219
Width: 509
VWidth: 0
Flags: HMW
LayerCount: 2
Fore
SplineSet
194 19 m 257
 314 35 422 110 462 228 c 256
 502 345 429 419 317 432 c 257
 323 452 l 257
 450 440 534 357 491 225 c 256
 447 90 323 5 185 -9 c 257
 194 19 l 257
319 440 m 257
 326 461 l 257
 423 470 516 505 552 603 c 256
 582 685 548 760 455 760 c 256
 364 760 287 686 257 606 c 258
 49 0 l 257
 19 0 l 257
 226 606 l 258
 262 703 349 788 460 789 c 256
 570 790 617 704 583 605 c 256
 543 487 433 448 319 440 c 257
EndSplineSet
EndChar

StartChar: ae
Encoding: 230 230 220
Width: 776
VWidth: 0
Flags: HMW
LayerCount: 2
Fore
SplineSet
54 133 m 256
 32 69 69 20 136 19 c 256
 229 18 306 94 336 169 c 257
 350 153 l 257
 318 69 232 -9 131 -9 c 256
 49 -9 -2 51 24 131 c 256
 54 225 157 282 252 281 c 256
 299 281 336 265 369 232 c 257
 361 212 l 257
 329 242 294 257 249 257 c 256
 170 257 81 211 54 133 c 256
164 383 m 257
 155 408 l 257
 207 440 267 472 330 469 c 256
 411 465 432 400 412 330 c 257
 354 154 l 257
 331 155 l 257
 387 320 l 257
 404 376 395 437 324 441 c 256
 267 444 212 412 164 383 c 257
374 223 m 257
 383 249 l 257
 761 250 l 257
 762 223 l 257
 374 223 l 257
741 250 m 257
 771 334 749 440 643 442 c 256
 524 444 435 341 390 242 c 257
 386 234 l 257
 361 146 363 24 482 20 c 256
 567 17 638 68 698 121 c 257
 718 105 l 257
 651 43 570 -12 474 -9 c 256
 348 -5 319 129 357 230 c 256
 364 247 372 263 381 279 c 256
 436 377 532 472 653 469 c 256
 772 466 803 344 772 247 c 256
 769 239 766 231 762 223 c 257
 734 231 l 257
 741 250 l 257
EndSplineSet
EndChar

StartChar: ccedilla
Encoding: 231 231 221
Width: 456
VWidth: 0
Flags: HMW
LayerCount: 2
Fore
SplineSet
88 230 m 256
 55 134 90 22 206 20 c 256
 270 19 327 50 378 85 c 257
 367 47 l 257
 317 14 261 -9 200 -9 c 256
 67 -9 21 118 58 230 c 256
 99 355 223 469 359 469 c 256
 411 469 455 450 490 411 c 257
 478 374 l 257
 450 418 408 440 355 440 c 256
 236 440 126 338 88 230 c 256
199 14 m 257
 226 14 l 257
 139 -71 l 257
 155 -64 175 -53 193 -55 c 256
 232 -60 249 -93 239 -130 c 256
 225 -183 160 -222 107 -221 c 256
 74 -221 56 -205 34 -184 c 257
 52 -169 l 257
 69 -185 87 -199 112 -199 c 256
 152 -199 204 -168 216 -128 c 256
 224 -101 210 -76 181 -73 c 256
 154 -70 125 -85 101 -95 c 257
 199 14 l 257
EndSplineSet
EndChar

StartChar: egrave
Encoding: 232 232 222
Width: 475
VWidth: 0
Flags: HMW
LayerCount: 2
Fore
SplineSet
93 223 m 257
 100 250 l 257
 446 250 l 257
 476 327 457 439 347 441 c 256
 231 443 144 337 108 242 c 257
 106 232 l 257
 83 143 93 22 208 20 c 256
 285 19 353 70 408 123 c 257
 429 105 l 257
 367 43 292 -10 201 -9 c 256
 72 -7 47 128 76 231 c 256
 83 254 92 278 104 300 c 256
 152 388 244 470 350 469 c 256
 471 467 507 349 479 248 c 256
 476 239 473 231 470 223 c 257
 93 223 l 257
238.796 683.009 m 257
 268.796 699.009 l 257
 376.796 539.009 l 257
 359.796 529.009 l 257
 238.796 683.009 l 257
EndSplineSet
EndChar

StartChar: eacute
Encoding: 233 233 223
Width: 475
VWidth: 0
Flags: HMW
LayerCount: 2
Fore
SplineSet
93 223 m 257
 100 250 l 257
 446 250 l 257
 476 327 457 439 347 441 c 256
 231 443 144 337 108 242 c 257
 106 232 l 257
 83 143 93 22 208 20 c 256
 285 19 353 70 408 123 c 257
 429 105 l 257
 367 43 292 -10 201 -9 c 256
 72 -7 47 128 76 231 c 256
 83 254 92 278 104 300 c 256
 152 388 244 470 350 469 c 256
 471 467 507 349 479 248 c 256
 476 239 473 231 470 223 c 257
 93 223 l 257
572.796 679.009 m 257
 359.796 529.009 l 257
 345.796 541.009 l 257
 549.796 697.009 l 257
 572.796 679.009 l 257
EndSplineSet
EndChar

StartChar: ecircumflex
Encoding: 234 234 224
Width: 475
VWidth: 0
Flags: HMW
LayerCount: 2
Fore
SplineSet
89 223 m 257
 97 249 l 257
 443 250 l 257
 471 327 455 439 345 441 c 256
 229 443 141 337 105 242 c 257
 102 232 l 257
 78 143 88 22 203 20 c 256
 280 18 349 69 404 122 c 257
 424 105 l 257
 361 43 286 -10 195 -9 c 256
 66 -7 42 129 72 231 c 256
 79 254 89 278 101 300 c 256
 150 388 243 470 349 469 c 256
 470 467 504 348 475 248 c 256
 472 239 469 231 466 223 c 257
 89 223 l 257
408 652 m 257
 231 531 l 257
 217 548 l 257
 415 685 l 257
 520 545 l 257
 497 530 l 257
 408 652 l 257
EndSplineSet
EndChar

StartChar: edieresis
Encoding: 235 235 225
Width: 475
VWidth: 0
Flags: HMW
LayerCount: 2
Fore
SplineSet
89 223 m 257
 97 249 l 257
 443 250 l 257
 471 327 455 439 345 441 c 256
 229 443 141 337 105 242 c 257
 102 232 l 257
 78 143 88 22 203 20 c 256
 280 18 349 69 404 122 c 257
 424 105 l 257
 361 43 286 -10 195 -9 c 256
 66 -7 42 129 72 231 c 256
 79 254 89 278 101 300 c 256
 150 388 243 470 349 469 c 256
 470 467 504 348 475 248 c 256
 472 239 469 231 466 223 c 257
 89 223 l 257
441 554 m 256
 443 564 460 578 471 577 c 256
 482 576 489 563 487 552 c 256
 485 542 468 529 457 530 c 256
 446 531 439 543 441 554 c 256
253 554 m 256
 255 564 272 578 283 577 c 256
 294 576 301 563 299 552 c 256
 297 542 280 529 269 530 c 256
 258 531 251 543 253 554 c 256
EndSplineSet
EndChar

StartChar: igrave
Encoding: 236 236 226
Width: 197
VWidth: 0
Flags: HMW
LayerCount: 2
Fore
SplineSet
188 459 m 257
 218 459 l 257
 58 0 l 257
 30 0 l 257
 188 459 l 257
132 691 m 257
 163 707 l 257
 266 547 l 257
 246 537 l 257
 132 691 l 257
EndSplineSet
EndChar

StartChar: dotlessi
Encoding: 305 305 227
Width: 197
VWidth: 0
Flags: HMW
LayerCount: 2
Fore
SplineSet
188 459 m 257
 218 459 l 257
 58 0 l 257
 30 0 l 257
 188 459 l 257
EndSplineSet
EndChar

StartChar: kgreenlandic
Encoding: 312 312 228
Width: 368
VWidth: 0
Flags: HMW
LayerCount: 2
Fore
SplineSet
175 459 m 257
 206 459 l 257
 46 0 l 257
 17 0 l 257
 175 459 l 257
408 458 m 257
 449 458 l 257
 165 269 l 257
 307 0 l 257
 272 0 l 257
 129 272 l 257
 408 458 l 257
EndSplineSet
EndChar

StartChar: iacute
Encoding: 237 237 229
Width: 197
VWidth: 0
Flags: HMW
LayerCount: 2
Fore
SplineSet
188 459 m 257
 218 459 l 257
 58 0 l 257
 30 0 l 257
 188 459 l 257
429 688 m 257
 212 538 l 257
 197 550 l 257
 407 706 l 257
 429 688 l 257
EndSplineSet
EndChar

StartChar: icircumflex
Encoding: 238 238 230
Width: 197
VWidth: 0
Flags: HMW
LayerCount: 2
Fore
SplineSet
188 459 m 257
 218 459 l 257
 58 0 l 257
 30 0 l 257
 188 459 l 257
271 655 m 257
 95 535 l 257
 81 552 l 257
 279 689 l 257
 384 549 l 257
 361 533 l 257
 271 655 l 257
EndSplineSet
EndChar

StartChar: idieresis
Encoding: 239 239 231
Width: 197
VWidth: 0
Flags: HMW
LayerCount: 2
Fore
SplineSet
188 459 m 257
 218 459 l 257
 58 0 l 257
 30 0 l 257
 188 459 l 257
295 563 m 256
 297 573 313 587 324 586 c 256
 335 585 343 573 341 562 c 256
 339 552 322 538 311 539 c 256
 300 540 293 552 295 563 c 256
133 563 m 256
 135 573 152 587 163 586 c 256
 174 585 181 573 179 562 c 256
 177 552 160 538 149 539 c 256
 138 540 131 552 133 563 c 256
EndSplineSet
EndChar

StartChar: ntilde
Encoding: 241 241 232
Width: 459
VWidth: 0
Flags: HMW
LayerCount: 2
Fore
SplineSet
211 459 m 257
 51 0 l 257
 21 0 l 257
 181 459 l 257
 211 459 l 257
406 308 m 258
 424 368 423 438 345 440 c 256
 252 442 184 355 146 282 c 257
 132 282 l 257
 173 370 247 470 355 469 c 256
 449 468 458 384 436 311 c 257
 328 0 l 257
 300 0 l 257
 406 308 l 258
236 557 m 257
 258 587 285 621 326 620 c 256
 366 619 387 573 427 575 c 256
 456 576 479 603 498 621 c 257
 514 605 l 257
 490 580 459 548 421 549 c 256
 382 550 362 594 323 594 c 256
 291 594 271 568 254 545 c 257
 236 557 l 257
EndSplineSet
EndChar

StartChar: ograve
Encoding: 242 242 233
Width: 520
VWidth: 0
Flags: HMW
LayerCount: 2
Fore
SplineSet
63 230 m 256
 104 354 227 470 363 469 c 256
 496 468 543 342 506 230 c 256
 465 106 341 -10 205 -9 c 256
 72 -8 26 118 63 230 c 256
93 230 m 256
 60 134 93 21 210 20 c 256
 329 19 439 122 476 230 c 256
 509 326 476 439 359 440 c 256
 240 441 130 338 93 230 c 256
306 691 m 257
 337 707 l 257
 440 547 l 257
 422 537 l 257
 306 691 l 257
EndSplineSet
EndChar

StartChar: oacute
Encoding: 243 243 234
Width: 520
VWidth: 0
Flags: HMW
LayerCount: 2
Fore
SplineSet
63 230 m 256
 104 354 227 470 363 469 c 256
 496 468 543 342 506 230 c 256
 465 106 341 -10 205 -9 c 256
 72 -8 26 118 63 230 c 256
93 230 m 256
 60 134 93 21 210 20 c 256
 329 19 439 122 476 230 c 256
 509 326 476 439 359 440 c 256
 240 441 130 338 93 230 c 256
577 688 m 257
 359 538 l 257
 346 550 l 257
 556 706 l 257
 577 688 l 257
EndSplineSet
EndChar

StartChar: ocircumflex
Encoding: 244 244 235
Width: 520
VWidth: 0
Flags: HMW
LayerCount: 2
Fore
SplineSet
63 230 m 256
 104 354 227 470 363 469 c 256
 496 468 543 342 506 230 c 256
 465 106 341 -10 205 -9 c 256
 72 -8 26 118 63 230 c 256
93 230 m 256
 60 134 93 21 210 20 c 256
 329 19 439 122 476 230 c 256
 509 326 476 439 359 440 c 256
 240 441 130 338 93 230 c 256
438 672 m 257
 262 552 l 257
 248 569 l 257
 446 706 l 257
 551 566 l 257
 528 550 l 257
 438 672 l 257
EndSplineSet
EndChar

StartChar: otilde
Encoding: 245 245 236
Width: 520
VWidth: 0
Flags: HMW
LayerCount: 2
Fore
SplineSet
63 230 m 256
 104 354 227 470 363 469 c 256
 496 468 543 342 506 230 c 256
 465 106 341 -10 205 -9 c 256
 72 -8 26 118 63 230 c 256
93 230 m 256
 60 134 93 21 210 20 c 256
 329 19 439 122 476 230 c 256
 509 326 476 439 359 440 c 256
 240 441 130 338 93 230 c 256
265 557 m 257
 252 586 337 620 356 620 c 256
 396 620 417 573 457 575 c 256
 486 576 508 603 527 621 c 257
 544 605 l 257
 520 580 489 548 452 549 c 256
 413 550 392 595 353 594 c 256
 322 593 302 567 284 545 c 257
 265 557 l 257
EndSplineSet
EndChar

StartChar: odieresis
Encoding: 246 246 237
Width: 520
VWidth: 0
Flags: HMW
LayerCount: 2
Fore
SplineSet
63 230 m 256
 104 354 227 470 363 469 c 256
 496 468 543 342 506 230 c 256
 465 106 341 -10 205 -9 c 256
 72 -8 26 118 63 230 c 256
93 230 m 256
 60 134 93 21 210 20 c 256
 329 19 439 122 476 230 c 256
 509 326 476 439 359 440 c 256
 240 441 130 338 93 230 c 256
474 577 m 256
 476 587 493 601 504 600 c 256
 515 599 521 587 519 576 c 256
 517 566 501 552 490 553 c 256
 479 554 472 566 474 577 c 256
286 577 m 256
 288 587 305 601 316 600 c 256
 327 599 333 587 331 576 c 256
 329 566 312 552 301 553 c 256
 290 554 284 566 286 577 c 256
EndSplineSet
EndChar

StartChar: ugrave
Encoding: 249 249 238
Width: 459
VWidth: 0
Flags: HMW
LayerCount: 2
Fore
SplineSet
299 0 m 257
 458 459 l 257
 488 459 l 257
 329 0 l 257
 299 0 l 257
105 159 m 258
 86 99 82 22 164 20 c 256
 257 18 325 104 363 178 c 257
 378 178 l 257
 337 90 262 -10 154 -9 c 256
 56 -8 52 83 75 156 c 257
 181 459 l 257
 210 459 l 257
 105 159 l 258
277 698 m 257
 308 714 l 257
 410 555 l 257
 391 544 l 257
 277 698 l 257
EndSplineSet
EndChar

StartChar: uacute
Encoding: 250 250 239
Width: 459
VWidth: 0
Flags: HMW
LayerCount: 2
Fore
SplineSet
299 0 m 257
 458 459 l 257
 488 459 l 257
 329 0 l 257
 299 0 l 257
105 159 m 258
 86 99 82 22 164 20 c 256
 257 18 325 104 363 178 c 257
 378 178 l 257
 337 90 262 -10 154 -9 c 256
 56 -8 52 83 75 156 c 257
 181 459 l 257
 210 459 l 257
 105 159 l 258
552 695 m 257
 334 545 l 257
 321 557 l 257
 530 713 l 257
 552 695 l 257
EndSplineSet
EndChar

StartChar: ucircumflex
Encoding: 251 251 240
Width: 459
VWidth: 0
Flags: HMW
LayerCount: 2
Fore
SplineSet
299 0 m 257
 458 459 l 257
 488 459 l 257
 329 0 l 257
 299 0 l 257
105 159 m 258
 86 99 82 22 164 20 c 256
 257 18 325 104 363 178 c 257
 378 178 l 257
 337 90 262 -10 154 -9 c 256
 56 -8 52 83 75 156 c 257
 181 459 l 257
 210 459 l 257
 105 159 l 258
406 665 m 257
 230 545 l 257
 215 562 l 257
 414 699 l 257
 519 559 l 257
 495 543 l 257
 406 665 l 257
EndSplineSet
EndChar

StartChar: udieresis
Encoding: 252 252 241
Width: 459
VWidth: 0
Flags: HMW
LayerCount: 2
Fore
SplineSet
299 0 m 257
 458 459 l 257
 488 459 l 257
 329 0 l 257
 299 0 l 257
105 159 m 258
 86 99 82 22 164 20 c 256
 257 18 325 104 363 178 c 257
 378 178 l 257
 337 90 262 -10 154 -9 c 256
 56 -8 52 83 75 156 c 257
 181 459 l 257
 210 459 l 257
 105 159 l 258
430 575 m 256
 432 585 449 598 460 597 c 256
 471 595 477 584 475 573 c 256
 473 563 456 549 445 550 c 256
 433 551 428 564 430 575 c 256
268 575 m 256
 270 585 287 598 298 597 c 256
 309 595 316 584 314 573 c 256
 312 563 295 549 284 550 c 256
 272 551 266 564 268 575 c 256
EndSplineSet
EndChar

StartChar: yacute
Encoding: 253 253 242
Width: 403
VWidth: 0
Flags: HMW
LayerCount: 2
Fore
SplineSet
503 459 m 257
 -14 -219 l 257
 -49 -218 l 257
 146 35 l 257
 110 460 l 257
 144 460 l 257
 174 43 l 257
 157 45 l 257
 468 459 l 257
 503 459 l 257
524 688 m 257
 306 538 l 257
 293 550 l 257
 502 706 l 257
 524 688 l 257
EndSplineSet
EndChar

StartChar: thorn
Encoding: 254 254 243
Width: 516
VWidth: 0
Flags: HMW
LayerCount: 2
Fore
SplineSet
-28 -219 m 257
 -58 -219 l 257
 285 779 l 257
 314 779 l 257
 -28 -219 l 257
503 230 m 256
 464 112 352 -12 218 -9 c 256
 90 -6 81 135 112 230 c 256
 149 341 248 468 376 469 c 256
 509 470 538 335 503 230 c 256
473 230 m 256
 504 320 485 441 367 440 c 256
 256 439 160 327 126 230 c 256
 98 148 109 24 218 20 c 256
 335 15 437 127 473 230 c 256
EndSplineSet
EndChar

StartChar: ydieresis
Encoding: 255 255 244
Width: 403
VWidth: 0
Flags: HMW
LayerCount: 2
Fore
SplineSet
503 459 m 257
 -14 -219 l 257
 -49 -218 l 257
 146 35 l 257
 110 460 l 257
 144 460 l 257
 174 43 l 257
 157 45 l 257
 468 459 l 257
 503 459 l 257
400 569 m 256
 402 579 418 592 429 591 c 256
 440 590 447 578 445 567 c 256
 443 557 426 543 415 544 c 256
 404 546 398 558 400 569 c 256
239 569 m 256
 241 579 257 592 268 591 c 256
 279 590 286 578 284 567 c 256
 282 557 264 543 253 544 c 256
 242 546 237 558 239 569 c 256
EndSplineSet
EndChar

StartChar: Amacron
Encoding: 256 256 245
Width: 580
VWidth: 0
Flags: HMW
LayerCount: 2
Fore
SplineSet
157 255 m 257
 175 284 l 257
 491 284 l 257
 490 254 l 257
 157 255 l 257
459 646 m 257
 189 273 l 257
 184 265 l 257
 -9 0 l 257
 -46 0 l 257
 483 722 l 257
 515 0 l 257
 481 0 l 257
 472 263 l 257
 472 271 l 257
 459 646 l 257
343 795 m 257
 352 824 l 257
 683 824 l 257
 673 795 l 257
 343 795 l 257
EndSplineSet
EndChar

StartChar: amacron
Encoding: 257 257 246
Width: 422
VWidth: 0
Flags: HMW
LayerCount: 2
Fore
SplineSet
56 135 m 256
 34 71 68 20 135 19 c 256
 228 18 294 89 335 164 c 257
 338 149 l 257
 297 66 225 -9 125 -9 c 256
 43 -9 0 56 25 133 c 256
 55 225 156 281 250 281 c 256
 298 281 336 265 369 232 c 257
 361 212 l 257
 328 242 292 257 246 257 c 256
 169 257 83 211 56 135 c 256
163 383 m 257
 155 408 l 257
 207 439 264 471 327 469 c 256
 413 467 437 398 416 323 c 257
 305 0 l 257
 275 0 l 257
 388 323 l 257
 402 381 393 438 322 441 c 256
 264 444 210 412 163 383 c 257
192 550 m 257
 202 579 l 257
 532 579 l 257
 523 550 l 257
 192 550 l 257
EndSplineSet
Substitution2: "alt a" amacron.alt
EndChar

StartChar: breve
Encoding: 728 728 247
Width: 513
VWidth: 0
Flags: HMW
LayerCount: 2
Fore
SplineSet
335 850 m 257
 361 850 l 257
 354 788 377 738 447 737 c 256
 521 736 573 789 607 849 c 257
 635 848 l 257
 598 772 533 711 443 711 c 256
 357 711 325 772 335 850 c 257
EndSplineSet
EndChar

StartChar: Abreve
Encoding: 258 258 248
Width: 580
VWidth: 0
Flags: HMW
LayerCount: 2
Fore
SplineSet
157 255 m 257
 175 284 l 257
 491 284 l 257
 490 254 l 257
 157 255 l 257
459 646 m 257
 189 273 l 257
 184 265 l 257
 -9 0 l 257
 -46 0 l 257
 483 722 l 257
 515 0 l 257
 481 0 l 257
 472 263 l 257
 472 271 l 257
 459 646 l 257
404 928 m 257
 430 928 l 257
 421 867 441 816 511 815 c 256
 585 814 640 867 676 926 c 257
 703 926 l 257
 664 851 597 788 507 789 c 256
 421 790 391 851 404 928 c 257
EndSplineSet
EndChar

StartChar: abreve
Encoding: 259 259 249
Width: 422
VWidth: 0
Flags: HMW
LayerCount: 2
Fore
SplineSet
56 135 m 256
 34 71 68 20 135 19 c 256
 228 18 294 89 335 164 c 257
 338 149 l 257
 297 66 225 -9 125 -9 c 256
 43 -9 0 56 25 133 c 256
 55 225 156 281 250 281 c 256
 298 281 336 265 369 232 c 257
 361 212 l 257
 328 242 292 257 246 257 c 256
 169 257 83 211 56 135 c 256
163 383 m 257
 155 408 l 257
 207 439 264 471 327 469 c 256
 413 467 437 398 416 323 c 257
 305 0 l 257
 275 0 l 257
 388 323 l 257
 402 381 393 438 322 441 c 256
 264 444 210 412 163 383 c 257
244 677 m 257
 271 677 l 257
 262 616 282 565 352 564 c 256
 426 563 480 616 516 675 c 257
 544 675 l 257
 505 600 438 537 348 538 c 256
 262 539 231 600 244 677 c 257
EndSplineSet
Substitution2: "alt a" abreve.alt
EndChar

StartChar: Aogonek
Encoding: 260 260 250
Width: 580
VWidth: 0
Flags: HMW
LayerCount: 2
Fore
SplineSet
159 255 m 257
 176 284 l 257
 491 284 l 257
 490 254 l 257
 159 255 l 257
459 646 m 257
 189 273 l 257
 184 265 l 257
 -9 0 l 257
 -46 0 l 257
 483 722 l 257
 515 0 l 257
 481 0 l 257
 472 263 l 257
 472 271 l 257
 459 646 l 257
484 -161 m 257
 492 -182 l 257
 461 -202 428 -219 390 -219 c 256
 339 -219 299 -187 314 -133 c 256
 336 -55 437 -16 503 13 c 257
 516 0 l 257
 460 -28 364 -59 346 -128 c 256
 336 -166 362 -190 398 -192 c 256
 429 -194 458 -175 484 -161 c 257
EndSplineSet
EndChar

StartChar: aogonek
Encoding: 261 261 251
Width: 422
VWidth: 0
Flags: HMW
LayerCount: 2
Fore
SplineSet
56 135 m 256
 34 72 68 20 135 19 c 256
 227 18 294 89 335 164 c 257
 338 149 l 257
 297 66 225 -9 125 -9 c 256
 42 -9 1 58 26 135 c 256
 57 227 157 281 250 281 c 256
 298 281 336 265 369 232 c 257
 361 212 l 257
 328 242 292 257 246 257 c 256
 169 257 83 212 56 135 c 256
163 383 m 257
 155 408 l 257
 207 439 264 471 327 469 c 256
 413 467 437 398 416 323 c 257
 305 0 l 257
 275 0 l 257
 388 323 l 257
 402 381 393 438 322 441 c 256
 264 444 210 412 163 383 c 257
274 -161 m 257
 283 -182 l 257
 252 -202 218 -219 180 -219 c 256
 129 -219 89 -187 104 -133 c 256
 126 -55 228 -17 294 13 c 257
 307 0 l 257
 251 -28 154 -59 136 -128 c 256
 126 -166 152 -190 188 -192 c 256
 219 -194 248 -175 274 -161 c 257
EndSplineSet
Substitution2: "alt a" aogonek.alt
EndChar

StartChar: Cacute
Encoding: 262 262 252
Width: 644
VWidth: 0
Flags: HMW
LayerCount: 2
Fore
SplineSet
143 350 m 256
 94 206 133 29 312 26 c 256
 402 25 484 63 557 112 c 257
 543 70 l 257
 471 25 393 -9 306 -8 c 256
 108 -6 55 188 109 350 c 256
 170 533 342 707 545 709 c 256
 620 710 681 684 733 630 c 257
 719 587 l 257
 675 648 614 676 539 675 c 256
 355 673 200 515 143 350 c 256
749 921 m 257
 530 771 l 257
 517 783 l 257
 727 939 l 257
 749 921 l 257
EndSplineSet
EndChar

StartChar: cacute
Encoding: 263 263 253
Width: 456
VWidth: 0
Flags: HMW
LayerCount: 2
Fore
SplineSet
88 230 m 256
 55 134 90 22 206 20 c 256
 270 19 327 50 378 85 c 257
 367 47 l 257
 317 14 261 -9 200 -9 c 256
 67 -9 21 118 58 230 c 256
 99 355 223 469 359 469 c 256
 411 469 455 450 490 411 c 257
 478 374 l 257
 450 418 408 440 355 440 c 256
 236 440 126 338 88 230 c 256
571 689 m 257
 354 539 l 257
 339 552 l 257
 549 708 l 257
 571 689 l 257
EndSplineSet
EndChar

StartChar: Ccircumflex
Encoding: 264 264 254
Width: 644
VWidth: 0
Flags: HMW
LayerCount: 2
Fore
SplineSet
143 350 m 256
 94 206 133 29 312 26 c 256
 402 25 484 63 557 112 c 257
 543 70 l 257
 471 25 393 -9 306 -8 c 256
 108 -5 55 188 109 350 c 256
 170 533 342 707 545 709 c 256
 620 710 681 684 733 630 c 257
 719 587 l 257
 675 648 614 676 539 675 c 256
 355 673 200 515 143 350 c 256
613 891 m 257
 437 770 l 257
 422 787 l 257
 620 924 l 257
 725 785 l 257
 703 769 l 257
 613 891 l 257
EndSplineSet
EndChar

StartChar: ccircumflex
Encoding: 265 265 255
Width: 456
VWidth: 0
Flags: HMW
LayerCount: 2
Fore
SplineSet
88 230 m 256
 55 134 90 22 206 20 c 256
 270 19 327 50 378 85 c 257
 367 47 l 257
 317 14 261 -9 200 -9 c 256
 67 -9 21 118 58 230 c 256
 99 355 223 469 359 469 c 256
 411 469 455 450 490 411 c 257
 478 374 l 257
 450 418 408 440 355 440 c 256
 236 440 126 338 88 230 c 256
427 652 m 257
 251 532 l 257
 236 549 l 257
 434 686 l 257
 539 546 l 257
 517 530 l 257
 427 652 l 257
EndSplineSet
EndChar

StartChar: Cdotaccent
Encoding: 266 266 256
Width: 644
VWidth: 0
Flags: HMW
LayerCount: 2
Fore
SplineSet
143 350 m 256
 94 206 133 29 312 26 c 256
 402 25 484 63 557 112 c 257
 543 70 l 257
 471 25 393 -9 306 -8 c 256
 108 -6 55 188 109 350 c 256
 170 533 342 707 545 709 c 256
 620 710 681 684 733 630 c 257
 719 587 l 257
 675 648 614 676 539 675 c 256
 355 673 200 515 143 350 c 256
556 800 m 256
 558 810 575 824 586 823 c 256
 597 822 604 810 602 799 c 256
 600 789 583 775 572 776 c 256
 561 777 554 789 556 800 c 256
EndSplineSet
EndChar

StartChar: cdotaccent
Encoding: 267 267 257
Width: 456
VWidth: 0
Flags: HMW
LayerCount: 2
Fore
SplineSet
88 230 m 256
 55 134 90 22 206 20 c 256
 270 19 327 50 378 85 c 257
 367 47 l 257
 317 14 261 -9 200 -9 c 256
 67 -9 21 118 58 230 c 256
 99 355 223 469 359 469 c 256
 411 469 455 450 490 411 c 257
 478 374 l 257
 450 418 408 440 355 440 c 256
 236 440 126 338 88 230 c 256
370 561 m 256
 372 571 389 585 400 584 c 256
 411 583 417 571 415 560 c 256
 413 550 396 536 385 537 c 256
 374 538 368 550 370 561 c 256
EndSplineSet
EndChar

StartChar: Ccaron
Encoding: 268 268 258
Width: 644
VWidth: 0
Flags: HMW
LayerCount: 2
Fore
SplineSet
143 350 m 256
 94 206 133 29 312 26 c 256
 402 25 484 63 557 112 c 257
 543 70 l 257
 471 25 393 -9 306 -8 c 256
 108 -5 55 188 109 350 c 256
 170 533 342 707 545 709 c 256
 620 710 681 684 733 630 c 257
 719 587 l 257
 675 648 614 676 539 675 c 256
 355 673 200 515 143 350 c 256
580 810 m 257
 755 931 l 257
 770 913 l 257
 572 776 l 257
 467 916 l 257
 491 933 l 257
 580 810 l 257
EndSplineSet
EndChar

StartChar: ccaron
Encoding: 269 269 259
Width: 456
VWidth: 0
Flags: HMW
LayerCount: 2
Fore
SplineSet
88 230 m 256
 55 134 90 22 206 20 c 256
 270 19 327 50 378 85 c 257
 367 47 l 257
 317 14 261 -9 200 -9 c 256
 67 -9 21 118 58 230 c 256
 99 355 223 469 359 469 c 256
 411 469 455 450 490 411 c 257
 478 374 l 257
 450 418 408 440 355 440 c 256
 236 440 126 338 88 230 c 256
396 578 m 257
 571 700 l 257
 587 682 l 257
 389 545 l 257
 283 685 l 257
 306 701 l 257
 396 578 l 257
EndSplineSet
EndChar

StartChar: Dcaron
Encoding: 270 270 260
Width: 609
VWidth: 0
Flags: HMW
LayerCount: 2
Fore
SplineSet
266 699 m 257
 299 699 l 257
 58 0 l 257
 27 0 l 257
 266 699 l 257
194 0 m 256
 43 0 l 257
 55 32 l 257
 201 32 l 256
 387 38 540 178 599 350 c 256
 652 504 602 660 422 668 c 256
 271 668 l 257
 282 700 l 257
 428 700 l 256
 625 693 688 520 631 350 c 256
 568 162 398 6 194 0 c 256
527 824 m 257
 702 945 l 257
 718 928 l 257
 519 791 l 257
 414 930 l 257
 437 947 l 257
 527 824 l 257
EndSplineSet
EndChar

StartChar: dcaron
Encoding: 271 271 261
Width: 536
VWidth: 0
Flags: HMW
LayerCount: 2
Fore
SplineSet
627 779 m 257
 658 779 l 257
 389 0 l 257
 361 0 l 257
 627 779 l 257
63 230 m 256
 102 348 214 472 348 469 c 256
 476 466 485 325 454 230 c 256
 417 119 317 -8 189 -9 c 256
 56 -10 28 125 63 230 c 256
93 230 m 256
 62 140 80 19 198 20 c 256
 309 21 406 133 440 230 c 256
 468 312 456 436 347 440 c 256
 230 445 129 333 93 230 c 256
814 767 m 257
 842 754 l 257
 650 508 l 257
 631 516 l 257
 814 767 l 257
EndSplineSet
EndChar

StartChar: Dcroat
Encoding: 272 272 262
Width: 639
VWidth: 0
Flags: HMW
LayerCount: 2
Fore
SplineSet
65 335 m 257
 74 364 l 257
 358 364 l 257
 348 335 l 257
 65 335 l 257
266 699 m 257
 299 699 l 257
 58 0 l 257
 27 0 l 257
 266 699 l 257
194 0 m 256
 43 0 l 257
 55 32 l 257
 201 32 l 256
 386 39 540 179 599 350 c 256
 652 503 602 660 422 668 c 256
 271 668 l 257
 282 700 l 257
 428 700 l 256
 625 693 688 520 631 350 c 256
 568 162 398 6 194 0 c 256
EndSplineSet
EndChar

StartChar: dcroat
Encoding: 273 273 263
Width: 516
VWidth: 0
Flags: HMW
LayerCount: 2
Fore
SplineSet
441 636 m 257
 450 665 l 257
 734 665 l 257
 723 636 l 257
 441 636 l 257
627 779 m 257
 658 779 l 257
 389 0 l 257
 361 0 l 257
 627 779 l 257
63 230 m 256
 102 348 214 472 348 469 c 256
 476 466 485 325 454 230 c 256
 417 119 317 -8 189 -9 c 256
 56 -10 28 125 63 230 c 256
93 230 m 256
 62 140 81 19 198 20 c 256
 309 21 406 133 440 230 c 256
 468 311 455 435 347 440 c 256
 230 445 129 332 93 230 c 256
EndSplineSet
EndChar

StartChar: Emacron
Encoding: 274 274 264
Width: 490
VWidth: 0
Flags: HMW
LayerCount: 2
Fore
SplineSet
42 0 m 257
 52 30 l 257
 375 30 l 257
 366 0 l 257
 42 0 l 257
271 670 m 257
 281 700 l 257
 604 700 l 257
 594 670 l 257
 271 670 l 257
169 372 m 257
 179 402 l 257
 483 402 l 257
 473 371 l 257
 169 372 l 257
266 699 m 257
 299 699 l 257
 58 0 l 257
 27 0 l 257
 266 699 l 257
323 816 m 257
 333 845 l 257
 663 845 l 257
 653 816 l 257
 323 816 l 257
EndSplineSet
EndChar

StartChar: emacron
Encoding: 275 275 265
Width: 475
VWidth: 0
Flags: HMW
LayerCount: 2
Fore
SplineSet
93 223 m 257
 100 250 l 257
 446 250 l 257
 476 327 457 439 347 441 c 256
 231 443 144 337 108 242 c 257
 106 232 l 257
 83 143 93 22 208 20 c 256
 285 19 353 70 408 123 c 257
 429 105 l 257
 367 43 292 -10 201 -9 c 256
 72 -7 47 128 76 231 c 256
 83 254 92 278 104 300 c 256
 152 388 244 470 350 469 c 256
 471 467 507 349 479 248 c 256
 476 239 473 231 470 223 c 257
 93 223 l 257
192.853 539.009 m 257
 201.853 568.009 l 257
 531.853 568.009 l 257
 522.853 539.009 l 257
 192.853 539.009 l 257
EndSplineSet
EndChar

StartChar: Ebreve
Encoding: 276 276 266
Width: 490
VWidth: 0
Flags: HMW
LayerCount: 2
Fore
SplineSet
42 0 m 257
 52 30 l 257
 375 30 l 257
 366 0 l 257
 42 0 l 257
271 670 m 257
 281 700 l 257
 604 700 l 257
 594 670 l 257
 271 670 l 257
169 372 m 257
 179 402 l 257
 483 402 l 257
 473 371 l 257
 169 372 l 257
266 699 m 257
 299 699 l 257
 58 0 l 257
 27 0 l 257
 266 699 l 257
363 909 m 257
 390 908 l 257
 381 847 401 797 471 796 c 256
 545 795 599 848 635 907 c 257
 663 907 l 257
 624 832 557 769 467 770 c 256
 381 771 350 832 363 909 c 257
EndSplineSet
EndChar

StartChar: ebreve
Encoding: 277 277 267
Width: 475
VWidth: 0
Flags: HMW
LayerCount: 2
Fore
SplineSet
89 223 m 257
 97 249 l 257
 443 250 l 257
 471 327 455 439 345 441 c 256
 229 443 141 337 105 242 c 257
 102 232 l 257
 78 143 88 22 203 20 c 256
 280 18 349 69 404 122 c 257
 424 105 l 257
 361 43 286 -10 195 -9 c 256
 66 -7 42 129 72 231 c 256
 79 254 89 278 101 300 c 256
 150 388 243 470 349 469 c 256
 470 467 504 348 475 248 c 256
 472 239 469 231 466 223 c 257
 89 223 l 257
245 669 m 257
 271 668 l 257
 264 606 285 557 355 556 c 256
 429 555 482 608 516 668 c 257
 544 667 l 257
 506 591 441 530 351 530 c 256
 265 530 234 592 245 669 c 257
EndSplineSet
EndChar

StartChar: Edotaccent
Encoding: 278 278 268
Width: 490
VWidth: 0
Flags: HMW
LayerCount: 2
Fore
SplineSet
42 0 m 257
 52 30 l 257
 375 30 l 257
 366 0 l 257
 42 0 l 257
271 670 m 257
 281 700 l 257
 604 700 l 257
 594 670 l 257
 271 670 l 257
169 372 m 257
 179 402 l 257
 483 402 l 257
 473 371 l 257
 169 372 l 257
266 699 m 257
 299 699 l 257
 58 0 l 257
 27 0 l 257
 266 699 l 257
444 793 m 256
 446 803 463 817 474 816 c 256
 485 815 491 803 489 792 c 256
 487 782 470 768 459 769 c 256
 448 770 442 782 444 793 c 256
EndSplineSet
EndChar

StartChar: edotaccent
Encoding: 279 279 269
Width: 475
VWidth: 0
Flags: HMW
LayerCount: 2
Fore
SplineSet
89 223 m 257
 97 249 l 257
 443 250 l 257
 471 327 455 439 345 441 c 256
 229 443 141 337 105 242 c 257
 102 232 l 257
 78 143 88 22 203 20 c 256
 280 18 349 69 404 122 c 257
 424 105 l 257
 361 43 286 -10 195 -9 c 256
 66 -7 42 129 72 231 c 256
 79 254 89 278 101 300 c 256
 150 388 243 470 349 469 c 256
 470 467 504 348 475 248 c 256
 472 239 469 231 466 223 c 257
 89 223 l 257
347 554 m 256
 349 564 366 578 377 577 c 256
 388 576 395 563 393 552 c 256
 391 542 374 529 363 530 c 256
 352 531 345 543 347 554 c 256
EndSplineSet
EndChar

StartChar: Eogonek
Encoding: 280 280 270
Width: 490
VWidth: 0
Flags: HMW
LayerCount: 2
Fore
SplineSet
42 0 m 257
 52 30 l 257
 375 30 l 257
 366 0 l 257
 42 0 l 257
271 670 m 257
 281 700 l 257
 604 700 l 257
 594 670 l 257
 271 670 l 257
169 372 m 257
 179 402 l 257
 483 402 l 257
 473 371 l 257
 169 372 l 257
266 699 m 257
 299 699 l 257
 58 0 l 257
 27 0 l 257
 266 699 l 257
300 -161 m 257
 308 -182 l 257
 277 -202 244 -219 206 -219 c 256
 155 -219 115 -187 130 -133 c 256
 152 -55 253 -17 319 13 c 257
 332 0 l 257
 276 -28 180 -59 162 -128 c 256
 152 -166 178 -190 214 -192 c 256
 245 -194 274 -175 300 -161 c 257
EndSplineSet
EndChar

StartChar: eogonek
Encoding: 281 281 271
Width: 475
VWidth: 0
Flags: HMW
LayerCount: 2
Fore
SplineSet
89 223 m 257
 97 249 l 257
 443 250 l 257
 471 327 455 439 345 441 c 256
 229 443 141 337 105 242 c 257
 102 232 l 257
 78 143 88 22 203 20 c 256
 280 18 349 69 404 122 c 257
 424 105 l 257
 361 43 286 -10 195 -9 c 256
 66 -7 42 129 72 231 c 256
 79 254 89 278 101 300 c 256
 150 388 243 470 349 469 c 256
 470 467 504 348 475 248 c 256
 472 239 469 231 466 223 c 257
 89 223 l 257
185 -167 m 257
 193 -188 l 257
 162 -208 131 -225 93 -225 c 256
 42 -225 1 -193 15 -139 c 256
 35 -62 135 -22 199 7 c 257
 213 -7 l 257
 158 -34 62 -66 45 -134 c 256
 36 -172 63 -196 99 -198 c 256
 130 -200 159 -182 185 -167 c 257
EndSplineSet
EndChar

StartChar: Ecaron
Encoding: 282 282 272
Width: 490
VWidth: 0
Flags: HMW
LayerCount: 2
Fore
SplineSet
42 0 m 257
 52 30 l 257
 375 30 l 257
 366 0 l 257
 42 0 l 257
271 670 m 257
 281 700 l 257
 604 700 l 257
 594 670 l 257
 271 670 l 257
169 372 m 257
 179 402 l 257
 483 402 l 257
 473 371 l 257
 169 372 l 257
266 699 m 257
 299 699 l 257
 58 0 l 257
 27 0 l 257
 266 699 l 257
467 803 m 257
 642 924 l 257
 658 906 l 257
 460 769 l 257
 355 909 l 257
 378 926 l 257
 467 803 l 257
EndSplineSet
EndChar

StartChar: ecaron
Encoding: 283 283 273
Width: 475
VWidth: 0
Flags: HMW
LayerCount: 2
Fore
SplineSet
89 223 m 257
 97 249 l 257
 443 250 l 257
 471 327 455 439 345 441 c 256
 229 443 141 337 105 242 c 257
 102 232 l 257
 78 143 88 22 203 20 c 256
 280 18 349 69 404 122 c 257
 424 105 l 257
 361 43 286 -10 195 -9 c 256
 66 -7 42 129 72 231 c 256
 79 254 89 278 101 300 c 256
 150 388 243 470 349 469 c 256
 470 467 504 348 475 248 c 256
 472 239 469 231 466 223 c 257
 89 223 l 257
356 563 m 257
 531 684 l 257
 546 666 l 257
 348 529 l 257
 242 669 l 257
 266 686 l 257
 356 563 l 257
EndSplineSet
EndChar

StartChar: Gcircumflex
Encoding: 284 284 274
Width: 721
VWidth: 0
Flags: HMW
LayerCount: 2
Fore
SplineSet
444 314 m 257
 454 344 l 257
 737 343 l 257
 668 169 517 -8 314 -8 c 256
 115 -8 54 185 109 350 c 256
 170 535 349 709 553 709 c 256
 657 709 732 652 771 557 c 257
 742 538 l 257
 712 626 642 676 548 676 c 256
 362 676 200 518 142 350 c 256
 92 203 139 25 320 25 c 256
 494 25 624 170 695 313 c 257
 444 314 l 257
621 891 m 257
 444 770 l 257
 430 787 l 257
 628 924 l 257
 734 785 l 257
 711 769 l 257
 621 891 l 257
EndSplineSet
EndChar

StartChar: gcircumflex
Encoding: 285 285 275
Width: 516
VWidth: 0
Flags: HMW
LayerCount: 2
Fore
SplineSet
-12 -30 m 257
 17 -30 l 257
 -2 -114 14 -198 117 -200 c 256
 237 -202 326 -92 364 10 c 258
 519 459 l 257
 549 459 l 257
 395 10 l 258
 351 -109 250 -229 113 -229 c 256
 -6 -229 -36 -130 -12 -30 c 257
63 230 m 256
 102 348 214 472 348 469 c 256
 476 466 485 325 454 230 c 256
 417 119 317 -8 189 -9 c 256
 56 -10 28 125 63 230 c 256
93 230 m 256
 61 139 80 19 198 20 c 256
 311 21 408 136 441 234 c 256
 469 315 454 436 347 440 c 256
 230 445 129 333 93 230 c 256
416 652 m 257
 239 532 l 257
 225 549 l 257
 423 686 l 257
 528 546 l 257
 505 530 l 257
 416 652 l 257
EndSplineSet
EndChar

StartChar: Gbreve
Encoding: 286 286 276
Width: 721
VWidth: 0
Flags: HMW
LayerCount: 2
Fore
SplineSet
444 314 m 257
 454 344 l 257
 737 343 l 257
 668 169 517 -8 314 -8 c 256
 115 -8 54 185 109 350 c 256
 170 535 349 709 553 709 c 256
 657 709 732 652 771 557 c 257
 742 538 l 257
 712 626 642 676 548 676 c 256
 362 676 200 518 142 350 c 256
 92 203 139 25 320 25 c 256
 494 25 624 170 695 313 c 257
 444 314 l 257
475 909 m 257
 502 908 l 257
 493 847 513 797 583 796 c 256
 657 795 711 848 747 907 c 257
 774 907 l 257
 735 832 669 769 579 770 c 256
 493 771 462 832 475 909 c 257
EndSplineSet
EndChar

StartChar: gbreve
Encoding: 287 287 277
Width: 516
VWidth: 0
Flags: HMW
LayerCount: 2
Fore
SplineSet
-12 -30 m 257
 17 -30 l 257
 -2 -114 14 -198 117 -200 c 256
 237 -202 326 -92 364 10 c 258
 519 459 l 257
 549 459 l 257
 395 10 l 258
 351 -109 250 -229 113 -229 c 256
 -6 -229 -36 -130 -12 -30 c 257
63 230 m 256
 102 348 214 472 348 469 c 256
 476 466 485 325 454 230 c 256
 417 119 317 -8 189 -9 c 256
 56 -10 28 125 63 230 c 256
93 230 m 256
 61 139 80 19 198 20 c 256
 311 21 408 136 441 234 c 256
 469 315 454 436 347 440 c 256
 230 445 129 333 93 230 c 256
270 670 m 257
 296 670 l 257
 287 609 307 558 377 557 c 256
 451 556 505 609 541 668 c 257
 569 668 l 257
 530 593 463 530 373 531 c 256
 287 532 257 593 270 670 c 257
EndSplineSet
EndChar

StartChar: Gdotaccent
Encoding: 288 288 278
Width: 721
VWidth: 0
Flags: HMW
LayerCount: 2
Fore
SplineSet
444 314 m 257
 454 344 l 257
 737 343 l 257
 668 169 517 -8 314 -8 c 256
 115 -8 54 185 109 350 c 256
 170 535 349 709 553 709 c 256
 657 709 732 652 771 557 c 257
 742 538 l 257
 712 626 642 676 548 676 c 256
 362 676 200 518 142 350 c 256
 92 203 139 25 320 25 c 256
 494 25 624 170 695 313 c 257
 444 314 l 257
562 793 m 256
 564 803 581 817 592 816 c 256
 603 815 609 803 607 792 c 256
 605 782 588 768 577 769 c 256
 566 770 560 782 562 793 c 256
EndSplineSet
EndChar

StartChar: gdotaccent
Encoding: 289 289 279
Width: 516
VWidth: 0
Flags: HMW
LayerCount: 2
Fore
SplineSet
-12 -30 m 257
 17 -30 l 257
 -2 -114 14 -198 117 -200 c 256
 237 -202 326 -92 364 10 c 258
 519 459 l 257
 549 459 l 257
 395 10 l 258
 351 -109 250 -229 113 -229 c 256
 -6 -229 -36 -130 -12 -30 c 257
63 230 m 256
 102 348 214 472 348 469 c 256
 476 466 485 325 454 230 c 256
 417 119 317 -8 189 -9 c 256
 56 -10 28 125 63 230 c 256
93 230 m 256
 61 139 80 19 198 20 c 256
 311 21 408 136 441 234 c 256
 469 315 454 436 347 440 c 256
 230 445 129 333 93 230 c 256
366 566 m 256
 368 576 385 590 396 589 c 256
 407 588 413 576 411 565 c 256
 409 555 392 541 381 542 c 256
 370 543 364 555 366 566 c 256
EndSplineSet
EndChar

StartChar: uni0122
Encoding: 290 290 280
Width: 721
VWidth: 0
Flags: HMW
LayerCount: 2
Fore
SplineSet
444 314 m 257
 454 344 l 257
 737 343 l 257
 668 169 517 -8 314 -8 c 256
 115 -8 54 185 109 350 c 256
 170 535 349 709 553 709 c 256
 657 709 732 652 771 557 c 257
 742 538 l 257
 712 626 642 676 548 676 c 256
 362 676 200 518 142 350 c 256
 92 203 139 25 320 25 c 256
 494 25 624 170 695 313 c 257
 444 314 l 257
323 -71 m 257
 351 -83 l 257
 159 -329 l 257
 140 -321 l 257
 323 -71 l 257
EndSplineSet
EndChar

StartChar: Hcircumflex
Encoding: 292 292 281
Width: 626
VWidth: 0
Flags: HMW
LayerCount: 2
Fore
SplineSet
168 367 m 257
 177 397 l 257
 617 397 l 257
 607 366 l 257
 168 367 l 257
699 699 m 257
 732 699 l 257
 490 0 l 257
 460 0 l 257
 699 699 l 257
266 699 m 257
 299 699 l 257
 58 0 l 257
 27 0 l 257
 266 699 l 257
567 891 m 257
 390 770 l 257
 376 787 l 257
 574 924 l 257
 680 785 l 257
 656 769 l 257
 567 891 l 257
EndSplineSet
EndChar

StartChar: hcircumflex
Encoding: 293 293 282
Width: 459
VWidth: 0
Flags: HMW
LayerCount: 2
Fore
SplineSet
320 779 m 257
 51 0 l 257
 21 0 l 257
 290 779 l 257
 320 779 l 257
406 308 m 258
 424 368 423 438 345 440 c 256
 252 442 184 355 146 282 c 257
 132 282 l 257
 173 370 247 470 355 469 c 256
 449 468 458 384 436 311 c 257
 328 0 l 257
 300 0 l 257
 406 308 l 258
376 962 m 257
 199 842 l 257
 185 859 l 257
 383 996 l 257
 489 856 l 257
 465 840 l 257
 376 962 l 257
EndSplineSet
EndChar

StartChar: Itilde
Encoding: 296 296 283
Width: 186
VWidth: 0
Flags: HMW
LayerCount: 2
Fore
SplineSet
263 699 m 257
 295 699 l 257
 53 0 l 257
 23 0 l 257
 263 699 l 257
197 826 m 257
 219 856 248 889 289 888 c 256
 329 887 350 841 390 843 c 256
 419 844 441 871 460 889 c 257
 476 874 l 257
 452 849 421 817 383 818 c 256
 344 819 324 863 285 863 c 256
 253 863 233 837 216 814 c 257
 197 826 l 257
EndSplineSet
EndChar

StartChar: itilde
Encoding: 297 297 284
Width: 197
VWidth: 0
Flags: HMW
LayerCount: 2
Fore
SplineSet
188 459 m 257
 218 459 l 257
 58 0 l 257
 30 0 l 257
 188 459 l 257
122 586 m 257
 144 616 173 649 214 648 c 256
 254 647 274 601 314 603 c 256
 343 604 366 631 385 649 c 257
 400 634 l 257
 376 609 346 577 308 578 c 256
 269 579 249 623 210 623 c 256
 178 623 158 597 141 574 c 257
 122 586 l 257
EndSplineSet
EndChar

StartChar: Imacron
Encoding: 298 298 285
Width: 186
VWidth: 0
Flags: HMW
LayerCount: 2
Fore
SplineSet
263 699 m 257
 295 699 l 257
 53 0 l 257
 23 0 l 257
 263 699 l 257
176 816 m 257
 185 845 l 257
 516 845 l 257
 505 816 l 257
 176 816 l 257
EndSplineSet
EndChar

StartChar: imacron
Encoding: 299 299 286
Width: 197
VWidth: 0
Flags: HMW
LayerCount: 2
Fore
SplineSet
188 459 m 257
 218 459 l 257
 58 0 l 257
 30 0 l 257
 188 459 l 257
100 576 m 257
 110 605 l 257
 440 605 l 257
 430 576 l 257
 100 576 l 257
EndSplineSet
EndChar

StartChar: Ibreve
Encoding: 300 300 287
Width: 186
VWidth: 0
Flags: HMW
LayerCount: 2
Fore
SplineSet
263 699 m 257
 295 699 l 257
 53 0 l 257
 23 0 l 257
 263 699 l 257
200 910 m 257
 226 910 l 257
 217 849 237 798 307 797 c 256
 381 796 436 849 472 908 c 257
 499 908 l 257
 460 833 393 770 303 771 c 256
 217 772 187 833 200 910 c 257
EndSplineSet
EndChar

StartChar: ibreve
Encoding: 301 301 288
Width: 197
VWidth: 0
Flags: HMW
LayerCount: 2
Fore
SplineSet
188 459 m 257
 218 459 l 257
 58 0 l 257
 30 0 l 257
 188 459 l 257
124 670 m 257
 151 670 l 257
 142 609 162 558 232 557 c 256
 306 556 360 609 396 668 c 257
 423 668 l 257
 384 593 318 530 228 531 c 256
 142 532 111 593 124 670 c 257
EndSplineSet
EndChar

StartChar: Iogonek
Encoding: 302 302 289
Width: 186
VWidth: 0
Flags: HMW
LayerCount: 2
Fore
SplineSet
263 699 m 257
 295 699 l 257
 53 0 l 257
 23 0 l 257
 263 699 l 257
23 -161 m 257
 31 -182 l 257
 0 -202 -33 -219 -71 -219 c 256
 -122 -219 -162 -187 -147 -133 c 256
 -125 -55 -24 -17 42 13 c 257
 55 0 l 257
 -1 -28 -98 -59 -116 -128 c 256
 -126 -166 -99 -190 -63 -192 c 256
 -32 -194 -3 -175 23 -161 c 257
EndSplineSet
EndChar

StartChar: iogonek
Encoding: 303 303 290
Width: 197
VWidth: 0
Flags: HMW
LayerCount: 2
Fore
SplineSet
255 683 m 256
 257 693 273 706 284 705 c 256
 295 704 302 692 300 681 c 256
 298 671 281 658 270 659 c 256
 259 660 253 672 255 683 c 256
188 459 m 257
 218 459 l 257
 58 0 l 257
 30 0 l 257
 188 459 l 257
28 -161 m 257
 36 -182 l 257
 5 -202 -28 -219 -66 -219 c 256
 -117 -219 -157 -187 -142 -133 c 256
 -120 -55 -19 -16 47 13 c 257
 60 0 l 257
 4 -28 -93 -59 -111 -128 c 256
 -121 -166 -94 -190 -58 -192 c 256
 -27 -194 2 -175 28 -161 c 257
EndSplineSet
EndChar

StartChar: Idotaccent
Encoding: 304 304 291
Width: 186
VWidth: 0
Flags: HMW
LayerCount: 2
Fore
SplineSet
263 699 m 257
 295 699 l 257
 53 0 l 257
 23 0 l 257
 263 699 l 257
288 798 m 256
 290 808 308 822 319 821 c 256
 330 820 336 808 334 797 c 256
 332 787 315 773 304 774 c 256
 293 775 286 787 288 798 c 256
EndSplineSet
EndChar

StartChar: uni0136
Encoding: 310 310 292
Width: 457
VWidth: 0
Flags: HMW
LayerCount: 2
Fore
SplineSet
263 699 m 257
 295 699 l 257
 54 0 l 257
 23 0 l 257
 263 699 l 257
576 698 m 257
 619 698 l 257
 211 370 l 257
 391 0 l 257
 354 0 l 257
 173 374 l 257
 576 698 l 257
220 -62 m 257
 248 -75 l 257
 56 -320 l 257
 37 -313 l 257
 220 -62 l 257
EndSplineSet
EndChar

StartChar: uni0137
Encoding: 311 311 293
Width: 368
VWidth: 0
Flags: HMW
LayerCount: 2
Fore
SplineSet
284 779 m 257
 315 779 l 257
 46 0 l 257
 18 0 l 257
 284 779 l 257
408 458 m 257
 449 458 l 257
 165 269 l 257
 307 0 l 257
 272 0 l 257
 129 272 l 257
 408 458 l 257
175 -62 m 257
 202 -75 l 257
 11 -320 l 257
 -8 -313 l 257
 175 -62 l 257
EndSplineSet
EndChar

StartChar: Lacute
Encoding: 313 313 294
Width: 409
VWidth: 0
Flags: HMW
LayerCount: 2
Fore
SplineSet
267 699 m 257
 298 699 l 257
 68 30 l 257
 351 30 l 257
 340 0 l 257
 27 0 l 257
 267 699 l 257
654 921 m 257
 434 771 l 257
 422 783 l 257
 631 939 l 257
 654 921 l 257
EndSplineSet
EndChar

StartChar: lacute
Encoding: 314 314 295
Width: 182
VWidth: 0
Flags: HMW
LayerCount: 2
Fore
SplineSet
289 779 m 257
 320 779 l 257
 51 0 l 257
 22 0 l 257
 289 779 l 257
532 992 m 257
 312 842 l 257
 300 855 l 257
 509 1011 l 257
 532 992 l 257
EndSplineSet
EndChar

StartChar: uni013B
Encoding: 315 315 296
Width: 409
VWidth: 0
Flags: HMW
LayerCount: 2
Fore
SplineSet
267 699 m 257
 298 699 l 257
 68 30 l 257
 351 30 l 257
 340 0 l 257
 27 0 l 257
 267 699 l 257
169 -62 m 257
 197 -75 l 257
 5 -320 l 257
 -14 -313 l 257
 169 -62 l 257
EndSplineSet
EndChar

StartChar: uni013C
Encoding: 316 316 297
Width: 182
VWidth: 0
Flags: HMW
LayerCount: 2
Fore
SplineSet
289 779 m 257
 320 779 l 257
 51 0 l 257
 22 0 l 257
 289 779 l 257
36 -62 m 257
 63 -75 l 257
 -128 -320 l 257
 -147 -313 l 257
 36 -62 l 257
EndSplineSet
EndChar

StartChar: Lcaron
Encoding: 317 317 298
Width: 409
VWidth: 0
Flags: HMW
LayerCount: 2
Fore
SplineSet
267 699 m 257
 298 699 l 257
 68 30 l 257
 351 30 l 257
 340 0 l 257
 27 0 l 257
 267 699 l 257
507 707 m 257
 535 694 l 257
 344 448 l 257
 325 456 l 257
 507 707 l 257
EndSplineSet
EndChar

StartChar: lcaron
Encoding: 318 318 299
Width: 216
VWidth: 0
Flags: HMW
LayerCount: 2
Fore
SplineSet
289 779 m 257
 320 779 l 257
 51 0 l 257
 22 0 l 257
 289 779 l 257
502 767 m 257
 530 754 l 257
 338 508 l 257
 318 516 l 257
 502 767 l 257
EndSplineSet
EndChar

StartChar: Ldot
Encoding: 319 319 300
Width: 409
VWidth: 0
Flags: HMW
LayerCount: 2
Fore
SplineSet
267 699 m 257
 298 699 l 257
 68 30 l 257
 351 30 l 257
 340 0 l 257
 27 0 l 257
 267 699 l 257
336 415 m 256
 338 425 355 439 366 438 c 256
 377 437 384 425 382 414 c 256
 380 404 363 390 352 391 c 256
 341 392 334 404 336 415 c 256
EndSplineSet
EndChar

StartChar: ldot
Encoding: 320 320 301
Width: 348
VWidth: 0
Flags: HMW
LayerCount: 2
Fore
SplineSet
289 779 m 257
 320 779 l 257
 51 0 l 257
 22 0 l 257
 289 779 l 257
295 402 m 256
 297 412 314 426 325 425 c 256
 336 424 342 412 340 401 c 256
 338 391 321 377 310 378 c 256
 299 379 293 391 295 402 c 256
EndSplineSet
EndChar

StartChar: eth
Encoding: 240 240 302
Width: 514
VWidth: 0
Flags: HMW
LayerCount: 2
Fore
SplineSet
461 223 m 256
 493 318 450 417 341 417 c 256
 233 417 132 320 98 223 c 256
 65 131 95 21 208 20 c 256
 323 19 426 119 461 223 c 256
388 700 m 257
 493 378 l 258
 508 327 507 274 491 223 c 256
 452 102 336 -10 203 -9 c 256
 72 -8 31 114 68 224 c 256
 105 334 215 442 337 442 c 256
 393 442 432 416 463 371 c 257
 462 371 l 257
 353 700 l 257
 388 700 l 257
275 559 m 257
 284 585 l 257
 547 585 l 257
 539 559 l 257
 275 559 l 257
EndSplineSet
EndChar

StartChar: racute
Encoding: 341 341 303
Width: 286
VWidth: 0
Flags: HMW
LayerCount: 2
Fore
SplineSet
211 459 m 257
 51 0 l 257
 21 0 l 257
 181 459 l 257
 211 459 l 257
352 421 m 257
 337 431 323 439 304 440 c 256
 221 444 174 343 146 281 c 257
 132 281 l 257
 164 355 218 473 315 469 c 256
 338 469 356 457 375 444 c 257
 352 421 l 257
484 682 m 257
 265 532 l 257
 252 545 l 257
 462 701 l 257
 484 682 l 257
EndSplineSet
EndChar

StartChar: rcaron
Encoding: 345 345 304
Width: 286
VWidth: 0
Flags: HMW
LayerCount: 2
Fore
SplineSet
211 459 m 257
 51 0 l 257
 21 0 l 257
 181 459 l 257
 211 459 l 257
352 421 m 257
 337 431 323 439 304 440 c 256
 221 444 174 343 146 281 c 257
 132 281 l 257
 164 355 218 473 315 469 c 256
 338 469 356 457 375 444 c 257
 352 421 l 257
312 564 m 257
 488 686 l 257
 503 668 l 257
 305 531 l 257
 199 671 l 257
 223 687 l 257
 312 564 l 257
EndSplineSet
EndChar

StartChar: Rcaron
Encoding: 344 344 305
Width: 464
VWidth: 0
Flags: HMW
LayerCount: 2
Fore
SplineSet
245 325 m 257
 279 325 l 257
 384 0 l 257
 349 0 l 257
 245 325 l 257
266 699 m 257
 299 699 l 257
 58 0 l 257
 27 0 l 257
 266 699 l 257
270 670 m 257
 280 700 l 257
 393 700 l 256
 508 696 590 621 551 502 c 256
 511 378 388 308 263 304 c 257
 145 304 l 257
 155 333 l 257
 267 333 l 257
 375 337 483 395 520 502 c 256
 556 605 487 665 388 670 c 257
 270 670 l 257
439 803 m 257
 614 924 l 257
 630 906 l 257
 431 769 l 257
 326 909 l 257
 349 926 l 257
 439 803 l 257
EndSplineSet
EndChar

StartChar: uni0213
Encoding: 531 531 306
Width: 286
VWidth: 0
Flags: HMW
LayerCount: 2
Fore
SplineSet
211 459 m 257
 51 0 l 257
 21 0 l 257
 181 459 l 257
 211 459 l 257
352 421 m 257
 337 431 323 439 304 440 c 256
 221 444 174 343 146 281 c 257
 132 281 l 257
 164 355 218 473 315 469 c 256
 338 469 356 457 375 444 c 257
 352 421 l 257
158 545 m 257
 185 545 l 257
 220 605 274 657 348 657 c 256
 419 657 441 607 433 544 c 257
 455 544 l 257
 471 620 445 682 359 683 c 256
 268 684 200 620 158 545 c 257
EndSplineSet
EndChar

StartChar: uni0212
Encoding: 530 530 307
Width: 464
VWidth: 0
Flags: HMW
LayerCount: 2
Fore
SplineSet
245 325 m 257
 279 325 l 257
 384 0 l 257
 349 0 l 257
 245 325 l 257
266 699 m 257
 299 699 l 257
 58 0 l 257
 27 0 l 257
 266 699 l 257
270 670 m 257
 280 700 l 257
 393 700 l 256
 508 696 590 621 551 502 c 256
 511 378 388 308 263 304 c 257
 145 304 l 257
 155 333 l 257
 267 333 l 257
 375 337 483 395 520 502 c 256
 556 605 487 665 388 670 c 257
 270 670 l 257
305 769 m 257
 333 770 l 257
 368 830 421 882 495 882 c 256
 566 882 588 831 580 768 c 257
 602 769 l 257
 618 845 592 907 506 908 c 256
 415 909 347 844 305 769 c 257
EndSplineSet
EndChar

StartChar: OE
Encoding: 338 338 308
Width: 903
VWidth: 0
Flags: HMW
LayerCount: 2
Fore
SplineSet
571 372 m 257
 582 402 l 257
 896 402 l 257
 886 372 l 257
 571 372 l 257
665 687 m 257
 697 687 l 257
 464 13 l 257
 434 13 l 257
 665 687 l 257
788 30 m 257
 778 0 l 257
 315 0 l 256
 119 7 44 176 102 350 c 256
 165 541 344 694 549 700 c 256
 1016 700 l 257
 1006 670 l 257
 682 670 l 257
 666 670 l 257
 544 670 l 256
 358 664 193 522 133 350 c 256
 80 195 143 37 321 30 c 256
 439 30 l 257
 462 30 l 257
 788 30 l 257
EndSplineSet
EndChar

StartChar: oe
Encoding: 339 339 309
Width: 863
VWidth: 0
Flags: HMW
LayerCount: 2
Fore
SplineSet
825 250 m 257
 855 335 828 439 723 441 c 256
 605 443 517 339 471 242 c 257
 468 232 l 257
 439 139 451 22 573 20 c 256
 655 19 724 68 781 121 c 257
 801 104 l 257
 736 46 659 -11 568 -9 c 256
 436 -6 409 124 443 230 c 256
 448 247 455 263 463 279 c 256
 512 376 613 470 729 469 c 256
 850 468 888 347 855 247 c 256
 852 239 849 232 845 224 c 257
 816 230 l 257
 825 250 l 257
457 223 m 257
 465 249 l 257
 848 250 l 257
 845 223 l 257
 457 223 l 257
63 230 m 256
 102 347 212 471 344 469 c 256
 474 467 492 329 459 230 c 256
 421 116 316 -9 186 -9 c 256
 53 -9 28 127 63 230 c 256
93 230 m 256
 62 141 78 20 195 20 c 256
 307 20 403 132 437 230 c 256
 466 313 455 437 344 440 c 256
 227 444 129 332 93 230 c 256
EndSplineSet
EndChar

StartChar: a.alt
Encoding: 65536 -1 310
Width: 516
VWidth: 0
Flags: HMW
LayerCount: 2
Fore
SplineSet
520 459 m 257
 549 459 l 257
 389 0 l 257
 362 0 l 257
 520 459 l 257
63 230 m 256
 102 348 214 472 348 469 c 256
 476 466 485 325 454 230 c 256
 417 119 317 -8 189 -9 c 256
 56 -10 28 125 63 230 c 256
93 230 m 256
 62 140 80 19 198 20 c 256
 309 21 406 133 440 230 c 256
 468 312 456 436 347 440 c 256
 230 445 129 333 93 230 c 256
EndSplineSet
EndChar

StartChar: Jcircumflex
Encoding: 308 308 312
Width: 196
VWidth: 0
Flags: HMW
LayerCount: 2
Fore
SplineSet
-208 -143 m 257
 -187 -168 -164 -188 -129 -188 c 256
 -50 -189 -10 -114 14 -50 c 257
 271 699 l 257
 302 699 l 257
 42 -60 l 258
 13 -139 -42 -222 -136 -219 c 256
 -178 -218 -206 -197 -231 -166 c 257
 -208 -143 l 257
353 891 m 257
 177 770 l 257
 163 787 l 257
 361 924 l 257
 466 785 l 257
 443 769 l 257
 353 891 l 257
EndSplineSet
EndChar

StartChar: jcircumflex
Encoding: 309 309 313
Width: 188
VWidth: 0
Flags: HMW
LayerCount: 2
Fore
SplineSet
-176 -150 m 257
 -163 -169 -151 -188 -125 -189 c 256
 -63 -192 -23 -122 -4 -73 c 258
 178 459 l 257
 208 459 l 257
 25 -76 l 258
 1 -141 -51 -224 -132 -219 c 256
 -165 -217 -183 -198 -200 -173 c 257
 -176 -150 l 257
261 652 m 257
 85 532 l 257
 70 549 l 257
 268 686 l 257
 373 546 l 257
 351 530 l 257
 261 652 l 257
EndSplineSet
EndChar

StartChar: Nacute
Encoding: 323 323 314
Width: 655
VWidth: 0
Flags: HMW
LayerCount: 2
Fore
SplineSet
742 699 m 257
 774 699 l 257
 526 -20 l 257
 249 633 l 257
 31 0 l 257
 -1 0 l 257
 247 720 l 257
 523 64 l 257
 742 699 l 257
728 907 m 257
 510 757 l 257
 496 770 l 257
 707 926 l 257
 728 907 l 257
EndSplineSet
EndChar

StartChar: nacute
Encoding: 324 324 315
Width: 459
VWidth: 0
Flags: HMW
LayerCount: 2
Fore
SplineSet
211 459 m 257
 51 0 l 257
 21 0 l 257
 181 459 l 257
 211 459 l 257
406 308 m 258
 424 368 423 438 345 440 c 256
 252 442 184 355 146 282 c 257
 135 282 l 257
 175 369 247 470 355 469 c 256
 449 468 458 384 436 311 c 257
 328 0 l 257
 300 0 l 257
 406 308 l 258
548 689 m 257
 331 539 l 257
 317 552 l 257
 527 708 l 257
 548 689 l 257
EndSplineSet
EndChar

StartChar: uni0145
Encoding: 325 325 316
Width: 655
VWidth: 0
Flags: HMW
LayerCount: 2
Fore
SplineSet
269 -44 m 257
 296 -57 l 257
 105 -302 l 257
 86 -295 l 257
 269 -44 l 257
742 699 m 257
 774 699 l 257
 526 -20 l 257
 249 633 l 257
 31 0 l 257
 -1 0 l 257
 247 720 l 257
 523 64 l 257
 742 699 l 257
EndSplineSet
EndChar

StartChar: uni0146
Encoding: 326 326 317
Width: 459
VWidth: 0
Flags: HMW
LayerCount: 2
Fore
SplineSet
211 459 m 257
 51 0 l 257
 21 0 l 257
 181 459 l 257
 211 459 l 257
406 308 m 258
 424 368 423 438 345 440 c 256
 252 442 184 355 146 282 c 257
 132 282 l 257
 173 370 247 470 355 469 c 256
 449 468 458 384 436 311 c 257
 328 0 l 257
 300 0 l 257
 406 308 l 258
172 -48 m 257
 201 -61 l 257
 10 -306 l 257
 -10 -299 l 257
 172 -48 l 257
EndSplineSet
EndChar

StartChar: Ncaron
Encoding: 327 327 318
Width: 655
VWidth: 0
Flags: HMW
LayerCount: 2
Fore
SplineSet
555 808 m 257
 731 929 l 257
 745 911 l 257
 547 774 l 257
 442 914 l 257
 466 931 l 257
 555 808 l 257
742 699 m 257
 774 699 l 257
 526 -20 l 257
 249 633 l 257
 31 0 l 257
 -1 0 l 257
 247 720 l 257
 523 64 l 257
 742 699 l 257
EndSplineSet
EndChar

StartChar: ncaron
Encoding: 328 328 319
Width: 459
VWidth: 0
Flags: HMW
LayerCount: 2
Fore
SplineSet
211 459 m 257
 51 0 l 257
 21 0 l 257
 181 459 l 257
 211 459 l 257
406 308 m 258
 424 368 423 438 345 440 c 256
 252 442 184 355 146 282 c 257
 132 282 l 257
 173 370 247 470 355 469 c 256
 449 468 458 384 436 311 c 257
 328 0 l 257
 300 0 l 257
 406 308 l 258
366 564 m 257
 542 686 l 257
 557 668 l 257
 359 531 l 257
 253 671 l 257
 277 687 l 257
 366 564 l 257
EndSplineSet
EndChar

StartChar: Omacron
Encoding: 332 332 320
Width: 732
VWidth: 0
Flags: HMW
LayerCount: 2
Fore
SplineSet
142 350 m 256
 92 203 137 25 318 24 c 256
 503 23 664 184 721 350 c 256
 771 497 727 675 546 676 c 256
 361 677 199 516 142 350 c 256
109 350 m 256
 170 534 348 710 551 709 c 256
 749 708 809 515 755 350 c 256
 694 166 515 -10 312 -9 c 256
 114 -8 55 185 109 350 c 256
415 783 m 257
 424 812 l 257
 755 812 l 257
 745 783 l 257
 415 783 l 257
EndSplineSet
EndChar

StartChar: omacron
Encoding: 333 333 321
Width: 520
VWidth: 0
Flags: HMW
LayerCount: 2
Fore
SplineSet
63 230 m 256
 104 354 227 470 363 469 c 256
 496 468 543 342 506 230 c 256
 465 106 341 -10 205 -9 c 256
 72 -8 26 118 63 230 c 256
93 230 m 256
 60 134 93 21 210 20 c 256
 329 19 439 122 476 230 c 256
 509 326 476 439 359 440 c 256
 240 441 130 338 93 230 c 256
227 544 m 257
 237 573 l 257
 567 573 l 257
 557 544 l 257
 227 544 l 257
EndSplineSet
EndChar

StartChar: Obreve
Encoding: 334 334 322
Width: 732
VWidth: 0
Flags: HMW
LayerCount: 2
Fore
SplineSet
142 350 m 256
 92 203 137 25 318 24 c 256
 503 23 664 184 721 350 c 256
 771 497 727 675 546 676 c 256
 361 677 199 516 142 350 c 256
109 350 m 256
 170 534 348 710 551 709 c 256
 749 708 809 515 755 350 c 256
 694 166 515 -10 312 -9 c 256
 114 -8 55 185 109 350 c 256
473 909 m 257
 500 908 l 257
 491 847 511 797 581 796 c 256
 655 795 709 848 745 907 c 257
 772 907 l 257
 733 832 666 769 576 770 c 256
 490 771 460 832 473 909 c 257
EndSplineSet
EndChar

StartChar: obreve
Encoding: 335 335 323
Width: 520
VWidth: 0
Flags: HMW
LayerCount: 2
Fore
SplineSet
63 230 m 256
 104 354 227 470 363 469 c 256
 496 468 543 342 506 230 c 256
 465 106 341 -10 205 -9 c 256
 72 -8 26 118 63 230 c 256
93 230 m 256
 60 134 93 21 210 20 c 256
 329 19 439 122 476 230 c 256
 509 326 476 439 359 440 c 256
 240 441 130 338 93 230 c 256
286 670 m 257
 312 670 l 257
 303 609 323 558 393 557 c 256
 467 556 522 609 558 668 c 257
 585 668 l 257
 546 593 479 530 389 531 c 256
 303 532 273 593 286 670 c 257
EndSplineSet
EndChar

StartChar: Racute
Encoding: 340 340 324
Width: 464
VWidth: 0
Flags: HMW
LayerCount: 2
Fore
SplineSet
245 325 m 257
 279 325 l 257
 384 0 l 257
 349 0 l 257
 245 325 l 257
266 699 m 257
 299 699 l 257
 58 0 l 257
 27 0 l 257
 266 699 l 257
270 670 m 257
 280 700 l 257
 393 700 l 256
 508 696 590 621 551 502 c 256
 511 378 388 308 263 304 c 257
 145 304 l 257
 155 333 l 257
 267 333 l 257
 375 337 483 395 520 502 c 256
 556 605 487 665 388 670 c 257
 270 670 l 257
615 921 m 257
 397 771 l 257
 383 783 l 257
 593 939 l 257
 615 921 l 257
EndSplineSet
EndChar

StartChar: uni0156
Encoding: 342 342 325
Width: 464
VWidth: 0
Flags: HMW
LayerCount: 2
Fore
SplineSet
245 325 m 257
 279 325 l 257
 384 0 l 257
 349 0 l 257
 245 325 l 257
266 699 m 257
 299 699 l 257
 58 0 l 257
 27 0 l 257
 266 699 l 257
270 670 m 257
 280 700 l 257
 393 700 l 256
 508 696 590 621 551 502 c 256
 511 378 388 308 263 304 c 257
 145 304 l 257
 155 333 l 257
 267 333 l 257
 375 337 483 395 520 502 c 256
 556 605 487 665 388 670 c 257
 270 670 l 257
184 -62 m 257
 213 -75 l 257
 22 -320 l 257
 2 -313 l 257
 184 -62 l 257
EndSplineSet
EndChar

StartChar: uni0157
Encoding: 343 343 326
Width: 286
VWidth: 0
Flags: HMW
LayerCount: 2
Fore
SplineSet
211 459 m 257
 51 0 l 257
 21 0 l 257
 181 459 l 257
 211 459 l 257
352 421 m 257
 337 431 323 439 304 440 c 256
 221 444 174 343 146 281 c 257
 132 281 l 257
 164 355 218 473 315 469 c 256
 338 469 356 457 375 444 c 257
 352 421 l 257
22 -62 m 257
 50 -75 l 257
 -142 -320 l 257
 -161 -313 l 257
 22 -62 l 257
EndSplineSet
EndChar

StartChar: Scedilla
Encoding: 350 350 327
Width: 475
VWidth: 0
Flags: HMW
LayerCount: 2
Fore
SplineSet
79 205 m 257
 81 123 99 25 201 23 c 256
 295 21 379 90 408 177 c 256
 436 262 385 316 315 353 c 256
 238 393 174 449 205 544 c 256
 235 636 333 709 430 708 c 256
 524 707 558 634 563 552 c 257
 533 538 l 257
 529 608 503 675 422 676 c 256
 344 677 262 618 237 544 c 256
 207 458 277 411 343 376 c 256
 422 335 469 270 441 179 c 256
 408 74 307 -9 195 -8 c 256
 82 -7 52 96 49 191 c 257
 79 205 l 257
199 15 m 257
 225 15 l 257
 139 -69 l 257
 155 -62 175 -52 193 -54 c 256
 232 -59 249 -91 239 -128 c 256
 225 -181 160 -221 107 -220 c 256
 74 -220 55 -203 33 -182 c 257
 51 -167 l 257
 68 -183 86 -198 111 -198 c 256
 151 -198 204 -167 216 -127 c 256
 224 -100 210 -75 181 -72 c 256
 154 -69 124 -84 100 -94 c 257
 199 15 l 257
EndSplineSet
EndChar

StartChar: scedilla
Encoding: 351 351 328
Width: 379
VWidth: 0
Flags: HMW
LayerCount: 2
Fore
SplineSet
54 151 m 257
 54 91 66 20 141 19 c 256
 199 18 263 63 281 119 c 256
 300 177 253 205 207 225 c 256
 149 251 102 285 126 356 c 256
 149 423 222 469 291 468 c 256
 355 467 383 427 395 371 c 257
 367 358 l 257
 357 403 338 439 286 440 c 256
 234 441 172 407 154 356 c 256
 132 294 184 270 232 249 c 256
 287 225 332 187 312 121 c 256
 290 47 212 -10 136 -9 c 256
 48 -8 26 65 26 139 c 257
 54 151 l 257
140 14 m 257
 167 14 l 257
 80 -70 l 257
 96 -63 116 -53 134 -55 c 256
 173 -60 190 -92 180 -129 c 256
 166 -182 101 -222 48 -221 c 256
 16 -221 -4 -204 -25 -183 c 257
 -8 -169 l 257
 9 -185 27 -199 52 -199 c 256
 92 -199 145 -168 157 -128 c 256
 165 -101 151 -76 122 -73 c 256
 96 -70 66 -85 42 -95 c 257
 140 14 l 257
EndSplineSet
EndChar

StartChar: Zcaron
Encoding: 381 381 329
Width: 505
VWidth: 0
Flags: HMW
LayerCount: 2
Fore
SplineSet
209 669 m 257
 221 700 l 257
 677 699 l 257
 29 32 l 257
 436 31 l 257
 425 0 l 257
 -39 0 l 257
 610 668 l 257
 209 669 l 257
480 803 m 257
 656 924 l 257
 671 906 l 257
 473 769 l 257
 368 909 l 257
 391 926 l 257
 480 803 l 257
EndSplineSet
EndChar

StartChar: zcaron
Encoding: 382 382 330
Width: 412
VWidth: 0
Flags: HMW
LayerCount: 2
Fore
SplineSet
350 564 m 257
 525 686 l 257
 540 668 l 257
 342 531 l 257
 237 671 l 257
 260 687 l 257
 350 564 l 257
427 430 m 257
 131 431 l 257
 141 460 l 257
 494 459 l 257
 27 30 l 257
 346 29 l 257
 336 0 l 257
 -39 0 l 257
 427 430 l 257
EndSplineSet
EndChar

StartChar: Ydieresis
Encoding: 376 376 331
Width: 491
VWidth: 0
Flags: HMW
LayerCount: 2
Fore
SplineSet
351 794 m 256
 353 804 371 817 382 816 c 256
 393 815 400 803 398 792 c 256
 396 782 379 768 368 769 c 256
 356 770 349 783 351 794 c 256
527 794 m 256
 529 804 546 817 557 816 c 256
 568 815 575 803 573 792 c 256
 571 782 553 768 542 769 c 256
 530 770 525 783 527 794 c 256
630 698 m 257
 668 698 l 257
 298 275 l 257
 203 0 l 257
 171 0 l 257
 268 279 l 257
 197 700 l 257
 230 700 l 257
 292 310 l 257
 630 698 l 257
EndSplineSet
EndChar

StartChar: Scaron
Encoding: 352 352 332
Width: 475
VWidth: 0
Flags: HMW
LayerCount: 2
Fore
SplineSet
79 205 m 257
 81 123 99 25 201 23 c 256
 295 21 379 90 408 177 c 256
 436 262 385 316 315 353 c 256
 238 393 175 452 205 546 c 256
 235 637 334 709 430 708 c 256
 523 707 559 634 563 552 c 257
 533 538 l 257
 530 607 506 675 425 676 c 256
 346 677 263 618 237 544 c 256
 207 458 277 411 343 376 c 256
 422 335 469 270 441 179 c 256
 408 74 308 -10 195 -8 c 256
 82 -6 52 96 49 191 c 257
 79 205 l 257
464 810 m 257
 640 931 l 257
 655 913 l 257
 457 776 l 257
 352 916 l 257
 375 933 l 257
 464 810 l 257
EndSplineSet
EndChar

StartChar: scaron
Encoding: 353 353 333
Width: 379
VWidth: 0
Flags: HMW
LayerCount: 2
Fore
SplineSet
55 151 m 257
 52 89 63 20 140 19 c 256
 199 18 263 63 281 119 c 256
 300 178 253 206 207 226 c 256
 150 252 102 286 126 356 c 256
 149 422 223 468 291 468 c 256
 355 468 384 428 395 371 c 257
 367 358 l 257
 357 402 338 437 286 438 c 256
 234 439 172 405 154 354 c 256
 132 293 185 269 232 248 c 256
 286 224 331 185 312 120 c 256
 290 45 210 -10 133 -9 c 256
 45 -8 22 63 26 138 c 257
 55 151 l 257
323 564 m 257
 498 686 l 257
 514 668 l 257
 315 531 l 257
 209 671 l 257
 233 687 l 257
 323 564 l 257
EndSplineSet
EndChar

StartChar: Lslash
Encoding: 321 321 334
Width: 372
VWidth: 0
Flags: HMW
LayerCount: 2
Fore
SplineSet
69 374 m 257
 66 397 l 257
 378 564 l 257
 381 541 l 257
 69 374 l 257
260 699 m 257
 293 699 l 257
 63 30 l 257
 321 30 l 257
 310 0 l 257
 20 0 l 257
 260 699 l 257
EndSplineSet
EndChar

StartChar: lslash
Encoding: 322 322 335
Width: 169
VWidth: 0
Flags: HMW
LayerCount: 2
Fore
SplineSet
69 375 m 257
 65 397 l 257
 306 543 l 257
 310 521 l 257
 69 375 l 257
283 779 m 257
 313 779 l 257
 44 0 l 257
 16 0 l 257
 283 779 l 257
EndSplineSet
EndChar

StartChar: uni0218
Encoding: 536 536 336
Width: 475
VWidth: 0
Flags: HMW
LayerCount: 2
Fore
SplineSet
79 205 m 257
 81 123 99 25 201 23 c 256
 295 21 379 90 408 177 c 256
 436 262 385 316 315 353 c 256
 238 393 175 452 205 546 c 256
 235 637 334 709 430 708 c 256
 523 707 559 634 563 552 c 257
 533 538 l 257
 530 607 506 675 425 676 c 256
 346 677 263 618 237 544 c 256
 207 458 277 411 343 376 c 256
 422 335 469 270 441 179 c 256
 408 74 308 -10 195 -8 c 256
 82 -6 52 96 49 191 c 257
 79 205 l 257
204 -71 m 257
 232 -83 l 257
 40 -329 l 257
 21 -321 l 257
 204 -71 l 257
EndSplineSet
EndChar

StartChar: uni0219
Encoding: 537 537 337
Width: 379
VWidth: 0
Flags: HMW
LayerCount: 2
Fore
SplineSet
55 151 m 257
 52 89 62 20 139 19 c 256
 198 18 263 63 281 119 c 256
 300 178 253 206 207 226 c 256
 150 252 102 286 126 356 c 256
 149 422 223 468 291 468 c 256
 355 468 384 428 395 371 c 257
 367 358 l 257
 357 402 338 437 286 438 c 256
 234 439 172 405 154 354 c 256
 132 293 185 269 232 248 c 256
 286 224 331 185 312 120 c 256
 290 45 210 -10 133 -9 c 256
 45 -8 22 63 26 138 c 257
 55 151 l 257
143 -72 m 257
 170 -85 l 257
 -21 -330 l 257
 -41 -323 l 257
 143 -72 l 257
EndSplineSet
EndChar

StartChar: pi
Encoding: 960 960 338
Width: 461
VWidth: 0
Flags: HMW
LayerCount: 2
Fore
SplineSet
182 443 m 257
 213 443 l 257
 58 0 l 257
 30 0 l 257
 182 443 l 257
131 460 m 257
 527 460 l 257
 517 431 l 257
 120 431 l 257
 131 460 l 257
418 443 m 257
 448 443 l 257
 337 127 l 257
 322 82 303 45 351 21 c 257
 342 -8 l 257
 273 12 288 61 307 121 c 257
 418 443 l 257
EndSplineSet
EndChar

StartChar: trademark
Encoding: 8482 8482 339
Width: 625
VWidth: 0
Flags: HMW
LayerCount: 2
Fore
SplineSet
214 684 m 257
 218 700 l 257
 411 700 l 257
 406 684 l 257
 317 684 l 257
 202 351 l 257
 186 351 l 257
 301 684 l 257
 214 684 l 257
721 663 m 257
 751 713 l 257
 660 350 l 257
 645 350 l 257
 721 663 l 257
486 710 m 257
 478 660 l 257
 339 351 l 257
 322 351 l 257
 486 710 l 257
751 712 m 257
 733 669 l 257
 508 396 l 257
 473 674 l 257
 484 711 l 257
 518 431 l 257
 751 712 l 257
EndSplineSet
EndChar

StartChar: uni2219
Encoding: 8729 8729 340
Width: 255
VWidth: 0
Flags: HMW
LayerCount: 2
Fore
SplineSet
201 440 m 256
 203 450 220 464 231 463 c 256
 242 462 248 450 246 439 c 256
 244 429 227 415 216 416 c 256
 205 417 199 429 201 440 c 256
EndSplineSet
EndChar

StartChar: agrave.alt
Encoding: 65537 -1 341
Width: 516
VWidth: 0
Flags: HMW
LayerCount: 2
Fore
SplineSet
520 459 m 257
 549 459 l 257
 389 0 l 257
 362 0 l 257
 520 459 l 257
63 230 m 256
 102 348 214 472 348 469 c 256
 476 466 485 325 454 230 c 256
 417 119 317 -8 189 -9 c 256
 56 -10 28 125 63 230 c 256
93 230 m 256
 62 140 80 19 198 20 c 256
 309 21 406 133 440 230 c 256
 468 312 456 436 347 440 c 256
 230 445 129 333 93 230 c 256
320 693 m 257
 351 709 l 257
 453 549 l 257
 436 538 l 257
 320 693 l 257
EndSplineSet
EndChar

StartChar: aacute.alt
Encoding: 65538 -1 342
Width: 516
VWidth: 0
Flags: HMW
LayerCount: 2
Fore
SplineSet
520 459 m 257
 549 459 l 257
 389 0 l 257
 362 0 l 257
 520 459 l 257
63 230 m 256
 102 348 214 472 348 469 c 256
 476 466 485 325 454 230 c 256
 417 119 317 -8 189 -9 c 256
 56 -10 28 125 63 230 c 256
93 230 m 256
 62 140 80 19 198 20 c 256
 309 21 406 133 440 230 c 256
 468 312 456 436 347 440 c 256
 230 445 129 333 93 230 c 256
527 689 m 257
 308 539 l 257
 295 552 l 257
 505 708 l 257
 527 689 l 257
EndSplineSet
EndChar

StartChar: acircumflex.alt
Encoding: 65539 -1 343
Width: 516
VWidth: 0
Flags: HMW
LayerCount: 2
Fore
SplineSet
520 459 m 257
 549 459 l 257
 389 0 l 257
 362 0 l 257
 520 459 l 257
63 230 m 256
 102 348 214 472 348 469 c 256
 476 466 485 325 454 230 c 256
 417 119 317 -8 189 -9 c 256
 56 -10 28 125 63 230 c 256
93 230 m 256
 62 140 80 19 198 20 c 256
 309 21 406 133 440 230 c 256
 468 312 456 436 347 440 c 256
 230 445 129 333 93 230 c 256
425 667 m 257
 250 546 l 257
 235 563 l 257
 433 700 l 257
 538 560 l 257
 516 544 l 257
 425 667 l 257
EndSplineSet
EndChar

StartChar: atilde.alt
Encoding: 65540 -1 344
Width: 516
VWidth: 0
Flags: HMW
LayerCount: 2
Fore
SplineSet
520 459 m 257
 549 459 l 257
 389 0 l 257
 362 0 l 257
 520 459 l 257
63 230 m 256
 102 348 214 472 348 469 c 256
 476 466 485 325 454 230 c 256
 417 119 317 -8 189 -9 c 256
 56 -10 28 125 63 230 c 256
93 230 m 256
 62 140 80 19 198 20 c 256
 309 21 406 133 440 230 c 256
 468 312 456 436 347 440 c 256
 230 445 129 333 93 230 c 256
255 557 m 257
 254 586 320 620 345 620 c 256
 385 621 406 573 446 575 c 256
 475 576 498 603 517 621 c 257
 533 605 l 257
 509 580 478 548 441 549 c 256
 402 550 381 595 342 594 c 256
 311 593 292 567 274 545 c 257
 255 557 l 257
EndSplineSet
EndChar

StartChar: adieresis.alt
Encoding: 65541 -1 345
Width: 516
VWidth: 0
Flags: HMW
LayerCount: 2
Fore
SplineSet
520 459 m 257
 549 459 l 257
 389 0 l 257
 362 0 l 257
 520 459 l 257
63 230 m 256
 102 348 214 472 348 469 c 256
 476 466 485 325 454 230 c 256
 417 119 317 -8 189 -9 c 256
 56 -10 28 125 63 230 c 256
93 230 m 256
 62 140 80 19 198 20 c 256
 309 21 406 133 440 230 c 256
 468 312 456 436 347 440 c 256
 230 445 129 333 93 230 c 256
474 590 m 256
 476 600 493 614 504 613 c 256
 515 612 522 600 520 589 c 256
 518 579 501 565 490 566 c 256
 479 567 472 579 474 590 c 256
286 590 m 256
 288 600 305 614 316 613 c 256
 327 612 334 600 332 589 c 256
 330 579 313 565 302 566 c 256
 291 567 284 579 286 590 c 256
EndSplineSet
EndChar

StartChar: aring.alt
Encoding: 65542 -1 346
Width: 516
VWidth: 0
Flags: HMW
LayerCount: 2
Fore
SplineSet
520 459 m 257
 549 459 l 257
 389 0 l 257
 362 0 l 257
 520 459 l 257
63 230 m 256
 102 348 214 472 348 469 c 256
 476 466 485 325 454 230 c 256
 417 119 317 -8 189 -9 c 256
 56 -10 28 125 63 230 c 256
93 230 m 256
 62 140 80 19 198 20 c 256
 309 21 406 133 440 230 c 256
 468 312 456 436 347 440 c 256
 230 445 129 333 93 230 c 256
298 631 m 256
 314 682 372 730 427 729 c 256
 481 728 508 676 492 628 c 256
 476 577 417 530 362 531 c 256
 308 532 282 583 298 631 c 256
319 629 m 256
 307 593 325 552 366 551 c 256
 408 550 459 592 471 630 c 256
 483 666 465 707 424 708 c 256
 382 709 331 667 319 629 c 256
EndSplineSet
EndChar

StartChar: amacron.alt
Encoding: 65543 -1 347
Width: 516
VWidth: 0
Flags: HMW
LayerCount: 2
Fore
SplineSet
520 459 m 257
 549 459 l 257
 389 0 l 257
 362 0 l 257
 520 459 l 257
63 230 m 256
 102 348 214 472 348 469 c 256
 476 466 485 325 454 230 c 256
 417 119 317 -8 189 -9 c 256
 56 -10 28 125 63 230 c 256
93 230 m 256
 62 140 80 19 198 20 c 256
 309 21 406 133 440 230 c 256
 468 312 456 436 347 440 c 256
 230 445 129 333 93 230 c 256
214 550 m 257
 223 579 l 257
 554 579 l 257
 544 550 l 257
 214 550 l 257
EndSplineSet
EndChar

StartChar: abreve.alt
Encoding: 65544 -1 348
Width: 516
VWidth: 0
Flags: HMW
LayerCount: 2
Fore
SplineSet
520 459 m 257
 549 459 l 257
 389 0 l 257
 362 0 l 257
 520 459 l 257
63 230 m 256
 102 348 214 472 348 469 c 256
 476 466 485 325 454 230 c 256
 417 119 317 -8 189 -9 c 256
 56 -10 28 125 63 230 c 256
93 230 m 256
 62 140 80 19 198 20 c 256
 309 21 406 133 440 230 c 256
 468 312 456 436 347 440 c 256
 230 445 129 333 93 230 c 256
263 684 m 257
 289 684 l 257
 280 623 301 572 371 571 c 256
 445 570 500 622 535 682 c 257
 562 682 l 257
 523 607 457 544 367 545 c 256
 281 546 250 606 263 684 c 257
EndSplineSet
EndChar

StartChar: aogonek.alt
Encoding: 65545 -1 349
Width: 516
VWidth: 0
Flags: HMW
LayerCount: 2
Fore
SplineSet
520 459 m 257
 549 459 l 257
 389 0 l 257
 362 0 l 257
 520 459 l 257
63 230 m 256
 102 348 214 472 348 469 c 256
 476 466 485 325 454 230 c 256
 417 119 317 -8 189 -9 c 256
 56 -10 28 125 63 230 c 256
93 230 m 256
 62 140 80 19 198 20 c 256
 309 21 406 133 440 230 c 256
 468 312 456 436 347 440 c 256
 230 445 129 333 93 230 c 256
359 -161 m 257
 367 -182 l 257
 336 -202 303 -219 265 -219 c 256
 214 -219 174 -187 189 -133 c 256
 211 -55 312 -17 378 13 c 257
 392 0 l 257
 336 -28 238 -59 220 -128 c 256
 210 -166 236 -190 272 -192 c 256
 303 -194 333 -175 359 -161 c 257
EndSplineSet
EndChar

StartChar: dagger
Encoding: 8224 8224 350
Width: 489
VWidth: 0
Flags: HMW
LayerCount: 2
Fore
SplineSet
216 540 m 257
 538 540 l 257
 528 511 l 257
 207 511 l 257
 216 540 l 257
412 700 m 257
 442 700 l 257
 178 -150 l 257
 150 -150 l 257
 412 700 l 257
EndSplineSet
EndChar

StartChar: daggerdbl
Encoding: 8225 8225 351
Width: 489
VWidth: 0
Flags: HMW
LayerCount: 2
Fore
SplineSet
87 120 m 257
 409 120 l 257
 399 91 l 257
 78 91 l 257
 87 120 l 257
216 540 m 257
 538 540 l 257
 528 511 l 257
 207 511 l 257
 216 540 l 257
412 700 m 257
 442 700 l 257
 178 -150 l 257
 150 -150 l 257
 412 700 l 257
EndSplineSet
EndChar

StartChar: ellipsis
Encoding: 8230 8230 352
Width: 787
VWidth: 0
Flags: HMW
LayerCount: 2
Fore
SplineSet
56 13 m 256
 58 23 75 37 86 36 c 256
 97 35 103 23 101 12 c 256
 99 2 82 -12 71 -11 c 256
 60 -10 54 2 56 13 c 256
321 13 m 256
 323 23 340 37 351 36 c 256
 362 35 369 23 367 12 c 256
 365 2 348 -12 337 -11 c 256
 326 -10 319 2 321 13 c 256
586 13 m 256
 588 23 605 37 616 36 c 256
 627 35 634 23 632 12 c 256
 630 2 614 -12 603 -11 c 256
 592 -10 584 2 586 13 c 256
EndSplineSet
EndChar

StartChar: uniFF10
Encoding: 65296 65296 353
Width: 525
VWidth: 0
Flags: HMW
LayerCount: 2
Fore
SplineSet
142 350 m 256
 110 259 53 23 213 21 c 256
 372 19 471 224 514 350 c 256
 546 441 604 677 444 679 c 256
 285 681 185 476 142 350 c 256
110 350 m 256
 158 493 272 711 449 709 c 256
 630 707 583 460 546 350 c 256
 498 207 385 -11 208 -9 c 256
 27 -7 73 240 110 350 c 256
EndSplineSet
EndChar

StartChar: uniFF11
Encoding: 65297 65297 354
Width: 525
VWidth: 0
Flags: HMW
LayerCount: 2
Fore
SplineSet
300 628 m 257
 313 662 l 257
 516 707 l 257
 272 0 l 257
 241 0 l 257
 470 665 l 257
 300 628 l 257
EndSplineSet
EndChar

StartChar: uniFF12
Encoding: 65298 65298 355
Width: 525
VWidth: 0
Flags: HMW
LayerCount: 2
Fore
SplineSet
-19 0 m 257
 399 340 l 258
 458 388 519 441 545 515 c 256
 572 593 542 678 450 680 c 256
 325 683 244 562 198 461 c 257
 168 461 l 257
 218 578 313 713 456 710 c 256
 566 708 608 609 576 513 c 256
 550 434 485 374 422 322 c 258
 58 31 l 257
 431 30 l 257
 421 0 l 257
 -19 0 l 257
EndSplineSet
EndChar

StartChar: uniFF13
Encoding: 65299 65299 356
Width: 525
VWidth: 0
Flags: HMW
LayerCount: 2
Fore
SplineSet
306 358 m 257
 313 379 l 257
 406 390 508 435 543 530 c 256
 570 604 536 678 452 680 c 256
 356 682 287 607 246 528 c 257
 216 528 l 257
 261 624 343 711 457 709 c 256
 556 708 606 621 575 530 c 256
 536 417 416 368 306 358 c 257
213 -9 m 256
 94 -9 49 79 73 185 c 257
 103 185 l 257
 83 95 116 21 218 21 c 256
 314 21 412 89 443 181 c 256
 478 285 396 339 304 350 c 257
 311 370 l 257
 419 360 512 298 473 178 c 256
 438 70 326 -9 213 -9 c 256
EndSplineSet
EndChar

StartChar: uniFF14
Encoding: 65300 65300 357
Width: 525
VWidth: 0
Flags: HMW
LayerCount: 2
Fore
SplineSet
13 141 m 257
 48 168 l 257
 375 169 l 257
 382 169 l 257
 500 169 l 257
 489 140 l 257
 13 141 l 257
48 142 m 257
 13 141 l 257
 566 699 l 257
 579 699 l 257
 338 0 l 257
 306 0 l 257
 360 152 l 257
 361 159 l 257
 519 616 l 257
 48 142 l 257
EndSplineSet
EndChar

StartChar: uniFF15
Encoding: 65301 65301 358
Width: 525
VWidth: 0
Flags: HMW
LayerCount: 2
Fore
SplineSet
495 230 m 256
 454 103 335 -10 197 -9 c 256
 102 -9 54 51 37 138 c 257
 67 154 l 257
 80 78 118 22 202 21 c 256
 322 20 426 121 463 230 c 256
 493 316 467 418 362 422 c 256
 279 425 205 376 141 330 c 257
 179 370 l 257
 230 418 306 453 377 451 c 256
 498 449 527 329 495 230 c 256
370 670 m 257
 198 376 l 257
 137 326 l 257
 355 699 l 257
 667 700 l 257
 657 671 l 257
 370 670 l 257
EndSplineSet
EndChar

StartChar: uniFF16
Encoding: 65302 65302 359
Width: 525
VWidth: 0
Flags: HMW
LayerCount: 2
Fore
SplineSet
103 223 m 256
 70 131 100 22 213 20 c 256
 328 18 432 119 467 223 c 256
 496 309 466 415 361 417 c 256
 248 419 139 326 103 223 c 256
499 698 m 257
 541 698 l 257
 204 373 l 257
 201 375 l 257
 252 412 308 445 373 443 c 256
 491 439 527 321 496 223 c 256
 457 102 341 -10 208 -9 c 256
 77 -8 36 113 73 223 c 256
 93 282 132 333 175 378 c 258
 499 698 l 257
EndSplineSet
EndChar

StartChar: uniFF17
Encoding: 65303 65303 360
Width: 525
VWidth: 0
Flags: HMW
LayerCount: 2
Fore
SplineSet
224 670 m 257
 234 700 l 257
 685 699 l 257
 105 0 l 257
 72 0 l 257
 626 669 l 257
 224 670 l 257
EndSplineSet
EndChar

StartChar: uniFF18
Encoding: 65304 65304 361
Width: 525
VWidth: 0
Flags: HMW
LayerCount: 2
Fore
SplineSet
223 538 m 256
 253 629 352 710 449 709 c 256
 543 708 589 621 562 537 c 256
 532 446 433 364 335 365 c 256
 240 366 196 453 223 538 c 256
251 535 m 256
 229 469 259 388 337 386 c 256
 418 384 505 462 531 535 c 256
 556 604 524 679 444 680 c 256
 362 681 277 611 251 535 c 256
83 187 m 256
 117 288 226 377 335 376 c 256
 440 375 492 282 462 186 c 256
 428 80 321 -10 208 -9 c 256
 97 -8 50 89 83 187 c 256
113 189 m 256
 84 107 116 21 212 20 c 256
 309 19 403 99 433 189 c 256
 459 266 423 354 333 355 c 256
 240 356 144 274 113 189 c 256
EndSplineSet
EndChar

StartChar: uniFF19
Encoding: 65305 65305 362
Width: 525
VWidth: 0
Flags: HMW
LayerCount: 2
Fore
SplineSet
553 477 m 256
 586 569 557 678 444 680 c 256
 329 682 224 581 189 477 c 256
 160 391 190 285 295 283 c 256
 408 281 517 374 553 477 c 256
156 0 m 257
 116 0 l 257
 452 327 l 257
 455 325 l 257
 404 288 348 255 283 257 c 256
 165 261 129 379 160 477 c 256
 199 598 316 710 449 709 c 256
 580 708 620 587 583 477 c 256
 563 418 524 367 481 322 c 258
 156 0 l 257
EndSplineSet
EndChar

StartChar: caron
Encoding: 711 711 363
Width: 451
VWidth: 0
Flags: HMW
LayerCount: 2
Fore
SplineSet
375 604 m 257
 550 726 l 257
 566 708 l 257
 368 571 l 257
 262 711 l 257
 286 727 l 257
 375 604 l 257
EndSplineSet
EndChar

StartChar: napostrophe
Encoding: 329 329 364
Width: 583
VWidth: 0
Flags: HMW
LayerCount: 2
Fore
SplineSet
300 459 m 257
 141 0 l 257
 111 0 l 257
 271 459 l 257
 300 459 l 257
497 308 m 258
 515 368 513 438 435 440 c 256
 342 442 275 355 237 282 c 257
 222 282 l 257
 263 370 338 470 446 469 c 256
 540 468 548 384 526 311 c 257
 418 0 l 257
 389 0 l 257
 497 308 l 258
336 698 m 257
 373 698 l 257
 200 472 l 257
 177 472 l 257
 336 698 l 257
EndSplineSet
EndChar

StartChar: IJ
Encoding: 306 306 365
Width: 461
VWidth: 0
Flags: HMW
LayerCount: 2
Fore
SplineSet
27 -143 m 257
 48 -168 71 -188 106 -188 c 256
 185 -189 225 -114 249 -50 c 257
 506 699 l 257
 537 699 l 257
 277 -60 l 258
 248 -139 194 -222 100 -219 c 256
 58 -218 29 -197 4 -166 c 257
 27 -143 l 257
263 699 m 257
 295 699 l 257
 53 0 l 257
 23 0 l 257
 263 699 l 257
EndSplineSet
EndChar

StartChar: ij
Encoding: 307 307 366
Width: 479
VWidth: 0
Flags: HMW
LayerCount: 2
Fore
SplineSet
490 683 m 256
 492 693 509 706 520 705 c 256
 531 704 537 692 535 681 c 256
 533 671 517 658 506 659 c 256
 495 660 488 672 490 683 c 256
68 -150 m 257
 85 -150 99 -187 120 -189 c 256
 180 -197 223 -119 240 -73 c 258
 423 459 l 257
 453 459 l 257
 270 -76 l 258
 246 -141 193 -224 112 -219 c 256
 79 -217 62 -198 44 -173 c 257
 68 -150 l 257
255 683 m 256
 257 693 273 706 284 705 c 256
 295 704 302 692 300 681 c 256
 298 671 281 658 270 659 c 256
 259 660 253 672 255 683 c 256
188 459 m 257
 218 459 l 257
 58 0 l 257
 30 0 l 257
 188 459 l 257
EndSplineSet
EndChar

StartChar: uni0237
Encoding: 567 567 367
Width: 188
VWidth: 0
Flags: HMW
LayerCount: 2
Fore
SplineSet
-176 -150 m 257
 -163 -169 -151 -188 -125 -189 c 256
 -63 -192 -23 -122 -4 -73 c 258
 178 459 l 257
 208 459 l 257
 25 -76 l 258
 1 -141 -51 -224 -132 -219 c 256
 -165 -217 -183 -198 -200 -173 c 257
 -176 -150 l 257
EndSplineSet
EndChar

StartChar: Sacute
Encoding: 346 346 368
Width: 475
VWidth: 0
Flags: HMW
LayerCount: 2
Fore
SplineSet
79 205 m 257
 81 123 99 25 201 23 c 256
 295 21 379 90 408 177 c 256
 436 262 385 316 315 353 c 256
 238 393 175 452 205 546 c 256
 235 637 334 709 430 708 c 256
 523 707 559 634 563 552 c 257
 533 538 l 257
 530 607 506 675 425 676 c 256
 346 677 263 618 237 544 c 256
 207 458 277 411 343 376 c 256
 422 335 469 270 441 179 c 256
 408 74 308 -10 195 -8 c 256
 82 -6 52 96 49 191 c 257
 79 205 l 257
660 921 m 257
 442 771 l 257
 428 783 l 257
 638 939 l 257
 660 921 l 257
EndSplineSet
EndChar

StartChar: sacute
Encoding: 347 347 369
Width: 379
VWidth: 0
Flags: HMW
LayerCount: 2
Fore
SplineSet
55 151 m 257
 52 89 62 20 139 19 c 256
 198 18 263 63 281 119 c 256
 300 178 253 206 207 226 c 256
 150 252 102 286 126 356 c 256
 149 422 223 468 291 468 c 256
 355 468 384 428 395 371 c 257
 367 358 l 257
 357 402 338 437 286 438 c 256
 234 439 172 405 154 354 c 256
 132 293 185 269 232 248 c 256
 286 224 331 185 312 120 c 256
 290 45 210 -10 133 -9 c 256
 45 -8 22 63 26 138 c 257
 55 151 l 257
521 682 m 257
 304 532 l 257
 289 545 l 257
 498 701 l 257
 521 682 l 257
EndSplineSet
EndChar

StartChar: Scircumflex
Encoding: 348 348 370
Width: 475
VWidth: 0
Flags: HMW
LayerCount: 2
Fore
SplineSet
79 205 m 257
 81 123 99 25 201 23 c 256
 295 21 379 90 408 177 c 256
 436 262 385 316 315 353 c 256
 238 393 175 452 205 546 c 256
 235 637 334 709 430 708 c 256
 523 707 559 634 563 552 c 257
 533 538 l 257
 530 607 506 675 425 676 c 256
 346 677 263 618 237 544 c 256
 207 458 277 411 343 376 c 256
 422 335 469 270 441 179 c 256
 408 74 308 -10 195 -8 c 256
 82 -6 52 96 49 191 c 257
 79 205 l 257
497 891 m 257
 322 770 l 257
 307 787 l 257
 505 924 l 257
 610 785 l 257
 588 769 l 257
 497 891 l 257
EndSplineSet
EndChar

StartChar: scircumflex
Encoding: 349 349 371
Width: 379
VWidth: 0
Flags: HMW
LayerCount: 2
Fore
SplineSet
55 151 m 257
 52 89 63 20 140 19 c 256
 199 18 263 63 281 119 c 256
 300 178 253 206 207 226 c 256
 150 252 102 286 126 356 c 256
 149 422 223 468 291 468 c 256
 355 468 384 428 395 371 c 257
 367 358 l 257
 357 402 338 437 286 438 c 256
 234 439 172 405 154 354 c 256
 132 293 185 269 232 248 c 256
 286 224 331 185 312 120 c 256
 290 45 210 -10 133 -9 c 256
 45 -8 22 63 26 138 c 257
 55 151 l 257
358 652 m 257
 182 532 l 257
 168 549 l 257
 366 686 l 257
 471 546 l 257
 448 530 l 257
 358 652 l 257
EndSplineSet
EndChar

StartChar: uni1E9E
Encoding: 7838 7838 372
Width: 639
VWidth: 0
Flags: HMW
LayerCount: 2
Fore
SplineSet
328 -9 m 256
 213 -9 173 84 195 185 c 257
 225 185 l 257
 207 101 235 22 333 21 c 256
 430 20 523 98 554 188 c 256
 591 296 504 339 412 348 c 257
 419 369 l 257
 527 360 624 309 584 185 c 256
 549 79 441 -9 328 -9 c 256
415 358 m 257
 422 379 l 257
 518 389 619 431 652 530 c 256
 683 621 610 679 524 680 c 256
 363 682 243 548 191 407 c 258
 50 0 l 257
 19 0 l 257
 159 407 l 258
 216 565 349 710 529 709 c 256
 630 708 719 642 684 533 c 256
 646 415 529 367 415 358 c 257
EndSplineSet
EndChar

StartChar: Zacute
Encoding: 377 377 373
Width: 505
VWidth: 0
Flags: HW
LayerCount: 2
Fore
SplineSet
209 669 m 257
 221 700 l 257
 677 699 l 257
 29 32 l 257
 436 31 l 257
 425 0 l 257
 -39 0 l 257
 610 668 l 257
 209 669 l 257
667 921 m 257
 448 771 l 257
 435 783 l 257
 645 939 l 257
 667 921 l 257
EndSplineSet
EndChar

StartChar: zacute
Encoding: 378 378 374
Width: 412
VWidth: 0
Flags: HW
LayerCount: 2
Fore
SplineSet
426 430 m 257
 131 431 l 257
 141 460 l 257
 494 459 l 257
 28 30 l 257
 346 29 l 257
 336 0 l 257
 -39 0 l 257
 426 430 l 257
538 688 m 257
 319 538 l 257
 306 550 l 257
 516 706 l 257
 538 688 l 257
EndSplineSet
EndChar

StartChar: Zdotaccent
Encoding: 379 379 375
Width: 505
VWidth: 0
Flags: HW
LayerCount: 2
Fore
SplineSet
209 669 m 257
 221 700 l 257
 677 699 l 257
 29 32 l 257
 436 31 l 257
 425 0 l 257
 -39 0 l 257
 610 668 l 257
 209 669 l 257
457 793 m 256
 459 803 475 817 486 816 c 256
 497 815 505 803 503 792 c 256
 501 782 484 768 473 769 c 256
 462 770 455 782 457 793 c 256
EndSplineSet
EndChar

StartChar: zdotaccent
Encoding: 380 380 376
Width: 412
VWidth: 0
Flags: HW
LayerCount: 2
Fore
SplineSet
426 430 m 257
 131 431 l 257
 141 460 l 257
 494 459 l 257
 28 30 l 257
 346 29 l 257
 336 0 l 257
 -39 0 l 257
 426 430 l 257
336 584 m 256
 338 594 355 608 366 607 c 256
 377 606 383 594 381 583 c 256
 379 573 363 559 352 560 c 256
 341 561 334 573 336 584 c 256
EndSplineSet
EndChar

StartChar: Tcaron
Encoding: 356 356 377
Width: 414
VWidth: 0
Flags: HW
LayerCount: 2
Fore
SplineSet
190 669 m 257
 200 700 l 257
 584 700 l 257
 574 669 l 257
 397 669 l 257
 168 0 l 257
 136 0 l 257
 366 669 l 257
 190 669 l 257
425 803 m 257
 600 924 l 257
 615 906 l 257
 417 769 l 257
 312 909 l 257
 335 926 l 257
 425 803 l 257
EndSplineSet
EndChar

StartChar: tcaron
Encoding: 357 357 378
Width: 282
VWidth: 0
Flags: HW
LayerCount: 2
Fore
SplineSet
114 460 m 257
 285 460 l 257
 274 431 l 257
 103 431 l 257
 114 460 l 257
239 619 m 257
 270 619 l 257
 56 0 l 257
 27 0 l 257
 239 619 l 257
477 783 m 257
 505 770 l 257
 314 525 l 257
 294 532 l 257
 477 783 l 257
EndSplineSet
EndChar

StartChar: Uring
Encoding: 366 366 379
Width: 554
VWidth: 0
Flags: HW
LayerCount: 2
Fore
SplineSet
263 699 m 257
 294 699 l 257
 130 223 l 258
 102 133 111 23 228 22 c 256
 345 21 431 122 469 223 c 258
 633 699 l 257
 665 699 l 257
 502 223 l 258
 459 104 359 -10 223 -9 c 256
 88 -8 66 115 99 223 c 257
 263 699 l 257
423 870 m 256
 439 921 498 969 553 968 c 256
 607 967 633 915 617 867 c 256
 601 816 542 769 487 770 c 256
 433 771 407 822 423 870 c 256
444 868 m 256
 432 832 450 792 491 790 c 256
 533 787 584 831 596 869 c 256
 608 905 590 945 549 947 c 256
 507 950 456 906 444 868 c 256
EndSplineSet
EndChar

StartChar: uring
Encoding: 367 367 380
Width: 459
VWidth: 0
Flags: HW
LayerCount: 2
Fore
SplineSet
299 0 m 257
 458 459 l 257
 488 459 l 257
 329 0 l 257
 299 0 l 257
105 159 m 258
 86 99 82 22 164 20 c 256
 257 18 325 104 363 178 c 257
 375 178 l 257
 335 91 262 -10 154 -9 c 256
 56 -8 52 83 75 156 c 257
 181 459 l 257
 210 459 l 257
 105 159 l 258
294 631 m 256
 310 682 369 730 424 729 c 256
 478 728 504 677 488 629 c 256
 472 578 413 530 358 531 c 256
 304 532 278 583 294 631 c 256
315 630 m 256
 303 594 321 554 362 552 c 256
 404 549 455 592 467 630 c 256
 479 666 461 706 420 708 c 256
 378 711 327 668 315 630 c 256
EndSplineSet
EndChar
